<svg xmlns="http://www.w3.org/2000/svg" width="33.899" height="38.741" viewBox="0 0 33.899 38.741"><g transform="translate(-0.05 0)"><path d="M20.985,38.741H4.843A4.848,4.848,0,0,1,0,33.9V12.913A1.616,1.616,0,0,1,1.615,11.3H6.742a4.49,4.49,0,0,1,.591-5.58,1.241,1.241,0,0,0,0-1.753L6.123,2.755A1.614,1.614,0,0,1,8.405.472L9.617,1.684A4.473,4.473,0,0,1,9.617,8a1.24,1.24,0,0,0,0,1.753L11.161,11.3h4.46a4.49,4.49,0,0,1,.591-5.58,1.241,1.241,0,0,0,0-1.753L15,2.755A1.614,1.614,0,0,1,17.284.472l1.21,1.211a4.473,4.473,0,0,1,0,6.318,1.242,1.242,0,0,0,0,1.753L20.039,11.3h4.175a1.616,1.616,0,0,1,1.615,1.614v2.568a9.674,9.674,0,0,1-.052,19.087A4.859,4.859,0,0,1,20.985,38.741ZM3.228,14.528V33.9a1.616,1.616,0,0,0,1.615,1.615H20.985A1.616,1.616,0,0,0,22.6,33.9V14.528Zm22.6,4.248V31.265a6.448,6.448,0,0,0,0-12.489Z" transform="translate(0.05 0)" fill="#52c0ef"/><path d="M1.614,0A1.615,1.615,0,0,0,0,1.614V8.071a1.614,1.614,0,1,0,3.228,0V1.614A1.615,1.615,0,0,0,1.614,0Z" transform="translate(16.193 17.756)" fill="#52c0ef"/></g></svg>