<?xml version="1.0" standalone="no"?>
<!DOCTYPE svg PUBLIC "-//W3C//DTD SVG 1.1//EN" "http://www.w3.org/Graphics/SVG/1.1/DTD/svg11.dtd" >
<svg xmlns="http://www.w3.org/2000/svg" xmlns:xlink="http://www.w3.org/1999/xlink" version="1.1">
<metadata>
Created by FontForge 20170731 at Sat Sep 30 20:32:55 2017
 By Aleksey,,,
Copyright (c) 2015 by Reza Bakhtiarifard / Bakh. All rights reserved.
</metadata>
<defs>
<font id="YekanBakh-Light" horiz-adv-x="0" >
  <font-face 
    font-family="Yekan Bakh Light"
    font-weight="300"
    font-stretch="normal"
    units-per-em="1000"
    panose-1="1 0 5 4 0 0 0 2 0 4"
    ascent="800"
    descent="-200"
    bbox="-187 -485 1304 929"
    underline-thickness="25"
    underline-position="-154"
    unicode-range="U+000A-FFFC"
  />
<missing-glyph horiz-adv-x="533" 
d="M462 0h-396v610h396v-610zM115 558v-505h299v505h-299z" />
    <glyph glyph-name="allah" unicode="&#x627;&#xfedf;&#xfee0;&#xfeea;" horiz-adv-x="1219" arabic-form="isolated" 
d="M350 463h49v-300q0 -25 4 -45t13.5 -34.5t26.5 -22.5t43 -8h75q45 0 68.5 21.5t23.5 58.5v260h49v-251q0 -24 7.5 -41t20.5 -27.5t29 -15.5t34 -5h36q42 0 66.5 21.5t24.5 58.5v352h50v-352q0 -63 -39 -98t-98 -35h-41q-35 0 -66.5 14t-49.5 52q-22 -38 -53 -52t-63 -14
h-75q-45 0 -78 20t-47 75q-12 -17 -30 -27t-38.5 -16t-41.5 -8t-39 -2q-75 0 -114 36t-39 117q0 37 10.5 72.5t31.5 63.5t52.5 45t74.5 17h123v70zM226 343q-57 0 -88.5 -39t-31.5 -103q0 -62 29.5 -85.5t85.5 -23.5q58 0 93.5 23t35.5 57v171h-124zM659 929h34v-172h-34
v172zM693 684v-146h49q28 0 47 15t19 56v75h34v-61q0 -39 -10 -62.5t-25 -36t-31.5 -16.5t-29.5 -4h-40q-9 0 -15.5 3t-14.5 10q-8 -7 -14 -10t-15 -3h-41q-13 0 -29.5 4t-31 16.5t-24.5 36t-10 62.5v61h35v-75q0 -41 18.5 -56t46.5 -15h48v146h34zM1097 620h50v-620h-50
v620z" />
    <glyph glyph-name="la.aa" unicode="&#xfedf;&#xfe82;" horiz-adv-x="487" arabic-form="isolated" 
d="M72 488h50v-435h151q42 0 67 21.5t25 58.5v487h50v-487q0 -31 -10.5 -55.5t-29 -42t-44 -26.5t-54.5 -9h-205v488zM59 600q-18 0 -30 -3.5t-21 -23.5l-20 -45l-34 15l24 53q8 18 15.5 28t17 15.5t21 7t26.5 1.5h176l-2 -48h-173z" />
    <glyph glyph-name="la.aa.fina" unicode="&#xfee0;&#xfe82;" horiz-adv-x="519" arabic-form="final" 
d="M72 0v488h50v-435h149q45 0 69.5 23t24.5 61v483h50v-483q0 -24 8 -40t21 -26t29.5 -14t33.5 -4h12q12 0 16.5 -7t4.5 -19q0 -14 -4.5 -20.5t-16.5 -6.5h-14q-38 0 -68.5 14t-49.5 52q-22 -38 -52.5 -52t-63.5 -14h-199zM59 600q-18 0 -30 -3.5t-21 -23.5l-20 -45l-34 15
l24 53q8 18 15.5 28t17 15.5t21 7t26.5 1.5h176l-2 -48h-173z" />
    <glyph glyph-name="la.thmz" unicode="&#xfedf;&#xfe84;" horiz-adv-x="487" arabic-form="isolated" 
d="M72 453h50v-400h151q42 0 67 21.5t25 58.5v487h50v-487q0 -31 -10.5 -55.5t-29 -42t-44 -26.5t-54.5 -9h-205v453zM211 609l-185 -94l-16 31l73 36q-35 7 -50.5 33t-15.5 53q0 42 26 68t68 26h47l-5 -35h-35q-32 0 -49.5 -18t-17.5 -43q0 -28 19.5 -44.5t42.5 -16.5
q15 0 36.5 10t48.5 24z" />
    <glyph glyph-name="la.thmz.fina" unicode="&#xfee0;&#xfe84;" horiz-adv-x="519" arabic-form="final" 
d="M72 0v453h50v-400h149q45 0 69.5 23t24.5 61v483h50v-483q0 -24 8 -40t21 -26t29.5 -14t33.5 -4h12q12 0 16.5 -7t4.5 -19q0 -14 -4.5 -20.5t-16.5 -6.5h-14q-38 0 -68.5 14t-49.5 52q-22 -38 -52.5 -52t-63.5 -14h-199zM211 609l-185 -94l-16 31l73 36q-35 7 -50.5 33
t-15.5 53q0 42 26 68t68 26h47l-5 -35h-35q-32 0 -49.5 -18t-17.5 -43q0 -28 19.5 -44.5t42.5 -16.5q15 0 36.5 10t48.5 24z" />
    <glyph glyph-name="la.bhmz" unicode="&#xfedf;&#xfe88;" horiz-adv-x="487" arabic-form="isolated" 
d="M72 620h50v-567h151q42 0 67 21.5t25 58.5v487h50v-487q0 -31 -10.5 -55.5t-29 -42t-44 -26.5t-54.5 -9h-205v620zM244 -259l-185 -94l-16 31l73 36q-35 7 -50.5 33t-15.5 53q0 42 26 68t68 26h47l-5 -35h-35q-32 0 -49.5 -18t-17.5 -43q0 -28 19.5 -44.5t42.5 -16.5
q15 0 36.5 10t48.5 24z" />
    <glyph glyph-name="la.bhmz.fina" unicode="&#xfee0;&#xfe88;" horiz-adv-x="519" arabic-form="final" 
d="M72 0v620h50v-567h149q45 0 69.5 23t24.5 61v483h50v-483q0 -24 8 -40t21 -26t29.5 -14t33.5 -4h12q12 0 16.5 -7t4.5 -19q0 -14 -4.5 -20.5t-16.5 -6.5h-14q-38 0 -68.5 14t-49.5 52q-22 -38 -52.5 -52t-63.5 -14h-199zM244 -259l-185 -94l-16 31l73 36q-35 7 -50.5 33
t-15.5 53q0 42 26 68t68 26h47l-5 -35h-35q-32 0 -49.5 -18t-17.5 -43q0 -28 19.5 -44.5t42.5 -16.5q15 0 36.5 10t48.5 24z" />
    <glyph glyph-name="la" unicode="&#xfedf;&#xfe8e;" horiz-adv-x="487" arabic-form="isolated" 
d="M72 620h50v-567h151q42 0 67 21.5t25 58.5v487h50v-487q0 -31 -10.5 -55.5t-29 -42t-44 -26.5t-54.5 -9h-205v620z" />
    <glyph glyph-name="la.fina" unicode="&#xfee0;&#xfe8e;" horiz-adv-x="519" arabic-form="final" 
d="M72 0v620h50v-567h149q45 0 69.5 23t24.5 61v483h50v-483q0 -24 8 -40t21 -26t29.5 -14t33.5 -4h12q12 0 16.5 -7t4.5 -19q0 -14 -4.5 -20.5t-16.5 -6.5h-14q-38 0 -68.5 14t-49.5 52q-22 -38 -52.5 -52t-63.5 -14h-199z" />
    <glyph glyph-name="la.tvasla" unicode="&#xfedf;&#xfb51;" horiz-adv-x="487" 
d="M72 465h50v-412h151q42 0 67 21.5t25 58.5v487h50v-487q0 -31 -10.5 -55.5t-29 -42t-44 -26.5t-54.5 -9h-205v465zM22 583q42 82 77 115t72 33q16 0 31 -7t26.5 -19t18 -28.5t6.5 -35.5q0 -15 -5 -32t-17.5 -31t-33 -23.5t-50.5 -9.5h-134l-22 20v99l31 5v-86zM146 578
q32 0 53.5 15.5t21.5 47.5q0 22 -14.5 39t-39.5 17q-32 0 -59 -34t-56 -85h94z" />
    <glyph glyph-name="la.tvasla.fina" unicode="&#xfee0;&#xfb51;" horiz-adv-x="519" 
d="M72 0v465h50v-412h149q45 0 69.5 23t24.5 61v483h50v-483q0 -24 8 -40t21 -26t29.5 -14t33.5 -4h12q12 0 16.5 -7t4.5 -19q0 -14 -4.5 -20.5t-16.5 -6.5h-14q-38 0 -68.5 14t-49.5 52q-22 -38 -52.5 -52t-63.5 -14h-199zM22 583q42 82 77 115t72 33q16 0 31 -7t26.5 -19
t18 -28.5t6.5 -35.5q0 -15 -5 -32t-17.5 -31t-33 -23.5t-50.5 -9.5h-134l-22 20v99l31 5v-86zM146 578q32 0 53.5 15.5t21.5 47.5q0 22 -14.5 39t-39.5 17q-32 0 -59 -34t-56 -85h94z" />
    <glyph glyph-name="lellah" unicode="&#xfedf;&#x650;&#xfee0;&#x654;&#xfeea;" horiz-adv-x="1037" 
d="M350 463h49v-300q0 -25 4 -45t13.5 -34.5t26.5 -22.5t43 -8h75q45 0 68.5 21.5t23.5 58.5v260h49v-251q0 -24 7.5 -41t20.5 -27.5t29 -15.5t34 -5h36q42 0 66.5 21.5t24.5 58.5v352h50v-352q0 -63 -39 -98t-98 -35h-41q-35 0 -66.5 14t-49.5 52q-22 -38 -53 -52t-63 -14
h-75q-45 0 -78 20t-47 75q-12 -17 -30 -27t-38.5 -16t-41.5 -8t-39 -2q-75 0 -114 36t-39 117q0 37 10.5 72.5t31.5 63.5t52.5 45t74.5 17h123v70zM226 343q-57 0 -88.5 -39t-31.5 -103q0 -62 29.5 -85.5t85.5 -23.5q58 0 93.5 23t35.5 57v171h-124zM659 929h34v-172h-34
v172zM693 684v-146h49q28 0 47 15t19 56v75h34v-61q0 -39 -10 -62.5t-25 -36t-31.5 -16.5t-29.5 -4h-40q-9 0 -15.5 3t-14.5 10q-8 -7 -14 -10t-15 -3h-41q-13 0 -29.5 4t-31 16.5t-24.5 36t-10 62.5v61h35v-75q0 -41 18.5 -56t46.5 -15h48v146h34z" />
    <glyph glyph-name="hmz" unicode="&#x621;" horiz-adv-x="433" arabic-form="isolated" 
d="M63 40l121 61q-33 6 -57.5 19.5t-40 32.5t-23 42t-7.5 48q0 35 12.5 64t33.5 50t49 32.5t58 11.5q25 0 46.5 -6.5t41.5 -16.5l-17 -47q-12 5 -31.5 11t-38.5 6q-48 0 -77 -30.5t-29 -76.5q0 -42 30 -72t86 -30q25 0 57 13.5t86 42.5l23 -46l-300 -155z" />
    <glyph glyph-name="alef.aa" unicode="&#x622;" horiz-adv-x="194" arabic-form="isolated" 
d="M72 488h50v-488h-50v488zM51 600q-18 0 -30 -3.5t-21 -23.5l-20 -45l-34 15l24 53q8 18 15.5 28t17 15.5t21 7t26.5 1.5h176l-2 -48h-173z" />
    <glyph glyph-name="alef.thmz" unicode="&#x623;" horiz-adv-x="194" arabic-form="isolated" 
d="M72 453h50v-453h-50v453zM197 609l-185 -94l-16 31l73 36q-35 7 -50.5 33t-15.5 53q0 42 26 68t68 26h47l-5 -35h-35q-32 0 -49.5 -18t-17.5 -43q0 -28 19.5 -44.5t42.5 -16.5q15 0 36.5 10t48.5 24z" />
    <glyph glyph-name="vav.thmz" unicode="&#x624;" horiz-adv-x="450" arabic-form="isolated" 
d="M147 -190q46 0 82 15t60.5 41t38 60.5t15.5 73.5h-113q-51 0 -84 11t-52 31.5t-26.5 50t-7.5 65.5q0 37 10.5 71.5t31.5 60t52 41t72 15.5q33 0 63 -11t53 -34.5t36.5 -60.5t13.5 -90v-134q0 -51 -16.5 -98t-47 -82.5t-75 -56.5t-100.5 -21h-108l-6 52h108zM108 160
q0 -29 6 -49t21.5 -33t41.5 -19t66 -6h100v86q0 82 -32.5 119t-89.5 37q-54 0 -83.5 -37t-29.5 -98zM309 506l-185 -94l-16 31l73 36q-35 7 -50.5 33t-15.5 53q0 42 26 68t68 26h47l-5 -35h-35q-32 0 -49.5 -18t-17.5 -43q0 -28 19.5 -44.5t42.5 -16.5q15 0 36.5 10t48.5 24
z" />
    <glyph glyph-name="alef.bhmz" unicode="&#x625;" horiz-adv-x="194" arabic-form="isolated" 
d="M72 620h50v-620h-50v620zM203 -259l-185 -94l-16 31l73 36q-35 7 -50.5 33t-15.5 53q0 42 26 68t68 26h47l-5 -35h-35q-32 0 -49.5 -18t-17.5 -43q0 -28 19.5 -44.5t42.5 -16.5q15 0 36.5 10t48.5 24z" />
    <glyph glyph-name="ye.thmz" unicode="&#x626;" horiz-adv-x="676" arabic-form="isolated" 
d="M365 -190q42 0 80 12.5t66.5 34t45.5 51t17 63.5q0 15 -3.5 28t-12.5 22.5t-25.5 15.5t-42.5 6h-175v165q0 75 44 121.5t120 46.5h115l5 -52h-125q-20 0 -39.5 -7t-35 -21t-25 -35t-9.5 -49v-118h135q37 0 61 -9.5t37.5 -25t19 -36.5t5.5 -43q0 -46 -20 -86.5t-54 -70.5
t-79.5 -47.5t-96.5 -17.5h-84q-112 0 -174 69t-62 189v173h49v-172q0 -46 12 -84t36 -65.5t60.5 -42.5t86.5 -15h68zM264 412l-185 -94l-16 31l73 36q-35 7 -50.5 33t-15.5 53q0 42 26 68t68 26h47l-5 -35h-35q-32 0 -49.5 -18t-17.5 -43q0 -28 19.5 -44.5t42.5 -16.5
q15 0 36.5 10t48.5 24z" />
    <glyph glyph-name="alef" unicode="&#x627;" horiz-adv-x="194" arabic-form="isolated" 
d="M72 620h50v-620h-50v620z" />
    <glyph glyph-name="be" unicode="&#x628;" horiz-adv-x="768" arabic-form="isolated" 
d="M208 0q-41 0 -70.5 12.5t-48 33.5t-27 49t-8.5 59v131h49v-120q0 -51 26.5 -81.5t89.5 -30.5h352q42 0 67.5 23t25.5 61v147h50v-150q0 -32 -10.5 -56.5t-29.5 -42t-44 -26.5t-54 -9h-368zM414 -179h-74v61h74v-61z" />
    <glyph glyph-name="te.marbuta" unicode="&#x629;" horiz-adv-x="458" arabic-form="isolated" 
d="M53 154q0 31 8 58.5t25.5 56t45 60t66.5 70.5l-46 47l35 37q62 -62 104 -106.5t67.5 -80.5t36.5 -66.5t11 -63.5q0 -36 -13.5 -66t-38 -52.5t-57.5 -35t-72 -12.5t-71 11.5t-54.5 32t-34.5 49t-12 61.5zM356 164q0 22 -6.5 43t-21 44.5t-39 50.5t-60.5 62
q-41 -40 -65.5 -69.5t-38.5 -53t-18.5 -43t-4.5 -38.5q0 -46 32.5 -76.5t90.5 -30.5q28 0 52.5 9t41.5 24t27 35t10 43zM309 568h-69v60h69v-60zM189 568h-69v60h69v-60z" />
    <glyph glyph-name="te" unicode="&#x62a;" horiz-adv-x="768" arabic-form="isolated" 
d="M208 0q-41 0 -70.5 12.5t-48 33.5t-27 49t-8.5 59v131h49v-120q0 -51 26.5 -81.5t89.5 -30.5h352q42 0 67.5 23t25.5 61v147h50v-150q0 -32 -10.5 -56.5t-29.5 -42t-44 -26.5t-54 -9h-368zM478 374h-69v60h69v-60zM358 374h-69v60h69v-60z" />
    <glyph glyph-name="the" unicode="&#x62b;" horiz-adv-x="768" arabic-form="isolated" 
d="M208 0q-41 0 -70.5 12.5t-48 33.5t-27 49t-8.5 59v131h49v-120q0 -51 26.5 -81.5t89.5 -30.5h352q42 0 67.5 23t25.5 61v147h50v-150q0 -32 -10.5 -56.5t-29.5 -42t-44 -26.5t-54 -9h-368zM419 485h-70v60h70v-60zM478 374h-69v60h69v-60zM358 374h-69v60h69v-60z" />
    <glyph glyph-name="jim" unicode="&#x62c;" horiz-adv-x="539" arabic-form="isolated" 
d="M430 220q-8 24 -17 43t-23.5 31.5t-36.5 19.5t-55 7h-211l6 53h210q26 0 52.5 -4t51 -21.5t45 -53.5t34.5 -99l-198 -115q-51 -30 -87 -57.5t-59 -55t-34 -56t-11 -60.5q0 -91 49 -138t153 -47h186l-5 -52h-185q-69 0 -116 18.5t-76.5 50t-42.5 73t-13 88.5q0 39 11 74
t35.5 68t64 65.5t96.5 65.5zM377 -157h-74v61h74v-61z" />
    <glyph glyph-name="him" unicode="&#x62d;" horiz-adv-x="539" arabic-form="isolated" 
d="M430 220q-8 24 -17 43t-23.5 31.5t-36.5 19.5t-55 7h-211l6 53h210q26 0 52.5 -4t51 -21.5t45 -53.5t34.5 -99l-198 -115q-51 -30 -87 -57.5t-59 -55t-34 -56t-11 -60.5q0 -91 49 -138t153 -47h186l-5 -52h-185q-69 0 -116 18.5t-76.5 50t-42.5 73t-13 88.5q0 39 11 74
t35.5 68t64 65.5t96.5 65.5z" />
    <glyph glyph-name="khe" unicode="&#x62e;" horiz-adv-x="539" arabic-form="isolated" 
d="M430 220q-8 24 -17 43t-23.5 31.5t-36.5 19.5t-55 7h-211l6 53h210q26 0 52.5 -4t51 -21.5t45 -53.5t34.5 -99l-198 -115q-51 -30 -87 -57.5t-59 -55t-34 -56t-11 -60.5q0 -91 49 -138t153 -47h186l-5 -52h-185q-69 0 -116 18.5t-76.5 50t-42.5 73t-13 88.5q0 39 11 74
t35.5 68t64 65.5t96.5 65.5zM287 490h-74v61h74v-61z" />
    <glyph glyph-name="dal" unicode="&#x62f;" horiz-adv-x="529" arabic-form="isolated" 
d="M430 233q25 -29 36 -56.5t11 -53.5q0 -54 -38.5 -88.5t-107.5 -34.5h-284l-5 53h284q45 0 70.5 21t25.5 55q0 17 -8.5 36.5t-24.5 36.5l-192 217l39 37z" />
    <glyph glyph-name="zal" unicode="&#x630;" horiz-adv-x="529" arabic-form="isolated" 
d="M430 233q25 -29 36 -56.5t11 -53.5q0 -54 -38.5 -88.5t-107.5 -34.5h-284l-5 53h284q45 0 70.5 21t25.5 55q0 17 -8.5 36.5t-24.5 36.5l-192 217l39 37zM279 585h-74v61h74v-61z" />
    <glyph glyph-name="re" unicode="&#x631;" horiz-adv-x="218" arabic-form="isolated" 
d="M160 16q0 -60 -18.5 -107.5t-50.5 -81t-75.5 -51.5t-94.5 -18h-57l-5 52h51q52 0 90 17t62.5 45.5t36 66t11.5 77.5v268h50v-268v0z" />
    <glyph glyph-name="ze" unicode="&#x632;" horiz-adv-x="218" arabic-form="isolated" 
d="M160 16q0 -60 -18.5 -107.5t-50.5 -81t-75.5 -51.5t-94.5 -18h-57l-5 52h51q52 0 90 17t62.5 45.5t36 66t11.5 77.5v268h50v-268v0zM165 416h-74v61h74v-61z" />
    <glyph glyph-name="sin" unicode="&#x633;" horiz-adv-x="1126" arabic-form="isolated" 
d="M838 137q0 -24 7.5 -40t20 -26t28 -14t32.5 -4q42 0 67 23t25 61v147h50v-145q0 -66 -38.5 -102.5t-101.5 -36.5q-36 0 -67 14t-50 52q-22 -38 -55.5 -52t-68.5 -14t-59.5 11t-38.5 31v-26q0 -51 -17 -98t-48.5 -82.5t-76.5 -56.5t-101 -21h-57q-112 0 -174 69t-62 189
v173h49v-172q0 -46 12 -84t36 -65.5t60.5 -42.5t86.5 -15h44q49 0 86.5 16.5t62.5 44.5t38 65.5t13 78.5v269h49v-151q0 -35 25.5 -57.5t70.5 -22.5q49 0 76 23t27 61v147h49v-147z" />
    <glyph glyph-name="shin" unicode="&#x634;" horiz-adv-x="1126" arabic-form="isolated" 
d="M838 137q0 -24 7.5 -40t20 -26t28 -14t32.5 -4q42 0 67 23t25 61v147h50v-145q0 -66 -38.5 -102.5t-101.5 -36.5q-36 0 -67 14t-50 52q-22 -38 -55.5 -52t-68.5 -14t-59.5 11t-38.5 31v-26q0 -51 -17 -98t-48.5 -82.5t-76.5 -56.5t-101 -21h-57q-112 0 -174 69t-62 189
v173h49v-172q0 -46 12 -84t36 -65.5t60.5 -42.5t86.5 -15h44q49 0 86.5 16.5t62.5 44.5t38 65.5t13 78.5v269h49v-151q0 -35 25.5 -57.5t70.5 -22.5q49 0 76 23t27 61v147h49v-147zM850 527h-70v60h70v-60zM909 416h-69v60h69v-60zM789 416h-69v60h69v-60z" />
    <glyph glyph-name="sad" unicode="&#x635;" horiz-adv-x="1196" arabic-form="isolated" 
d="M1094 183q0 30 -9.5 56t-26.5 44.5t-39.5 29t-48.5 10.5q-60 0 -123.5 -64.5t-141.5 -205.5h263q23 0 45.5 7.5t40.5 23t29 40t11 59.5zM656 56q48 88 90 148.5t80.5 98.5t74.5 55t72 17q37 0 68.5 -15t54.5 -41.5t35.5 -61.5t12.5 -74q0 -33 -10.5 -66t-32.5 -59
t-55 -42t-79 -16h-273q-74 0 -105 44v-28q0 -51 -17 -98t-48.5 -82.5t-76.5 -56.5t-101 -21h-57q-112 0 -174 69t-62 189v173h49v-172q0 -46 12 -84t36 -65.5t60.5 -42.5t86.5 -15h44q49 0 86.5 16.5t62.5 44.5t38 65.5t13 78.5v269h49v-145q0 -31 17.5 -54t48.5 -29z" />
    <glyph glyph-name="zad" unicode="&#x636;" horiz-adv-x="1196" arabic-form="isolated" 
d="M1094 183q0 30 -9.5 56t-26.5 44.5t-39.5 29t-48.5 10.5q-60 0 -123.5 -64.5t-141.5 -205.5h263q23 0 45.5 7.5t40.5 23t29 40t11 59.5zM656 56q48 88 90 148.5t80.5 98.5t74.5 55t72 17q37 0 68.5 -15t54.5 -41.5t35.5 -61.5t12.5 -74q0 -33 -10.5 -66t-32.5 -59
t-55 -42t-79 -16h-273q-74 0 -105 44v-28q0 -51 -17 -98t-48.5 -82.5t-76.5 -56.5t-101 -21h-57q-112 0 -174 69t-62 189v173h49v-172q0 -46 12 -84t36 -65.5t60.5 -42.5t86.5 -15h44q49 0 86.5 16.5t62.5 44.5t38 65.5t13 78.5v269h49v-145q0 -31 17.5 -54t48.5 -29z
M950 480h-74v61h74v-61z" />
    <glyph glyph-name="ta" unicode="&#x637;" horiz-adv-x="685" arabic-form="isolated" 
d="M143 620h50v-317v-82.5t-1 -81.5q76 127 142 181.5t128 54.5q37 0 68.5 -15t54.5 -41.5t35.5 -61.5t12.5 -74q0 -33 -10.5 -66t-32.5 -59t-55 -42t-79 -16h-403l-6 53h96v567zM583 183q0 30 -9.5 56t-26.5 44.5t-39.5 29t-48.5 10.5q-60 0 -123 -64t-144 -206h265
q23 0 45.5 7.5t40.5 23t29 40t11 59.5z" />
    <glyph glyph-name="za" unicode="&#x638;" horiz-adv-x="685" arabic-form="isolated" 
d="M143 620h50v-317v-82.5t-1 -81.5q76 127 142 181.5t128 54.5q37 0 68.5 -15t54.5 -41.5t35.5 -61.5t12.5 -74q0 -33 -10.5 -66t-32.5 -59t-55 -42t-79 -16h-403l-6 53h96v567zM583 183q0 30 -9.5 56t-26.5 44.5t-39.5 29t-48.5 10.5q-60 0 -123 -64t-144 -206h265
q23 0 45.5 7.5t40.5 23t29 40t11 59.5zM498 501h-74v61h74v-61z" />
    <glyph glyph-name="ein" unicode="&#x639;" horiz-adv-x="522" arabic-form="isolated" 
d="M187 31q-23 18 -37.5 39.5t-22.5 43t-11.5 41t-3.5 34.5q0 36 12.5 67.5t34.5 54.5t53 36.5t69 13.5q34 0 66 -10.5t70 -35.5l-21 -41q-32 18 -59.5 26t-55.5 8q-27 0 -49 -10t-37.5 -26.5t-24 -38t-8.5 -44.5q0 -24 8.5 -48.5t23.5 -44t34 -31.5t40 -12h178l-6 -53h-177
q-39 0 -69.5 -14t-51.5 -37t-32.5 -52t-11.5 -59q0 -84 44.5 -127.5t149.5 -43.5h182l-5 -52h-182q-68 0 -114 17.5t-73.5 47.5t-39 70t-11.5 85q0 63 35 117t103 79z" />
    <glyph glyph-name="qein" unicode="&#x63a;" horiz-adv-x="522" arabic-form="isolated" 
d="M187 31q-23 18 -37.5 39.5t-22.5 43t-11.5 41t-3.5 34.5q0 36 12.5 67.5t34.5 54.5t53 36.5t69 13.5q34 0 66 -10.5t70 -35.5l-21 -41q-32 18 -59.5 26t-55.5 8q-27 0 -49 -10t-37.5 -26.5t-24 -38t-8.5 -44.5q0 -24 8.5 -48.5t23.5 -44t34 -31.5t40 -12h178l-6 -53h-177
q-39 0 -69.5 -14t-51.5 -37t-32.5 -52t-11.5 -59q0 -84 44.5 -127.5t149.5 -43.5h182l-5 -52h-182q-68 0 -114 17.5t-73.5 47.5t-39 70t-11.5 85q0 63 35 117t103 79zM312 493h-74v61h74v-61z" />
    <glyph glyph-name="fe" unicode="&#x641;" horiz-adv-x="858" arabic-form="isolated" 
d="M464 236q0 28 11 57t32 53t52.5 39t72.5 15q38 0 69 -10.5t53.5 -34t34.5 -60.5t12 -90v-42q0 -76 -46.5 -119.5t-146.5 -43.5h-396q-41 0 -70.5 12.5t-48 33.5t-27 49t-8.5 59v131h49v-120q0 -51 26.5 -81.5t89.5 -30.5h339q29 0 49 1t40 3q-65 21 -102.5 40.5t-56 40.5
t-23.5 44.5t-5 53.5zM511 233q0 -21 4 -39t23.5 -36t60.5 -37.5t114 -43.5q17 14 28 35.5t11 51.5v35q0 70 -29 109t-95 39q-27 0 -48.5 -10t-37 -26t-23.5 -36.5t-8 -41.5zM667 506h-74v61h74v-61z" />
    <glyph glyph-name="qaf" unicode="&#x642;" horiz-adv-x="711" arabic-form="isolated" 
d="M405 -190q46 0 82 15t61.5 41t39.5 60.5t16 73.5h-113q-51 0 -84.5 11t-52.5 31.5t-26.5 50t-7.5 65.5q0 37 11 71.5t32 60t52.5 41t72.5 15.5q33 0 63 -11t52.5 -34.5t36 -60.5t13.5 -90v-134q0 -51 -17 -98t-48.5 -82.5t-76 -56.5t-100.5 -21h-122q-112 0 -174 69
t-62 189v173h49v-172q0 -46 12 -84t36 -65.5t60.5 -42.5t86.5 -15h108zM369 160q0 -29 6 -49t21.5 -33t41.5 -19t67 -6h100v86q0 82 -33 119t-90 37q-53 0 -83 -37t-30 -98zM585 464h-69v60h69v-60zM465 464h-69v60h69v-60z" />
    <glyph glyph-name="kaf.arab" unicode="&#x643;" horiz-adv-x="772" arabic-form="isolated" 
d="M420 209v92q0 9 -5.5 15.5t-21.5 6.5h-126v112q0 48 28 75.5t79 27.5h45l6 -42h-49q-33 0 -50.5 -15t-17.5 -48v-68h104q28 0 38.5 -16t10.5 -36v-104h-41zM212 0q-41 0 -70.5 12.5t-48 33.5t-27 49t-8.5 59v131h49v-120q0 -51 26.5 -81.5t89.5 -30.5h335q42 0 67.5 23
t25.5 61v483h50v-481q0 -66 -38.5 -102.5t-102.5 -36.5h-348z" />
    <glyph glyph-name="lam" unicode="&#x644;" horiz-adv-x="662" arabic-form="isolated" 
d="M590 19q0 -53 -17 -100.5t-48.5 -83t-77 -56.5t-101.5 -21h-57q-112 0 -174 69t-62 189v173h49v-172q0 -46 12 -84t36 -65.5t60.5 -42.5t86.5 -15h44q49 0 86.5 16.5t62.5 44.5t38 65.5t13 78.5v605h49v-601z" />
    <glyph glyph-name="mim" unicode="&#x645;" horiz-adv-x="630" arabic-form="isolated" 
d="M406 0q-68 0 -109.5 36.5t-41.5 106.5v66q0 34 8.5 58.5t32.5 45.5h-49q-69 0 -104.5 -36.5t-35.5 -90.5v-428h-49v429q0 35 12.5 67t36.5 56.5t60 39t84 14.5h181q39 0 66 -11.5t43.5 -30t24 -42.5t7.5 -48v-88q0 -38 -12.5 -65t-34.5 -44.5t-52.5 -26t-67.5 -8.5z
M412 53q51 0 81.5 22.5t30.5 70.5v75q0 36 -21.5 63.5t-68.5 27.5h-41q-47 0 -68.5 -28t-21.5 -68v-66q0 -48 29 -72.5t80 -24.5z" />
    <glyph glyph-name="nun" unicode="&#x646;" horiz-adv-x="648" arabic-form="isolated" 
d="M590 19q0 -53 -17 -100.5t-48.5 -83t-77 -56.5t-101.5 -21h-57q-112 0 -174 69t-62 189v173h49v-172q0 -46 12 -84t36 -65.5t60.5 -42.5t86.5 -15h44q49 0 86.5 16.5t62.5 44.5t38 65.5t13 78.5v269h49v-265zM348 308h-74v61h74v-61z" />
    <glyph glyph-name="he" unicode="&#x647;" horiz-adv-x="458" arabic-form="isolated" 
d="M53 154q0 31 8 58.5t25.5 56t45 60t66.5 70.5l-46 47l35 37q62 -62 104 -106.5t67.5 -80.5t36.5 -66.5t11 -63.5q0 -36 -13.5 -66t-38 -52.5t-57.5 -35t-72 -12.5t-71 11.5t-54.5 32t-34.5 49t-12 61.5zM356 164q0 22 -6.5 43t-21 44.5t-39 50.5t-60.5 62
q-41 -40 -65.5 -69.5t-38.5 -53t-18.5 -43t-4.5 -38.5q0 -46 32.5 -76.5t90.5 -30.5q28 0 52.5 9t41.5 24t27 35t10 43z" />
    <glyph glyph-name="vav" unicode="&#x648;" horiz-adv-x="450" arabic-form="isolated" 
d="M147 -190q46 0 82 15t60.5 41t38 60.5t15.5 73.5h-113q-51 0 -84 11t-52 31.5t-26.5 50t-7.5 65.5q0 37 10.5 71.5t31.5 60t52 41t72 15.5q33 0 63 -11t53 -34.5t36.5 -60.5t13.5 -90v-134q0 -51 -16.5 -98t-47 -82.5t-75 -56.5t-100.5 -21h-108l-6 52h108zM108 160
q0 -29 6 -49t21.5 -33t41.5 -19t66 -6h100v86q0 82 -32.5 119t-89.5 37q-54 0 -83.5 -37t-29.5 -98z" />
    <glyph glyph-name="alef.maksura" unicode="&#x649;" horiz-adv-x="676" arabic-form="isolated" 
d="M365 -190q42 0 80 12.5t66.5 34t45.5 51t17 63.5q0 15 -3.5 28t-12.5 22.5t-25.5 15.5t-42.5 6h-175v165q0 75 44 121.5t120 46.5h115l5 -52h-125q-20 0 -39.5 -7t-35 -21t-25 -35t-9.5 -49v-118h135q37 0 61 -9.5t37.5 -25t19 -36.5t5.5 -43q0 -46 -20 -86.5t-54 -70.5
t-79.5 -47.5t-96.5 -17.5h-84q-112 0 -174 69t-62 189v173h49v-172q0 -46 12 -84t36 -65.5t60.5 -42.5t86.5 -15h68z" />
    <glyph glyph-name="ye.arab" unicode="&#x64a;" horiz-adv-x="676" arabic-form="isolated" 
d="M365 -190q42 0 80 12.5t66.5 34t45.5 51t17 63.5q0 15 -3.5 28t-12.5 22.5t-25.5 15.5t-42.5 6h-175v165q0 75 44 121.5t120 46.5h115l5 -52h-125q-20 0 -39.5 -7t-35 -21t-25 -35t-9.5 -49v-118h135q37 0 61 -9.5t37.5 -25t19 -36.5t5.5 -43q0 -46 -20 -86.5t-54 -70.5
t-79.5 -47.5t-96.5 -17.5h-84q-112 0 -174 69t-62 189v173h49v-172q0 -46 12 -84t36 -65.5t60.5 -42.5t86.5 -15h68zM411 -415h-65v60h65v-60zM288 -415h-66v60h66v-60z" />
    <glyph glyph-name="alef.vasla" unicode="&#x671;" horiz-adv-x="194" arabic-form="isolated" 
d="M72 465h50v-465h-50v465zM18 583q42 82 77 115t72 33q16 0 31 -7t26.5 -19t18 -28.5t6.5 -35.5q0 -15 -5 -32t-17.5 -31t-33 -23.5t-50.5 -9.5h-134l-22 20v99l31 5v-86zM142 578q32 0 53.5 15.5t21.5 47.5q0 22 -14.5 39t-39.5 17q-32 0 -59 -34t-56 -85h94z" />
    <glyph glyph-name="pe" unicode="&#x67e;" horiz-adv-x="768" arabic-form="isolated" 
d="M208 0q-41 0 -70.5 12.5t-48 33.5t-27 49t-8.5 59v131h49v-120q0 -51 26.5 -81.5t89.5 -30.5h352q42 0 67.5 23t25.5 61v147h50v-150q0 -32 -10.5 -56.5t-29.5 -42t-44 -26.5t-54 -9h-368zM420 -290h-70v61h70v-61zM479 -178h-69v60h69v-60zM359 -178h-69v60h69v-60z" />
    <glyph glyph-name="che" unicode="&#x686;" horiz-adv-x="539" arabic-form="isolated" 
d="M430 220q-8 24 -17 43t-23.5 31.5t-36.5 19.5t-55 7h-211l6 53h210q26 0 52.5 -4t51 -21.5t45 -53.5t34.5 -99l-198 -115q-51 -30 -87 -57.5t-59 -55t-34 -56t-11 -60.5q0 -91 49 -138t153 -47h186l-5 -52h-185q-69 0 -116 18.5t-76.5 50t-42.5 73t-13 88.5q0 39 11 74
t35.5 68t64 65.5t96.5 65.5zM371.818 -228.194h-67.6367v58.9404h67.6367v-58.9404zM428.827 -119.975h-66.6709v57.9746h66.6709v-57.9746zM312.878 -119.975h-66.6719v57.9746h66.6719v-57.9746z" />
    <glyph glyph-name="re.bv.fina" unicode="&#x695;" horiz-adv-x="261" 
d="M158 16q0 -60 -18 -107.5t-50 -81t-75 -51.5t-94 -18h-57l-5 52h51q52 0 90 17t62.5 45.5t36 66t11.5 77.5v268h50v-151q0 -35 24 -57.5t66 -22.5h11q22 0 22 -26q0 -27 -22 -27h-11q-26 0 -50.5 10t-41.5 33v-27zM131 -283l29 -17l-95 -185h-28l-95 185l29 17l80 -161z
" />
    <glyph glyph-name="je" unicode="&#x698;" horiz-adv-x="218" arabic-form="isolated" 
d="M160 16q0 -60 -18.5 -107.5t-50.5 -81t-75.5 -51.5t-94.5 -18h-57l-5 52h51q52 0 90 17t62.5 45.5t36 66t11.5 77.5v268h50v-268v0zM153 527h-70v60h70v-60zM212 416h-69v60h69v-60zM92 416h-69v60h69v-60z" />
    <glyph glyph-name="veh" unicode="&#x6a4;" horiz-adv-x="855" arabic-form="isolated" 
d="M460 236q0 28 11 57t32 53t52.5 39t72.5 15q38 0 69.5 -10.5t53.5 -34t34 -60.5t12 -90v-42q0 -76 -46.5 -119.5t-146.5 -43.5h-396q-41 0 -70.5 12.5t-48 33.5t-27 49t-8.5 59v131h49v-120q0 -51 26.5 -81.5t89.5 -30.5h339q29 0 49 1t40 3q-65 21 -102.5 40.5t-56 40.5
t-23.5 44.5t-5 53.5zM507 233q0 -21 4 -39t23.5 -36t60.5 -37.5t114 -43.5q17 14 28 35.5t11 51.5v35q0 70 -29 109t-95 39q-27 0 -48.5 -10t-37 -26t-23.5 -36.5t-8 -41.5zM661 617h-70v60h70v-60zM720 506h-69v60h69v-60zM600 506h-69v60h69v-60z" />
    <glyph glyph-name="kaf" unicode="&#x6a9;" horiz-adv-x="797" arabic-form="isolated" 
d="M590 53q52 0 72 20.5t20 52.5q0 18 -6.5 41.5t-37.5 53.5l-226 227v53l331 133l14 -50l-295 -118l194 -193q25 -25 40.5 -45t24 -37.5t11.5 -34t3 -35.5q0 -31 -10.5 -54t-29.5 -38t-44.5 -22t-56.5 -7h-382q-41 0 -70.5 12.5t-48 33.5t-27 49t-8.5 59v131h49v-120
q0 -51 26.5 -81.5t89.5 -30.5h367z" />
    <glyph glyph-name="gaf" unicode="&#x6af;" horiz-adv-x="797" arabic-form="isolated" 
d="M409 632l300 124l11 -40l-310 -127zM590 53q52 0 72 20.5t20 52.5q0 18 -6.5 41.5t-37.5 53.5l-226 227v53l331 133l14 -50l-295 -118l194 -193q25 -25 40.5 -45t24 -37.5t11.5 -34t3 -35.5q0 -31 -10.5 -54t-29.5 -38t-44.5 -22t-56.5 -7h-382q-41 0 -70.5 12.5
t-48 33.5t-27 49t-8.5 59v131h49v-120q0 -51 26.5 -81.5t89.5 -30.5h367z" />
    <glyph glyph-name="lam.tv.init" unicode="&#x6b5;" horiz-adv-x="241" 
d="M27 53q42 0 67.5 23t25.5 61v316h49v-314q0 -66 -38 -102.5t-102 -36.5h-29q-13 0 -17.5 6.5t-4.5 18.5q0 14 4.5 21t17.5 7h27zM222 710l29 -17l-95 -185h-28l-95 185l29 17l80 -161z" />
    <glyph glyph-name="lam.tvmedi" unicode="&#x6b5;" horiz-adv-x="273" 
d="M27 53q45 0 69 23t24 61v316h49v-316q0 -24 8 -40t21 -26t29 -14t32 -4h14q13 0 17.5 -7t4.5 -19q0 -14 -4.5 -20.5t-17.5 -6.5h-15q-36 0 -67 14t-49 52q-21 -38 -52 -52t-63 -14h-27q-13 0 -17.5 6.5t-4.5 18.5q0 14 4.5 21t17.5 7h27zM222 710l29 -17l-95 -185h-28
l-95 185l29 17l80 -161z" />
    <glyph glyph-name="lam.tv.fina" unicode="&#x6b5;" horiz-adv-x="692" 
d="M681 0q-26 0 -51 10t-41 33v-26q0 -52 -17 -99t-48.5 -82.5t-76.5 -56.5t-101 -21h-57q-112 0 -174 69t-62 189v173h49v-172q0 -46 12 -84t36 -65.5t60.5 -42.5t86.5 -15h44q49 0 86.5 16.5t62.5 44.5t38 65.5t13 78.5v605h49v-487q0 -35 25 -57.5t66 -22.5h11
q23 0 23 -26q0 -27 -23 -27h-11zM420 618l29 -17l-95 -185h-28l-95 185l29 17l80 -161z" />
    <glyph glyph-name="he.thmz" unicode="&#x6c0;" horiz-adv-x="458" arabic-form="isolated" 
d="M171 578q-42 0 -61 21t-19 48q0 9 2 19.5t8 23.5t16 31t26 42h117l-5 -41h-94q-17 -26 -24 -41t-7 -27q0 -13 9.5 -24t37.5 -11h198l-3 -41h-201zM53 154q0 31 8 58.5t25.5 56t45 60t66.5 70.5l-46 47l35 37q62 -62 104 -106.5t67.5 -80.5t36.5 -66.5t11 -63.5
q0 -36 -13.5 -66t-38 -52.5t-57.5 -35t-72 -12.5t-71 11.5t-54.5 32t-34.5 49t-12 61.5zM356 164q0 22 -6.5 43t-21 44.5t-39 50.5t-60.5 62q-41 -40 -65.5 -69.5t-38.5 -53t-18.5 -43t-4.5 -38.5q0 -46 32.5 -76.5t90.5 -30.5q28 0 52.5 9t41.5 24t27 35t10 43z" />
    <glyph glyph-name="he.thmz.goal.fina" unicode="&#x6c2;" horiz-adv-x="497" 
d="M220 92q57 0 92 23t35 57v171h-121q-57 0 -88.5 -39t-31.5 -103q0 -62 29.5 -85.5t84.5 -23.5zM396 161q0 -47 18.5 -77.5t68.5 -30.5h14q13 0 17.5 -7t4.5 -19q0 -14 -4.5 -20.5t-17.5 -6.5h-14q-45 0 -78 20t-47 75q-12 -17 -30.5 -27t-39 -16t-41 -8t-38.5 -2
q-73 0 -112 36.5t-39 116.5q0 37 10.5 72.5t31.5 63.5t52.5 45t74.5 17h120v70h49v-302zM384 639l-185 -94l-16 31l73 36q-35 7 -50.5 33t-15.5 53q0 42 26 68t68 26h47l-5 -35h-35q-32 0 -49.5 -18t-17.5 -43q0 -28 19.5 -44.5t42.5 -16.5q15 0 36.5 10t48.5 24z" />
    <glyph glyph-name="vav.tv" unicode="&#x6c6;" horiz-adv-x="450" arabic-form="isolated" 
d="M147 -190q46 0 82 15t60.5 41t38 60.5t15.5 73.5h-113q-51 0 -84 11t-52 31.5t-26.5 50t-7.5 65.5q0 37 10.5 71.5t31.5 60t52 41t72 15.5q33 0 63 -11t53 -34.5t36.5 -60.5t13.5 -90v-134q0 -51 -16.5 -98t-47 -82.5t-75 -56.5t-100.5 -21h-108l-6 52h108zM108 160
q0 -29 6 -49t21.5 -33t41.5 -19t66 -6h100v86q0 82 -32.5 119t-89.5 37q-54 0 -83.5 -37t-29.5 -98zM309 620l29 -17l-95 -185h-28l-95 185l29 17l80 -161z" />
    <glyph glyph-name="vav.t2p.fina" unicode="&#x6ca;" horiz-adv-x="494" 
d="M147 -190q46 0 82 15t60.5 41t38 60.5t15.5 73.5h-113q-51 0 -84 11t-52 31.5t-26.5 50t-7.5 65.5q0 37 10.5 71.5t31.5 60t52 41t72 15.5q33 0 63 -11t53 -34.5t36.5 -60.5t13.5 -90v-97h102q12 0 16.5 -7t4.5 -19q0 -14 -4.5 -20.5t-16.5 -6.5h-104q-2 -49 -19.5 -93
t-48 -77t-73 -52.5t-96.5 -19.5h-108l-6 52h108zM108 160q0 -29 6 -49t21.5 -33t41.5 -19t66 -6h100v86q0 82 -32.5 119t-89.5 37q-54 0 -83.5 -37t-29.5 -98zM324 464h-69v60h69v-60zM204 464h-69v60h69v-60z" />
    <glyph glyph-name="ye" unicode="&#x6cc;" horiz-adv-x="676" arabic-form="isolated" 
d="M365 -190q42 0 80 12.5t66.5 34t45.5 51t17 63.5q0 15 -3.5 28t-12.5 22.5t-25.5 15.5t-42.5 6h-175v165q0 75 44 121.5t120 46.5h115l5 -52h-125q-20 0 -39.5 -7t-35 -21t-25 -35t-9.5 -49v-118h135q37 0 61 -9.5t37.5 -25t19 -36.5t5.5 -43q0 -46 -20 -86.5t-54 -70.5
t-79.5 -47.5t-96.5 -17.5h-84q-112 0 -174 69t-62 189v173h49v-172q0 -46 12 -84t36 -65.5t60.5 -42.5t86.5 -15h68z" />
    <glyph glyph-name="ye.tv.init" unicode="&#x6ce;" horiz-adv-x="290" 
d="M89 53q42 0 68 23t26 61v147h49v-145q0 -66 -38.5 -102.5t-101.5 -36.5h-92q-13 0 -17.5 6.5t-4.5 18.5q0 14 4.5 21t17.5 7h89zM200 -178h-65v60h65v-60zM77 -178h-66v60h66v-60zM197 575l29 -17l-95 -185h-28l-95 185l29 17l80 -161z" />
    <glyph glyph-name="ye.tv.medi" unicode="&#x6ce;" horiz-adv-x="344" 
d="M78 53q45 0 69.5 23t24.5 61v147h50v-147q0 -24 8 -40t20.5 -26t28.5 -14t32 -4h33q23 0 23 -26q0 -27 -23 -27h-34q-35 0 -66 14t-50 52q-22 -38 -52 -52t-64 -14h-78q-13 0 -17.5 6.5t-4.5 18.5q0 14 4.5 21t17.5 7h78zM260 -178h-65v60h65v-60zM137 -178h-66v60h66
v-60zM274 575l29 -17l-95 -185h-28l-95 185l29 17l80 -161z" />
    <glyph glyph-name="ye.tv.fina" unicode="&#x6ce;" horiz-adv-x="704" 
d="M379 -190q53 0 90 11.5t60.5 30t34 41.5t10.5 46q0 26 -12.5 43.5t-44.5 17.5h-177l5 53h359q22 0 22 -26q0 -27 -22 -27h-104q13 -12 17.5 -28t4.5 -34q0 -27 -11.5 -58.5t-39 -58.5t-73 -45t-112.5 -18h-97q-112 0 -174 69t-62 189v173h49v-172q0 -46 12 -84t36 -65.5
t60.5 -42.5t86.5 -15h82zM377 394l29 -17l-95 -185h-28l-95 185l29 17l80 -161z" />
    <glyph glyph-name="ae.fina" unicode="&#x6d5;" horiz-adv-x="497" 
d="M220 92q57 0 92 23t35 57v171h-121q-57 0 -88.5 -39t-31.5 -103q0 -62 29.5 -85.5t84.5 -23.5zM396 161q0 -47 18.5 -77.5t68.5 -30.5h14q13 0 17.5 -7t4.5 -19q0 -14 -4.5 -20.5t-17.5 -6.5h-14q-45 0 -78 20t-47 75q-12 -17 -30.5 -27t-39 -16t-41 -8t-38.5 -2
q-73 0 -112 36.5t-39 116.5q0 37 10.5 72.5t31.5 63.5t52.5 45t74.5 17h120v70h49v-302z" />
    <glyph glyph-name="alef.vasla.fina" unicode="&#x671;" horiz-adv-x="223" arabic-form="final" 
d="M202 0q-26 0 -49.5 7.5t-41.5 25.5t-28.5 47.5t-10.5 73.5v311h50v-304q0 -46 20 -77t67 -31h14q22 0 22 -26q0 -27 -22 -27h-21zM18 583q42 82 77 115t72 33q16 0 31 -7t26.5 -19t18 -28.5t6.5 -35.5q0 -15 -5 -32t-17.5 -31t-33 -23.5t-50.5 -9.5h-134l-22 20v99l31 5
v-86zM142 578q32 0 53.5 15.5t21.5 47.5q0 22 -14.5 39t-39.5 17q-32 0 -59 -34t-56 -85h94z" />
    <glyph glyph-name="pe.fina" unicode="&#x67e;" horiz-adv-x="819" arabic-form="final" 
d="M571 53q45 0 69 23t24 61v147h50v-147q0 -24 8 -40t21 -26t29 -14t32 -4h15q13 0 17.5 -7t4.5 -19q0 -14 -4.5 -20.5t-17.5 -6.5h-16q-36 0 -67 14t-50 52q-22 -38 -52 -52t-63 -14h-363q-41 0 -70.5 12.5t-48 33.5t-27 49t-8.5 59v131h49v-120q0 -51 26.5 -81.5
t89.5 -30.5h352zM420 -290h-70v61h70v-61zM479 -178h-69v60h69v-60zM359 -178h-69v60h69v-60z" />
    <glyph glyph-name="pe.init" unicode="&#x67e;" horiz-adv-x="290" arabic-form="initial" 
d="M89 53q42 0 68 23t26 61v147h49v-145q0 -66 -38.5 -102.5t-101.5 -36.5h-92q-13 0 -17.5 6.5t-4.5 18.5q0 14 4.5 21t17.5 7h89zM146 -290h-70v61h70v-61zM205 -178h-69v60h69v-60zM85 -178h-69v60h69v-60z" />
    <glyph glyph-name="pe.medi" unicode="&#x67e;" horiz-adv-x="344" arabic-form="medial" 
d="M78 53q45 0 69.5 23t24.5 61v147h50v-147q0 -24 8 -40t20.5 -26t28.5 -14t32 -4h33q23 0 23 -26q0 -27 -23 -27h-34q-35 0 -66 14t-50 52q-22 -38 -52 -52t-64 -14h-78q-13 0 -17.5 6.5t-4.5 18.5q0 14 4.5 21t17.5 7h78zM193 -290h-70v61h70v-61zM252 -178h-69v60h69
v-60zM132 -178h-69v60h69v-60z" />
    <glyph glyph-name="veh.fina" unicode="&#x6a4;" horiz-adv-x="890" arabic-form="final" 
d="M625 337q-28 0 -50.5 -10t-38.5 -26.5t-24.5 -39t-8.5 -47.5q0 -29 12.5 -53t32 -42.5t42.5 -32t44 -22.5q16 9 36 22.5t37 31.5t29 41t12 51q0 57 -33 92t-90 35zM631 390q42 0 73 -14.5t51.5 -37.5t31 -53t10.5 -60q0 -51 -26 -94.5t-81 -77.5h200q22 0 22 -26
q0 -27 -22 -27h-115q-46 0 -82 2t-56 11q-15 -5 -35.5 -7.5t-42 -4t-42 -1.5h-34.5h-275q-41 0 -70.5 12.5t-48 33.5t-27 49t-8.5 59v131h49v-120q0 -51 26.5 -81.5t89.5 -30.5h354q-54 26 -86 69t-32 97q0 33 12 64t34.5 54.5t55.5 38t74 14.5zM661 605h-70v60h70v-60z
M720 494h-69v60h69v-60zM600 494h-69v60h69v-60z" />
    <glyph glyph-name="veh.init" unicode="&#x6a4;" horiz-adv-x="484" arabic-form="initial" 
d="M201 53q23 0 41 1t38 3q-65 21 -102.5 40.5t-56 40.5t-23.5 44.5t-5 53.5q0 28 11 57t32.5 53t53 39t72.5 15q38 0 69 -10.5t53 -34t34 -60.5t12 -90v-42q0 -76 -46.5 -119.5t-146.5 -43.5h-237q-13 0 -17.5 6.5t-4.5 18.5q0 14 4.5 21t17.5 7h201zM257 347
q-27 0 -48.5 -10t-36.5 -26t-23.5 -36.5t-8.5 -41.5t4 -39t23.5 -36t60.5 -37.5t114 -43.5q17 14 28 35.5t11 51.5v35q0 70 -29 109t-95 39zM297 616h-70v60h70v-60zM356 505h-69v60h69v-60zM236 505h-69v60h69v-60z" />
    <glyph glyph-name="veh.medi" unicode="&#x6a4;" horiz-adv-x="528" arabic-form="medial" 
d="M212 53q-54 26 -86.5 69t-32.5 97q0 33 12 64t35 54.5t56 38t74 14.5t72 -14.5t51.5 -37.5t31 -53t10.5 -60q0 -51 -25.5 -94.5t-81.5 -77.5h200q22 0 22 -26q0 -27 -22 -27h-115q-45 0 -81 2t-57 11q-14 -5 -34.5 -7.5t-42 -4t-42 -1.5h-34.5h-122q-13 0 -17.5 6.5
t-4.5 18.5q0 14 4.5 21t17.5 7h212zM264 337q-28 0 -50.5 -10t-38.5 -26.5t-24.5 -39t-8.5 -47.5q0 -29 12.5 -53t32 -42.5t42.5 -32t44 -22.5q16 9 35.5 22.5t37 31.5t29.5 41t12 51q0 57 -33 92t-90 35zM308 605h-70v60h70v-60zM367 494h-69v60h69v-60zM247 494h-69v60h69
v-60z" />
    <glyph glyph-name="che.fina" unicode="&#x686;" horiz-adv-x="566" arabic-form="final" 
d="M430 220q-8 24 -17 43t-23.5 31.5t-36.5 19.5t-55 7h-211l6 53h210q26 0 52.5 -4t51 -21.5t45 -53.5t34.5 -99l-82 -48q20 -54 43.5 -74.5t65.5 -20.5h53q13 0 17.5 -7t4.5 -19q0 -14 -4.5 -20.5t-17.5 -6.5h-59q-33 0 -55 9.5t-37 26.5t-25.5 40t-20.5 51l-81 -46
q-51 -30 -87 -57.5t-59 -55t-34 -56t-11 -60.5q0 -91 49 -138t153 -47h186l-5 -52h-185q-69 0 -116 18.5t-76.5 50t-42.5 73t-13 88.5q0 39 11 74t35.5 68t64 65.5t96.5 65.5zM343.638 -237.389h-65.2754v56.8818h65.2754v-56.8818zM398.654 -132.949h-64.3418v55.9492
h64.3418v-55.9492zM286.755 -132.949h-64.3418v55.9492h64.3418v-55.9492z" />
    <glyph glyph-name="che.init" unicode="&#x686;" horiz-adv-x="565" arabic-form="initial" 
d="M290 60q-25 -15 -48.5 -26.5t-50.5 -19t-60.5 -11t-76.5 -3.5h-54q-13 0 -17.5 6.5t-4.5 18.5q0 14 4.5 21t17.5 7h55q39 0 69 3t55 9t47.5 16t45.5 24l186 108q-8 24 -18 44t-25.5 34t-38 22t-55.5 8h-228l6 53h227q26 0 53.5 -5t52 -24t46 -55t35.5 -98zM317 -290h-70
v61h70v-61zM376 -178h-69v60h69v-60zM256 -178h-69v60h69v-60z" />
    <glyph glyph-name="che.medi" unicode="&#x686;" horiz-adv-x="606" arabic-form="medial" 
d="M430 142q19 -49 41.5 -69t63.5 -20h71q13 0 17.5 -7t4.5 -19q0 -14 -4.5 -20.5t-17.5 -6.5h-76q-32 0 -54 9t-37.5 25.5t-26 38.5t-19.5 48l-103 -61q-25 -15 -48.5 -26.5t-50.5 -19t-60.5 -11t-76.5 -3.5h-54q-13 0 -17.5 6.5t-4.5 18.5q0 14 4.5 21t17.5 7h55
q39 0 69 3t55 9t47.5 16t45.5 24l186 108q-8 24 -18 44t-25.5 34t-38 22t-55.5 8h-228l6 53h227q26 0 53.5 -5t52 -24t46 -55t35.5 -98zM317 -290h-70v61h70v-61zM376 -178h-69v60h69v-60zM256 -178h-69v60h69v-60z" />
    <glyph glyph-name="je.fina" unicode="&#x698;" horiz-adv-x="261" arabic-form="final" 
d="M158 16q0 -60 -18 -107.5t-50 -81t-75 -51.5t-94 -18h-57l-5 52h51q52 0 90 17t62.5 45.5t36 66t11.5 77.5v268h50v-151q0 -35 24 -57.5t66 -22.5h11q22 0 22 -26q0 -27 -22 -27h-11q-26 0 -50.5 10t-41.5 33v-27zM153 527h-70v60h70v-60zM212 416h-69v60h69v-60zM92 416
h-69v60h69v-60z" />
    <glyph glyph-name="kaf.fina" unicode="&#x6a9;" horiz-adv-x="944" arabic-form="final" 
d="M412 448v53l331 133l14 -50l-295 -118l194 -193q53 -53 90.5 -90t64.5 -61.5t45 -38.5t32.5 -20.5t27 -8t28.5 -1.5q13 0 17.5 -7t4.5 -19q0 -14 -4.5 -20.5t-17.5 -6.5q-27 0 -49 6t-45 21.5t-52 41.5t-71 67q5 -35 -3.5 -61t-27 -42.5t-45 -24.5t-57.5 -8h-382
q-41 0 -70.5 12.5t-48 33.5t-27 49t-8.5 59v131h49v-120q0 -51 26.5 -81.5t89.5 -30.5h367q51 0 71.5 20.5t20.5 52.5q0 18 -7 41.5t-37 53.5z" />
    <glyph glyph-name="kaf.init" unicode="&#x6a9;" horiz-adv-x="477" arabic-form="initial" 
d="M270 53q52 0 72 20.5t20 52.5q0 18 -6.5 41.5t-36.5 53.5l-227 227v53l332 133l14 -50l-295 -118l193 -193q25 -25 40 -44.5t23.5 -37.5t11.5 -34.5t3 -35.5q0 -63 -38.5 -92t-101.5 -29h-274q-13 0 -17.5 6.5t-4.5 18.5q0 14 4.5 21t17.5 7h270z" />
    <glyph glyph-name="kaf.medi" unicode="&#x6a9;" horiz-adv-x="623" arabic-form="medial" 
d="M270 53q52 0 72 20.5t20 52.5q0 18 -6.5 41.5t-36.5 53.5l-227 227v53l332 133l14 -50l-295 -118l193 -193q79 -80 125.5 -124.5t74.5 -65.5t46 -25.5t41 -4.5q13 0 17.5 -7t4.5 -19q0 -14 -4.5 -20.5t-17.5 -6.5q-27 0 -48.5 6t-44.5 21.5t-51.5 41.5t-70.5 67
q5 -35 -3.5 -61t-27 -42.5t-45.5 -24.5t-58 -8h-274q-13 0 -17.5 6.5t-4.5 18.5q0 14 4.5 21t17.5 7h270z" />
    <glyph glyph-name="gaf.fina" unicode="&#x6af;" horiz-adv-x="944" arabic-form="final" 
d="M409 632l300 124l11 -40l-310 -127zM412 448v53l331 133l14 -50l-295 -118l194 -193q53 -53 90.5 -90t64.5 -61.5t45 -38.5t32.5 -20.5t27 -8t28.5 -1.5q13 0 17.5 -7t4.5 -19q0 -14 -4.5 -20.5t-17.5 -6.5q-27 0 -49 6t-45 21.5t-52 41.5t-71 67q5 -35 -3.5 -61
t-27 -42.5t-45 -24.5t-57.5 -8h-382q-41 0 -70.5 12.5t-48 33.5t-27 49t-8.5 59v131h49v-120q0 -51 26.5 -81.5t89.5 -30.5h367q51 0 71.5 20.5t20.5 52.5q0 18 -7 41.5t-37 53.5z" />
    <glyph glyph-name="gaf.init" unicode="&#x6af;" horiz-adv-x="477" arabic-form="initial" 
d="M91 632l299 124l12 -40l-310 -127zM270 53q52 0 72 20.5t20 52.5q0 18 -6.5 41.5t-36.5 53.5l-227 227v53l332 133l14 -50l-295 -118l193 -193q25 -25 40 -44.5t23.5 -37.5t11.5 -34.5t3 -35.5q0 -63 -38.5 -92t-101.5 -29h-274q-13 0 -17.5 6.5t-4.5 18.5q0 14 4.5 21
t17.5 7h270z" />
    <glyph glyph-name="gaf.medi" unicode="&#x6af;" horiz-adv-x="623" arabic-form="medial" 
d="M91 632l299 124l12 -40l-310 -127zM270 53q52 0 72 20.5t20 52.5q0 18 -6.5 41.5t-36.5 53.5l-227 227v53l332 133l14 -50l-295 -118l193 -193q79 -80 125.5 -124.5t74.5 -65.5t46 -25.5t41 -4.5q13 0 17.5 -7t4.5 -19q0 -14 -4.5 -20.5t-17.5 -6.5q-27 0 -48.5 6
t-44.5 21.5t-51.5 41.5t-70.5 67q5 -35 -3.5 -61t-27 -42.5t-45.5 -24.5t-58 -8h-274q-13 0 -17.5 6.5t-4.5 18.5q0 14 4.5 21t17.5 7h270z" />
    <glyph glyph-name="he.thmz.fina" unicode="&#x6c0;" horiz-adv-x="497" arabic-form="final" 
d="M186 515q-43 0 -61.5 21t-18.5 47q0 10 2 20t7.5 23.5t15.5 31t26 41.5h118l-5 -40h-94q-17 -26 -24 -41t-7 -26q0 -14 9 -25t38 -11h197l-3 -41h-200zM220 92q57 0 92 23t35 57v171h-121q-57 0 -88.5 -39t-31.5 -103q0 -62 29.5 -85.5t84.5 -23.5zM396 161
q0 -47 18.5 -77.5t68.5 -30.5h14q13 0 17.5 -7t4.5 -19q0 -14 -4.5 -20.5t-17.5 -6.5h-14q-45 0 -78 20t-47 75q-12 -17 -30.5 -27t-39 -16t-41 -8t-38.5 -2q-73 0 -112 36.5t-39 116.5q0 37 10.5 72.5t31.5 63.5t52.5 45t74.5 17h169v-232z" />
    <glyph glyph-name="he.dochashmi.fina" unicode="&#x6be;" horiz-adv-x="629" arabic-form="final" 
d="M456 209q0 50 -25 81.5t-79 31.5t-84 -40t-30 -112v-247q0 -31 6 -52t17 -33.5t25.5 -19t31.5 -8.5l100 132q30 39 54.5 61t48 33.5t49.5 14t59 2.5q22 0 22 -26q0 -27 -22 -27q-32 0 -55.5 -2.5t-45 -12.5t-43 -31t-49.5 -58l-102 -138q-30 0 -55.5 8.5t-45 28
t-30.5 50.5t-11 76v248q0 35 7.5 71.5t26.5 66t49.5 48.5t77.5 19q37 0 65 -12t47 -33t28.5 -49t9.5 -61q0 -60 -38 -110t-101.5 -93t-145.5 -81t-170 -74l-17 48q87 35 164.5 71t135 73t91.5 75.5t34 80.5z" />
    <glyph glyph-name="he.dochashmi.init" unicode="&#x6be;" horiz-adv-x="719" arabic-form="initial" 
d="M262 329q-28 0 -50.5 -10t-38.5 -26.5t-24.5 -39.5t-8.5 -48q0 -29 12.5 -51.5t32 -40t42.5 -29.5t44 -21q16 9 36 21t37.5 29t29.5 39t12 50q0 56 -33.5 91.5t-90.5 35.5zM0 0q-13 0 -17.5 6.5t-4.5 18.5q0 14 4.5 21t17.5 7h212q-53 26 -86 64.5t-33 92.5q0 33 12 63.5
t34.5 54.5t55.5 38t74 14t72 -14t51.5 -37.5t30.5 -53t10 -59.5q0 -51 -25.5 -90t-81.5 -73h192q45 0 70 21t25 55q0 17 -7.5 35.5t-24.5 38.5l-188 213l37 35l190 -216q26 -31 36 -58.5t10 -53.5q0 -54 -38 -88.5t-107 -34.5h-110q-46 0 -81.5 2t-56.5 11
q-14 -5 -34.5 -7.5t-42 -4t-42 -1.5h-34.5h-120z" />
    <glyph glyph-name="he.dochashmi.medi" unicode="&#x6be;" horiz-adv-x="539" arabic-form="medial" 
d="M101 53v116q0 35 7.5 71.5t26.5 66t50 48.5t78 19q37 0 65.5 -12t47 -33t28 -49t9.5 -61q0 -45 -20.5 -84t-56 -68.5t-84 -47t-104.5 -18.5v-78q0 -31 6 -52t17 -33.5t26 -19t32 -8.5l99 132q30 39 54.5 61t48.5 33.5t49.5 14t58.5 2.5q13 0 17.5 -7t4.5 -19
q0 -14 -4.5 -20.5t-17.5 -6.5q-32 0 -55.5 -2.5t-44.5 -12.5t-43 -31t-50 -58l-102 -138q-30 0 -56 8.5t-45.5 28t-30.5 50.5t-11 76v79h-101q-13 0 -17.5 6.5t-4.5 18.5q0 14 4.5 21t17.5 7h101zM148 51q54 1 95 15t68 36.5t41 50t14 56.5q0 50 -25.5 81.5t-78.5 31.5
q-54 0 -84 -40t-30 -112v-119z" />
    <glyph glyph-name="vav.tv.fina" unicode="&#x6c6;" horiz-adv-x="494" arabic-form="final" 
d="M147 -190q46 0 82 15t60.5 41t38 60.5t15.5 73.5h-113q-51 0 -84 11t-52 31.5t-26.5 50t-7.5 65.5q0 37 10.5 71.5t31.5 60t52 41t72 15.5q33 0 63 -11t53 -34.5t36.5 -60.5t13.5 -90v-97h102q12 0 16.5 -7t4.5 -19q0 -14 -4.5 -20.5t-16.5 -6.5h-104q-2 -49 -19.5 -93
t-48 -77t-73 -52.5t-96.5 -19.5h-108l-6 52h108zM108 160q0 -29 6 -49t21.5 -33t41.5 -19t66 -6h100v86q0 82 -32.5 119t-89.5 37q-54 0 -83.5 -37t-29.5 -98zM309 620l29 -17l-95 -185h-28l-95 185l29 17l80 -161z" />
    <glyph glyph-name="alef.maksura.init" unicode="&#x649;" horiz-adv-x="290" arabic-form="initial" 
d="M89 53q42 0 68 23t26 61v147h49v-145q0 -66 -38.5 -102.5t-101.5 -36.5h-92q-13 0 -17.5 6.5t-4.5 18.5q0 14 4.5 21t17.5 7h89z" />
    <glyph glyph-name="alef.maksura.medi" unicode="&#x649;" horiz-adv-x="344" arabic-form="medial" 
d="M78 53q45 0 69.5 23t24.5 61v147h50v-147q0 -24 8 -40t20.5 -26t28.5 -14t32 -4h33q23 0 23 -26q0 -27 -23 -27h-34q-35 0 -66 14t-50 52q-22 -38 -52 -52t-64 -14h-78q-13 0 -17.5 6.5t-4.5 18.5q0 14 4.5 21t17.5 7h78z" />
    <glyph glyph-name="ye.fina" unicode="&#x6cc;" horiz-adv-x="704" arabic-form="final" 
d="M379 -190q53 0 90 11.5t60.5 30t34 41.5t10.5 46q0 26 -12.5 43.5t-44.5 17.5h-177l5 53h359q22 0 22 -26q0 -27 -22 -27h-104q13 -12 17.5 -28t4.5 -34q0 -27 -11.5 -58.5t-39 -58.5t-73 -45t-112.5 -18h-97q-112 0 -174 69t-62 189v173h49v-172q0 -46 12 -84t36 -65.5
t60.5 -42.5t86.5 -15h82z" />
    <glyph glyph-name="ye.init" unicode="&#x6cc;" horiz-adv-x="290" arabic-form="initial" 
d="M89 53q42 0 68 23t26 61v147h49v-145q0 -66 -38.5 -102.5t-101.5 -36.5h-92q-13 0 -17.5 6.5t-4.5 18.5q0 14 4.5 21t17.5 7h89zM200 -178h-65v60h65v-60zM77 -178h-66v60h66v-60z" />
    <glyph glyph-name="ye.medi" unicode="&#x6cc;" horiz-adv-x="344" arabic-form="medial" 
d="M78 53q45 0 69.5 23t24.5 61v147h50v-147q0 -24 8 -40t20.5 -26t28.5 -14t32 -4h33q23 0 23 -26q0 -27 -23 -27h-34q-35 0 -66 14t-50 52q-22 -38 -52 -52t-64 -14h-78q-13 0 -17.5 6.5t-4.5 18.5q0 14 4.5 21t17.5 7h78zM260 -178h-65v60h65v-60zM137 -178h-66v60h66
v-60z" />
    <glyph glyph-name=".shdd.on" unicode="&#xfc5e;" arabic-form="isolated" 
d="M12 309q-31 17 -44 41.5t-13 46.5q0 19 7 37t20 31.5t30.5 21.5t38.5 8q42 0 68.5 -27.5t26.5 -67.5q0 -32 -20 -59.5t-72 -49.5l-155 -65l-14 30v89q0 22 -19 22h-43v33h52q18 0 29 -10t11 -35v-85zM-13 398q0 -23 16.5 -43.5t42.5 -31.5q26 10 46.5 28t20.5 45
q0 25 -16 45.5t-46 20.5q-33 0 -48.5 -21t-15.5 -43zM0 13q-14 -13 -30 -13h-28q-13 0 -29.5 4t-31 16.5t-24.5 36t-10 62.5v63h35v-76q0 -41 18.5 -56.5t46.5 -15.5h36v148h34v-148h36q28 0 46.5 15.5t18.5 56.5v76h34v-63q0 -39 -10 -62.5t-24.5 -36t-31 -16.5t-29.5 -4
h-27q-10 0 -16 3t-14 10z" />
    <glyph glyph-name=".shdd.en" unicode="&#xfc5f;" arabic-form="isolated" 
d="M0 334q-14 -13 -30 -13h-28q-13 0 -29.5 4t-31 16.5t-24.5 36t-10 62.5v63h35v-76q0 -41 18.5 -56.5t46.5 -15.5h36v148h34v-148h36q28 0 46.5 15.5t18.5 56.5v76h34v-63q0 -39 -10 -62.5t-24.5 -36t-31 -16.5t-29.5 -4h-27q-10 0 -16 3t-14 10zM107 128l13 -32l-227 -96
l-13 32zM107 249l13 -32l-227 -96l-13 32z" />
    <glyph glyph-name=".shdd.a" unicode="&#xfc60;" arabic-form="isolated" 
d="M107 355l13 -32l-227 -96l-13 32zM0 13q-14 -13 -30 -13h-28q-13 0 -29.5 4t-31 16.5t-24.5 36t-10 62.5v63h35v-76q0 -41 18.5 -56.5t46.5 -15.5h36v148h34v-148h36q28 0 46.5 15.5t18.5 56.5v76h34v-63q0 -39 -10 -62.5t-24.5 -36t-31 -16.5t-29.5 -4h-27q-10 0 -16 3
t-14 10z" />
    <glyph glyph-name=".shdd.o" unicode="&#xfc61;" arabic-form="isolated" 
d="M-131 261l127 51q-31 17 -44 41.5t-13 46.5q0 19 7 37t20 31.5t30.5 21.5t38.5 8q42 0 68 -27.5t26 -67.5q0 -32 -19.5 -59.5t-71.5 -49.5l-155 -65zM-29 401q0 -23 16.5 -43.5t42.5 -31.5q26 10 46.5 28t20.5 45q0 25 -16 45.5t-46 20.5q-33 0 -48.5 -21t-15.5 -43z
M0 13q-14 -13 -30 -13h-28q-13 0 -29.5 4t-31 16.5t-24.5 36t-10 62.5v63h35v-76q0 -41 18.5 -56.5t46.5 -15.5h36v148h34v-148h36q28 0 46.5 15.5t18.5 56.5v76h34v-63q0 -39 -10 -62.5t-24.5 -36t-31 -16.5t-29.5 -4h-27q-10 0 -16 3t-14 10z" />
    <glyph glyph-name=".shdd.e" unicode="&#xfc62;" arabic-form="isolated" 
d="M0 195q-14 -13 -30 -13h-28q-13 0 -29.5 4t-31 16.5t-24.5 36t-10 62.5v63h35v-76q0 -41 18.5 -56.5t46.5 -15.5h36v148h34v-148h36q28 0 46.5 15.5t18.5 56.5v76h34v-63q0 -39 -10 -62.5t-24.5 -36t-31 -16.5t-29.5 -4h-27q-10 0 -16 3t-14 10zM107 128l13 -32l-227 -96
l-13 32z" />
    <glyph glyph-name=".shdd.aa" unicode="&#xfc63;" arabic-form="isolated" 
d="M1 13q-14 -13 -30 -13h-28q-13 0 -29.5 4t-31 16.5t-24.5 36t-10 62.5v63h35v-76q0 -41 18.5 -56.5t46.5 -15.5h36v148h34v-148h36q28 0 46.5 15.5t18.5 56.5v76h34v-63q0 -39 -10 -62.5t-24.5 -36t-31 -16.5t-29.5 -4h-27q-10 0 -16 3t-14 10zM-17 422h34v-171h-34v171z
" />
    <glyph glyph-name="rial" unicode="&#xfdfc;" horiz-adv-x="1354" arabic-form="isolated" 
d="M1026 -190h22q52 0 89.5 17t61.5 45.5t35.5 66t11.5 77.5v268h50v-268q0 -60 -18.5 -107.5t-51 -81t-76 -51.5t-93.5 -18h-25zM959 53q42 0 68 23t26 61v147h49v-145q0 -66 -38.5 -102.5t-101.5 -36.5h-92q-13 0 -17.5 6.5t-4.5 18.5q0 14 4.5 21t17.5 7h89zM921 -240
h-65v60h65v-60zM798 -240h-66v60h66v-60zM848 0q-26 0 -49.5 7.5t-41.5 25.5t-28.5 47.5t-10.5 73.5v466h50v-459q0 -46 20 -77t67 -31h14q22 0 22 -26q0 -27 -22 -27h-21zM590 19q0 -53 -17 -100.5t-48.5 -83t-77 -56.5t-101.5 -21h-57q-112 0 -174 69t-62 189v173h49v-172
q0 -46 12 -84t36 -65.5t60.5 -42.5t86.5 -15h44q49 0 86.5 16.5t62.5 44.5t38 65.5t13 78.5v605h49v-601z" />
    <glyph glyph-name="alef.aa.fina" unicode="&#x622;" horiz-adv-x="223" arabic-form="final" 
d="M202 0q-26 0 -49.5 7.5t-41.5 25.5t-28.5 47.5t-10.5 73.5v334h50v-327q0 -46 20 -77t67 -31h14q22 0 22 -26q0 -27 -22 -27h-21zM51 600q-18 0 -30 -3.5t-21 -23.5l-20 -45l-34 15l24 53q8 18 15.5 28t17 15.5t21 7t26.5 1.5h176l-2 -48h-173z" />
    <glyph glyph-name="alef.thmz.fina" unicode="&#x623;" horiz-adv-x="223" arabic-form="final" 
d="M202 0q-26 0 -49.5 7.5t-41.5 25.5t-28.5 47.5t-10.5 73.5v299h50v-292q0 -46 20 -77t67 -31h14q22 0 22 -26q0 -27 -22 -27h-21zM197 609l-185 -94l-16 31l73 36q-35 7 -50.5 33t-15.5 53q0 42 26 68t68 26h47l-5 -35h-35q-32 0 -49.5 -18t-17.5 -43q0 -28 19.5 -44.5
t42.5 -16.5q15 0 36.5 10t48.5 24z" />
    <glyph glyph-name="vav.thmz.fina" unicode="&#x624;" horiz-adv-x="494" arabic-form="final" 
d="M147 -190q46 0 82 15t60.5 41t38 60.5t15.5 73.5h-113q-51 0 -84 11t-52 31.5t-26.5 50t-7.5 65.5q0 37 10.5 71.5t31.5 60t52 41t72 15.5q33 0 63 -11t53 -34.5t36.5 -60.5t13.5 -90v-97h102q12 0 16.5 -7t4.5 -19q0 -14 -4.5 -20.5t-16.5 -6.5h-104q-2 -49 -19.5 -93
t-48 -77t-73 -52.5t-96.5 -19.5h-108l-6 52h108zM108 160q0 -29 6 -49t21.5 -33t41.5 -19t66 -6h100v86q0 82 -32.5 119t-89.5 37q-54 0 -83.5 -37t-29.5 -98zM309 506l-185 -94l-16 31l73 36q-35 7 -50.5 33t-15.5 53q0 42 26 68t68 26h47l-5 -35h-35q-32 0 -49.5 -18
t-17.5 -43q0 -28 19.5 -44.5t42.5 -16.5q15 0 36.5 10t48.5 24z" />
    <glyph glyph-name="alef.bhmz.fina" unicode="&#x625;" horiz-adv-x="223" arabic-form="final" 
d="M202 0q-26 0 -49.5 7.5t-41.5 25.5t-28.5 47.5t-10.5 73.5v466h50v-459q0 -46 20 -77t67 -31h14q22 0 22 -26q0 -27 -22 -27h-21zM244 -259l-185 -94l-16 31l73 36q-35 7 -50.5 33t-15.5 53q0 42 26 68t68 26h47l-5 -35h-35q-32 0 -49.5 -18t-17.5 -43q0 -28 19.5 -44.5
t42.5 -16.5q15 0 36.5 10t48.5 24z" />
    <glyph glyph-name="ye.thmz.fina" unicode="&#x626;" horiz-adv-x="704" arabic-form="final" 
d="M379 -190q53 0 90 11.5t60.5 30t34 41.5t10.5 46q0 26 -12.5 43.5t-44.5 17.5h-177l5 53h359q22 0 22 -26q0 -27 -22 -27h-104q13 -12 17.5 -28t4.5 -34q0 -27 -11.5 -58.5t-39 -58.5t-73 -45t-112.5 -18h-97q-112 0 -174 69t-62 189v173h49v-172q0 -46 12 -84t36 -65.5
t60.5 -42.5t86.5 -15h82zM433 263l-185 -94l-16 31l73 36q-35 7 -50.5 33t-15.5 53q0 42 26 68t68 26h47l-5 -35h-35q-32 0 -49.5 -18t-17.5 -43q0 -28 19.5 -44.5t42.5 -16.5q15 0 36.5 10t48.5 24z" />
    <glyph glyph-name="ye.thmz.init" unicode="&#x626;" horiz-adv-x="290" arabic-form="initial" 
d="M89 53q42 0 68 23t26 61v147h49v-145q0 -66 -38.5 -102.5t-101.5 -36.5h-92q-13 0 -17.5 6.5t-4.5 18.5q0 14 4.5 21t17.5 7h89zM272 455l-185 -94l-16 31l73 36q-35 7 -50.5 33t-15.5 53q0 42 26 68t68 26h47l-5 -35h-35q-32 0 -49.5 -18t-17.5 -43q0 -28 19.5 -44.5
t42.5 -16.5q15 0 36.5 10t48.5 24z" />
    <glyph glyph-name="ye.thmz.medi" unicode="&#x626;" horiz-adv-x="344" arabic-form="medial" 
d="M78 53q45 0 69.5 23t24.5 61v147h50v-147q0 -24 8 -40t20.5 -26t28.5 -14t32 -4h33q23 0 23 -26q0 -27 -23 -27h-34q-35 0 -66 14t-50 52q-22 -38 -52 -52t-64 -14h-78q-13 0 -17.5 6.5t-4.5 18.5q0 14 4.5 21t17.5 7h78zM277 455l-185 -94l-16 31l73 36q-35 7 -50.5 33
t-15.5 53q0 42 26 68t68 26h47l-5 -35h-35q-32 0 -49.5 -18t-17.5 -43q0 -28 19.5 -44.5t42.5 -16.5q15 0 36.5 10t48.5 24z" />
    <glyph glyph-name="alef.fina" unicode="&#x627;" horiz-adv-x="223" arabic-form="final" 
d="M202 0q-26 0 -49.5 7.5t-41.5 25.5t-28.5 47.5t-10.5 73.5v466h50v-459q0 -46 20 -77t67 -31h14q22 0 22 -26q0 -27 -22 -27h-21z" />
    <glyph glyph-name="be.fina" unicode="&#x628;" horiz-adv-x="819" arabic-form="final" 
d="M571 53q45 0 69 23t24 61v147h50v-147q0 -24 8 -40t21 -26t29 -14t32 -4h15q13 0 17.5 -7t4.5 -19q0 -14 -4.5 -20.5t-17.5 -6.5h-16q-36 0 -67 14t-50 52q-22 -38 -52 -52t-63 -14h-363q-41 0 -70.5 12.5t-48 33.5t-27 49t-8.5 59v131h49v-120q0 -51 26.5 -81.5
t89.5 -30.5h352zM414 -179h-74v61h74v-61z" />
    <glyph glyph-name="be.init" unicode="&#x628;" horiz-adv-x="290" arabic-form="initial" 
d="M89 53q42 0 68 23t26 61v147h49v-145q0 -66 -38.5 -102.5t-101.5 -36.5h-92q-13 0 -17.5 6.5t-4.5 18.5q0 14 4.5 21t17.5 7h89zM125 -179h-74v61h74v-61z" />
    <glyph glyph-name="be.medi" unicode="&#x628;" horiz-adv-x="344" arabic-form="medial" 
d="M78 53q45 0 69.5 23t24.5 61v147h50v-147q0 -24 8 -40t20.5 -26t28.5 -14t32 -4h33q23 0 23 -26q0 -27 -23 -27h-34q-35 0 -66 14t-50 52q-22 -38 -52 -52t-64 -14h-78q-13 0 -17.5 6.5t-4.5 18.5q0 14 4.5 21t17.5 7h78zM209 -179h-74v61h74v-61z" />
    <glyph glyph-name="te.marbuta.fina" unicode="&#x629;" horiz-adv-x="497" arabic-form="final" 
d="M220 92q57 0 92 23t35 57v171h-121q-57 0 -88.5 -39t-31.5 -103q0 -62 29.5 -85.5t84.5 -23.5zM396 161q0 -47 18.5 -77.5t68.5 -30.5h14q13 0 17.5 -7t4.5 -19q0 -14 -4.5 -20.5t-17.5 -6.5h-14q-45 0 -78 20t-47 75q-12 -17 -30.5 -27t-39 -16t-41 -8t-38.5 -2
q-73 0 -112 36.5t-39 116.5q0 37 10.5 72.5t31.5 63.5t52.5 45t74.5 17h120v70h49v-302zM377 551h-69v60h69v-60zM257 551h-69v60h69v-60z" />
    <glyph glyph-name="te.fina" unicode="&#x62a;" horiz-adv-x="819" arabic-form="final" 
d="M571 53q45 0 69 23t24 61v147h50v-147q0 -24 8 -40t21 -26t29 -14t32 -4h15q13 0 17.5 -7t4.5 -19q0 -14 -4.5 -20.5t-17.5 -6.5h-16q-36 0 -67 14t-50 52q-22 -38 -52 -52t-63 -14h-363q-41 0 -70.5 12.5t-48 33.5t-27 49t-8.5 59v131h49v-120q0 -51 26.5 -81.5
t89.5 -30.5h352zM478 374h-69v60h69v-60zM358 374h-69v60h69v-60z" />
    <glyph glyph-name="te.init" unicode="&#x62a;" horiz-adv-x="290" arabic-form="initial" 
d="M89 53q42 0 68 23t26 61v147h49v-145q0 -66 -38.5 -102.5t-101.5 -36.5h-92q-13 0 -17.5 6.5t-4.5 18.5q0 14 4.5 21t17.5 7h89zM244 416h-69v60h69v-60zM124 416h-69v60h69v-60z" />
    <glyph glyph-name="te.medi" unicode="&#x62a;" horiz-adv-x="344" arabic-form="medial" 
d="M78 53q45 0 69.5 23t24.5 61v147h50v-147q0 -24 8 -40t20.5 -26t28.5 -14t32 -4h33q23 0 23 -26q0 -27 -23 -27h-34q-35 0 -66 14t-50 52q-22 -38 -52 -52t-64 -14h-78q-13 0 -17.5 6.5t-4.5 18.5q0 14 4.5 21t17.5 7h78zM282 416h-69v60h69v-60zM162 416h-69v60h69v-60z
" />
    <glyph glyph-name="the.fina" unicode="&#x62b;" horiz-adv-x="819" arabic-form="final" 
d="M571 53q45 0 69 23t24 61v147h50v-147q0 -24 8 -40t21 -26t29 -14t32 -4h15q13 0 17.5 -7t4.5 -19q0 -14 -4.5 -20.5t-17.5 -6.5h-16q-36 0 -67 14t-50 52q-22 -38 -52 -52t-63 -14h-363q-41 0 -70.5 12.5t-48 33.5t-27 49t-8.5 59v131h49v-120q0 -51 26.5 -81.5
t89.5 -30.5h352zM419 485h-70v60h70v-60zM478 374h-69v60h69v-60zM358 374h-69v60h69v-60z" />
    <glyph glyph-name="the.init" unicode="&#x62b;" horiz-adv-x="290" arabic-form="initial" 
d="M89 53q42 0 68 23t26 61v147h49v-145q0 -66 -38.5 -102.5t-101.5 -36.5h-92q-13 0 -17.5 6.5t-4.5 18.5q0 14 4.5 21t17.5 7h89zM185 527h-70v60h70v-60zM244 416h-69v60h69v-60zM124 416h-69v60h69v-60z" />
    <glyph glyph-name="the.medi" unicode="&#x62b;" horiz-adv-x="344" arabic-form="medial" 
d="M78 53q45 0 69.5 23t24.5 61v147h50v-147q0 -24 8 -40t20.5 -26t28.5 -14t32 -4h33q23 0 23 -26q0 -27 -23 -27h-34q-35 0 -66 14t-50 52q-22 -38 -52 -52t-64 -14h-78q-13 0 -17.5 6.5t-4.5 18.5q0 14 4.5 21t17.5 7h78zM223 527h-70v60h70v-60zM282 416h-69v60h69v-60z
M162 416h-69v60h69v-60z" />
    <glyph glyph-name="jim.fina" unicode="&#x62c;" horiz-adv-x="566" arabic-form="final" 
d="M430 220q-8 24 -17 43t-23.5 31.5t-36.5 19.5t-55 7h-211l6 53h210q26 0 52.5 -4t51 -21.5t45 -53.5t34.5 -99l-82 -48q20 -54 43.5 -74.5t65.5 -20.5h53q13 0 17.5 -7t4.5 -19q0 -14 -4.5 -20.5t-17.5 -6.5h-59q-33 0 -55 9.5t-37 26.5t-25.5 40t-20.5 51l-81 -46
q-51 -30 -87 -57.5t-59 -55t-34 -56t-11 -60.5q0 -91 49 -138t153 -47h186l-5 -52h-185q-69 0 -116 18.5t-76.5 50t-42.5 73t-13 88.5q0 39 11 74t35.5 68t64 65.5t96.5 65.5zM345 -172h-74v61h74v-61z" />
    <glyph glyph-name="jim.init" unicode="&#x62c;" horiz-adv-x="565" arabic-form="initial" 
d="M290 60q-25 -15 -48.5 -26.5t-50.5 -19t-60.5 -11t-76.5 -3.5h-54q-13 0 -17.5 6.5t-4.5 18.5q0 14 4.5 21t17.5 7h55q39 0 69 3t55 9t47.5 16t45.5 24l186 108q-8 24 -18 44t-25.5 34t-38 22t-55.5 8h-228l6 53h227q26 0 53.5 -5t52 -24t46 -55t35.5 -98zM280 -179h-74
v61h74v-61z" />
    <glyph glyph-name="jim.medi" unicode="&#x62c;" horiz-adv-x="606" arabic-form="medial" 
d="M430 142q19 -49 41.5 -69t63.5 -20h71q13 0 17.5 -7t4.5 -19q0 -14 -4.5 -20.5t-17.5 -6.5h-76q-32 0 -54 9t-37.5 25.5t-26 38.5t-19.5 48l-103 -61q-25 -15 -48.5 -26.5t-50.5 -19t-60.5 -11t-76.5 -3.5h-54q-13 0 -17.5 6.5t-4.5 18.5q0 14 4.5 21t17.5 7h55
q39 0 69 3t55 9t47.5 16t45.5 24l186 108q-8 24 -18 44t-25.5 34t-38 22t-55.5 8h-228l6 53h227q26 0 53.5 -5t52 -24t46 -55t35.5 -98zM280 -179h-74v61h74v-61z" />
    <glyph glyph-name="him.fina" unicode="&#x62d;" horiz-adv-x="566" arabic-form="final" 
d="M430 220q-8 24 -17 43t-23.5 31.5t-36.5 19.5t-55 7h-211l6 53h210q26 0 52.5 -4t51 -21.5t45 -53.5t34.5 -99l-82 -48q20 -54 43.5 -74.5t65.5 -20.5h53q13 0 17.5 -7t4.5 -19q0 -14 -4.5 -20.5t-17.5 -6.5h-59q-33 0 -55 9.5t-37 26.5t-25.5 40t-20.5 51l-81 -46
q-51 -30 -87 -57.5t-59 -55t-34 -56t-11 -60.5q0 -91 49 -138t153 -47h186l-5 -52h-185q-69 0 -116 18.5t-76.5 50t-42.5 73t-13 88.5q0 39 11 74t35.5 68t64 65.5t96.5 65.5z" />
    <glyph glyph-name="him.init" unicode="&#x62d;" horiz-adv-x="565" arabic-form="initial" 
d="M290 60q-25 -15 -48.5 -26.5t-50.5 -19t-60.5 -11t-76.5 -3.5h-54q-13 0 -17.5 6.5t-4.5 18.5q0 14 4.5 21t17.5 7h55q39 0 69 3t55 9t47.5 16t45.5 24l186 108q-8 24 -18 44t-25.5 34t-38 22t-55.5 8h-228l6 53h227q26 0 53.5 -5t52 -24t46 -55t35.5 -98z" />
    <glyph glyph-name="him.medi" unicode="&#x62d;" horiz-adv-x="606" arabic-form="medial" 
d="M430 142q19 -49 41.5 -69t63.5 -20h71q13 0 17.5 -7t4.5 -19q0 -14 -4.5 -20.5t-17.5 -6.5h-76q-32 0 -54 9t-37.5 25.5t-26 38.5t-19.5 48l-103 -61q-25 -15 -48.5 -26.5t-50.5 -19t-60.5 -11t-76.5 -3.5h-54q-13 0 -17.5 6.5t-4.5 18.5q0 14 4.5 21t17.5 7h55
q39 0 69 3t55 9t47.5 16t45.5 24l186 108q-8 24 -18 44t-25.5 34t-38 22t-55.5 8h-228l6 53h227q26 0 53.5 -5t52 -24t46 -55t35.5 -98z" />
    <glyph glyph-name="khe.fina" unicode="&#x62e;" horiz-adv-x="566" arabic-form="final" 
d="M430 220q-8 24 -17 43t-23.5 31.5t-36.5 19.5t-55 7h-211l6 53h210q26 0 52.5 -4t51 -21.5t45 -53.5t34.5 -99l-82 -48q20 -54 43.5 -74.5t65.5 -20.5h53q13 0 17.5 -7t4.5 -19q0 -14 -4.5 -20.5t-17.5 -6.5h-59q-33 0 -55 9.5t-37 26.5t-25.5 40t-20.5 51l-81 -46
q-51 -30 -87 -57.5t-59 -55t-34 -56t-11 -60.5q0 -91 49 -138t153 -47h186l-5 -52h-185q-69 0 -116 18.5t-76.5 50t-42.5 73t-13 88.5q0 39 11 74t35.5 68t64 65.5t96.5 65.5zM287 490h-74v61h74v-61z" />
    <glyph glyph-name="khe.init" unicode="&#x62e;" horiz-adv-x="565" arabic-form="initial" 
d="M290 60q-25 -15 -48.5 -26.5t-50.5 -19t-60.5 -11t-76.5 -3.5h-54q-13 0 -17.5 6.5t-4.5 18.5q0 14 4.5 21t17.5 7h55q39 0 69 3t55 9t47.5 16t45.5 24l186 108q-8 24 -18 44t-25.5 34t-38 22t-55.5 8h-228l6 53h227q26 0 53.5 -5t52 -24t46 -55t35.5 -98zM289 490h-74
v61h74v-61z" />
    <glyph glyph-name="khe.medi" unicode="&#x62e;" horiz-adv-x="606" arabic-form="medial" 
d="M430 142q19 -49 41.5 -69t63.5 -20h71q13 0 17.5 -7t4.5 -19q0 -14 -4.5 -20.5t-17.5 -6.5h-76q-32 0 -54 9t-37.5 25.5t-26 38.5t-19.5 48l-103 -61q-25 -15 -48.5 -26.5t-50.5 -19t-60.5 -11t-76.5 -3.5h-54q-13 0 -17.5 6.5t-4.5 18.5q0 14 4.5 21t17.5 7h55
q39 0 69 3t55 9t47.5 16t45.5 24l186 108q-8 24 -18 44t-25.5 34t-38 22t-55.5 8h-228l6 53h227q26 0 53.5 -5t52 -24t46 -55t35.5 -98zM289 490h-74v61h74v-61z" />
    <glyph glyph-name="dal.fina" unicode="&#x62f;" horiz-adv-x="515" arabic-form="final" 
d="M258 53q24 0 40.5 6t27 15.5t15.5 20.5t5 20q0 11 -4.5 29t-16 53.5t-31.5 92.5t-52 145l48 20l108 -313q17 -49 39.5 -69t62.5 -20h15q22 0 22 -26q0 -27 -22 -27h-15q-17 0 -32.5 2.5t-30 10t-28.5 21t-26 35.5q-21 -43 -52.5 -56t-68.5 -13h-215l-5 53h216z" />
    <glyph glyph-name="zal.fina" unicode="&#x630;" horiz-adv-x="515" arabic-form="final" 
d="M258 53q24 0 40.5 6t27 15.5t15.5 20.5t5 20q0 11 -4.5 29t-16 53.5t-31.5 92.5t-52 145l48 20l108 -313q17 -49 39.5 -69t62.5 -20h15q22 0 22 -26q0 -27 -22 -27h-15q-17 0 -32.5 2.5t-30 10t-28.5 21t-26 35.5q-21 -43 -52.5 -56t-68.5 -13h-215l-5 53h216zM307 589
h-74v61h74v-61z" />
    <glyph glyph-name="re.fina" unicode="&#x631;" horiz-adv-x="261" arabic-form="final" 
d="M158 16q0 -60 -18 -107.5t-50 -81t-75 -51.5t-94 -18h-57l-5 52h51q52 0 90 17t62.5 45.5t36 66t11.5 77.5v268h50v-151q0 -35 24 -57.5t66 -22.5h11q22 0 22 -26q0 -27 -22 -27h-11q-26 0 -50.5 10t-41.5 33v-27z" />
    <glyph glyph-name="ze.fina" unicode="&#x632;" horiz-adv-x="261" arabic-form="final" 
d="M158 16q0 -60 -18 -107.5t-50 -81t-75 -51.5t-94 -18h-57l-5 52h51q52 0 90 17t62.5 45.5t36 66t11.5 77.5v268h50v-151q0 -35 24 -57.5t66 -22.5h11q22 0 22 -26q0 -27 -22 -27h-11q-26 0 -50.5 10t-41.5 33v-27zM165 416h-74v61h74v-61z" />
    <glyph glyph-name="sin.fina" unicode="&#x633;" horiz-adv-x="1173" arabic-form="final" 
d="M590 133q0 -35 25.5 -57.5t70.5 -22.5q49 0 76 23t27 61v147h49v-147q0 -24 7.5 -40t20 -26t28 -14t32.5 -4q45 0 68.5 23t23.5 61v147h50v-147q0 -24 8 -40t20.5 -26t28.5 -14t32 -4h16q22 0 22 -26q0 -27 -22 -27h-16q-36 0 -67 14t-50 52q-21 -38 -51.5 -52t-62.5 -14
q-35 0 -65.5 14t-49.5 52q-22 -38 -55.5 -52t-68.5 -14t-59.5 11t-38.5 31v-26q0 -51 -17 -98t-48.5 -82.5t-76.5 -56.5t-101 -21h-57q-112 0 -174 69t-62 189v173h49v-172q0 -46 12 -84t36 -65.5t60.5 -42.5t86.5 -15h44q49 0 86.5 16.5t62.5 44.5t38 65.5t13 78.5v269h49
v-151z" />
    <glyph glyph-name="sin.init" unicode="&#x633;" horiz-adv-x="714" arabic-form="initial" 
d="M33 53q45 0 71 23t26 61v147h50v-147q0 -24 8.5 -40t22 -26t30 -14t33.5 -4q50 0 77 23t27 61v147h50v-147q0 -24 7.5 -40t19.5 -26t28 -14t33 -4q41 0 66 23t25 61v147h50v-145q0 -66 -38.5 -102.5t-101.5 -36.5q-37 0 -68 14t-49 52q-22 -38 -55.5 -52t-70.5 -14
q-40 0 -72 14t-50 52q-22 -38 -55 -52t-69 -14h-28q-13 0 -17.5 6.5t-4.5 18.5q0 14 4.5 21t17.5 7h33z" />
    <glyph glyph-name="sin.medi" unicode="&#x633;" horiz-adv-x="763" arabic-form="medial" 
d="M33 53q45 0 71 23t26 61v147h50v-147q0 -24 8.5 -40t22 -26t30 -14t33.5 -4q50 0 77 23t27 61v147h50v-147q0 -24 7.5 -40t19.5 -26t28 -14t33 -4q43 0 67 23t24 61v147h50v-147q0 -24 8 -40t20.5 -26t28.5 -14t32 -4h17q22 0 22 -26q0 -27 -22 -27h-17q-36 0 -67 14
t-50 52q-22 -38 -52.5 -52t-60.5 -14q-37 0 -67.5 14t-48.5 52q-22 -38 -55.5 -52t-70.5 -14q-40 0 -72 14t-50 52q-22 -38 -55 -52t-69 -14h-28q-13 0 -17.5 6.5t-4.5 18.5q0 14 4.5 21t17.5 7h33z" />
    <glyph glyph-name="shin.fina" unicode="&#x634;" horiz-adv-x="1173" arabic-form="final" 
d="M590 133q0 -35 25.5 -57.5t70.5 -22.5q49 0 76 23t27 61v147h49v-147q0 -24 7.5 -40t20 -26t28 -14t32.5 -4q45 0 68.5 23t23.5 61v147h50v-147q0 -24 8 -40t20.5 -26t28.5 -14t32 -4h16q22 0 22 -26q0 -27 -22 -27h-16q-36 0 -67 14t-50 52q-21 -38 -51.5 -52t-62.5 -14
q-35 0 -65.5 14t-49.5 52q-22 -38 -55.5 -52t-68.5 -14t-59.5 11t-38.5 31v-26q0 -51 -17 -98t-48.5 -82.5t-76.5 -56.5t-101 -21h-57q-112 0 -174 69t-62 189v173h49v-172q0 -46 12 -84t36 -65.5t60.5 -42.5t86.5 -15h44q49 0 86.5 16.5t62.5 44.5t38 65.5t13 78.5v269h49
v-151zM850 527h-70v60h70v-60zM909 416h-69v60h69v-60zM789 416h-69v60h69v-60z" />
    <glyph glyph-name="shin.init" unicode="&#x634;" horiz-adv-x="714" arabic-form="initial" 
d="M33 53q45 0 71 23t26 61v147h50v-147q0 -24 8.5 -40t22 -26t30 -14t33.5 -4q50 0 77 23t27 61v147h50v-147q0 -24 7.5 -40t19.5 -26t28 -14t33 -4q41 0 66 23t25 61v147h50v-145q0 -66 -38.5 -102.5t-101.5 -36.5q-37 0 -68 14t-49 52q-22 -38 -55.5 -52t-70.5 -14
q-40 0 -72 14t-50 52q-22 -38 -55 -52t-69 -14h-28q-13 0 -17.5 6.5t-4.5 18.5q0 14 4.5 21t17.5 7h33zM439 527h-70v60h70v-60zM498 416h-69v60h69v-60zM378 416h-69v60h69v-60z" />
    <glyph glyph-name="shin.medi" unicode="&#x634;" horiz-adv-x="763" arabic-form="medial" 
d="M33 53q45 0 71 23t26 61v147h50v-147q0 -24 8.5 -40t22 -26t30 -14t33.5 -4q50 0 77 23t27 61v147h50v-147q0 -24 7.5 -40t19.5 -26t28 -14t33 -4q43 0 67 23t24 61v147h50v-147q0 -24 8 -40t20.5 -26t28.5 -14t32 -4h17q22 0 22 -26q0 -27 -22 -27h-17q-36 0 -67 14
t-50 52q-22 -38 -52.5 -52t-60.5 -14q-37 0 -67.5 14t-48.5 52q-22 -38 -55.5 -52t-70.5 -14q-40 0 -72 14t-50 52q-22 -38 -55 -52t-69 -14h-28q-13 0 -17.5 6.5t-4.5 18.5q0 14 4.5 21t17.5 7h33zM439 527h-70v60h70v-60zM498 416h-69v60h69v-60zM378 416h-69v60h69v-60z
" />
    <glyph glyph-name="sad.fina" unicode="&#x635;" horiz-adv-x="1237" arabic-form="final" 
d="M656 56q48 88 90 148.5t80.5 98.5t74.5 55t72 17q37 0 68.5 -15t54.5 -41.5t35.5 -61.5t12.5 -74q0 -55 -29 -99q19 -21 45 -26t61 -5h16q22 0 22 -26q0 -27 -22 -27h-16q-17 0 -33.5 0.5t-33.5 5t-33 13.5t-31 26q-22 -20 -52.5 -32.5t-70.5 -12.5h-273q-74 0 -105 44
v-28q0 -51 -17 -98t-48.5 -82.5t-76.5 -56.5t-101 -21h-57q-112 0 -174 69t-62 189v173h49v-172q0 -46 12 -84t36 -65.5t60.5 -42.5t86.5 -15h44q49 0 86.5 16.5t62.5 44.5t38 65.5t13 78.5v269h49v-145q0 -31 17.5 -54t48.5 -29zM1094 183q0 30 -9.5 56t-26.5 44.5
t-39.5 29t-48.5 10.5q-60 0 -123.5 -64.5t-141.5 -205.5h263q23 0 45.5 7.5t40.5 23t29 40t11 59.5z" />
    <glyph glyph-name="sad.init" unicode="&#x635;" horiz-adv-x="783" arabic-form="initial" 
d="M243 56q48 88 89.5 148.5t80 98.5t74.5 55t72 17q38 0 69.5 -15t54.5 -41.5t35.5 -61.5t12.5 -74q0 -33 -10.5 -66t-32.5 -59t-55.5 -42t-79.5 -16h-282q-39 0 -71 14t-51 52q-21 -38 -54.5 -52t-68.5 -14h-26q-13 0 -17.5 6.5t-4.5 18.5q0 14 4.5 21t17.5 7h30
q45 0 71 23t26 61v147h50v-147q0 -32 18.5 -53.5t47.5 -27.5zM680 183q0 30 -9.5 56t-26 44.5t-39.5 29t-49 10.5q-59 0 -123 -64.5t-142 -205.5h263q24 0 46.5 7.5t40 23t28.5 40t11 59.5z" />
    <glyph glyph-name="sad.medi" unicode="&#x635;" horiz-adv-x="824" arabic-form="medial" 
d="M243 56q48 88 89.5 148.5t80 98.5t74.5 55t72 17q38 0 69.5 -15t54.5 -41.5t35.5 -61.5t12.5 -74q0 -26 -8 -51.5t-22 -47.5q20 -21 46 -26t61 -5h16q22 0 22 -26q0 -27 -22 -27h-16q-17 0 -34 0.5t-33.5 5t-32.5 13.5t-31 26q-23 -20 -53.5 -32.5t-70.5 -12.5h-282
q-39 0 -71 14t-51 52q-21 -38 -54.5 -52t-68.5 -14h-26q-13 0 -17.5 6.5t-4.5 18.5q0 14 4.5 21t17.5 7h30q45 0 71 23t26 61v147h50v-147q0 -32 18.5 -53.5t47.5 -27.5zM680 183q0 30 -9.5 56t-26 44.5t-39.5 29t-49 10.5q-59 0 -123 -64.5t-142 -205.5h263q24 0 46.5 7.5
t40 23t28.5 40t11 59.5z" />
    <glyph glyph-name="zad.fina" unicode="&#x636;" horiz-adv-x="1237" arabic-form="final" 
d="M656 56q48 88 90 148.5t80.5 98.5t74.5 55t72 17q37 0 68.5 -15t54.5 -41.5t35.5 -61.5t12.5 -74q0 -55 -29 -99q19 -21 45 -26t61 -5h16q22 0 22 -26q0 -27 -22 -27h-16q-17 0 -33.5 0.5t-33.5 5t-33 13.5t-31 26q-22 -20 -52.5 -32.5t-70.5 -12.5h-273q-74 0 -105 44
v-28q0 -51 -17 -98t-48.5 -82.5t-76.5 -56.5t-101 -21h-57q-112 0 -174 69t-62 189v173h49v-172q0 -46 12 -84t36 -65.5t60.5 -42.5t86.5 -15h44q49 0 86.5 16.5t62.5 44.5t38 65.5t13 78.5v269h49v-145q0 -31 17.5 -54t48.5 -29zM1094 183q0 30 -9.5 56t-26.5 44.5
t-39.5 29t-48.5 10.5q-60 0 -123.5 -64.5t-141.5 -205.5h263q23 0 45.5 7.5t40.5 23t29 40t11 59.5zM950 480h-74v61h74v-61z" />
    <glyph glyph-name="zad.init" unicode="&#x636;" horiz-adv-x="783" arabic-form="initial" 
d="M243 56q48 88 89.5 148.5t80 98.5t74.5 55t72 17q38 0 69.5 -15t54.5 -41.5t35.5 -61.5t12.5 -74q0 -33 -10.5 -66t-32.5 -59t-55.5 -42t-79.5 -16h-282q-39 0 -71 14t-51 52q-21 -38 -54.5 -52t-68.5 -14h-26q-13 0 -17.5 6.5t-4.5 18.5q0 14 4.5 21t17.5 7h30
q45 0 71 23t26 61v147h50v-147q0 -32 18.5 -53.5t47.5 -27.5zM680 183q0 30 -9.5 56t-26 44.5t-39.5 29t-49 10.5q-59 0 -123 -64.5t-142 -205.5h263q24 0 46.5 7.5t40 23t28.5 40t11 59.5zM537 480h-74v61h74v-61z" />
    <glyph glyph-name="zad.medi" unicode="&#x636;" horiz-adv-x="824" arabic-form="medial" 
d="M243 56q48 88 89.5 148.5t80 98.5t74.5 55t72 17q38 0 69.5 -15t54.5 -41.5t35.5 -61.5t12.5 -74q0 -26 -8 -51.5t-22 -47.5q20 -21 46 -26t61 -5h16q22 0 22 -26q0 -27 -22 -27h-16q-17 0 -34 0.5t-33.5 5t-32.5 13.5t-31 26q-23 -20 -53.5 -32.5t-70.5 -12.5h-282
q-39 0 -71 14t-51 52q-21 -38 -54.5 -52t-68.5 -14h-26q-13 0 -17.5 6.5t-4.5 18.5q0 14 4.5 21t17.5 7h30q45 0 71 23t26 61v147h50v-147q0 -32 18.5 -53.5t47.5 -27.5zM680 183q0 30 -9.5 56t-26 44.5t-39.5 29t-49 10.5q-59 0 -123 -64.5t-142 -205.5h263q24 0 46.5 7.5
t40 23t28.5 40t11 59.5zM537 480h-74v61h74v-61z" />
    <glyph glyph-name="ta.fina" unicode="&#x637;" horiz-adv-x="726" arabic-form="final" 
d="M143 620h50v-317v-82.5t-1 -81.5q76 127 142 181.5t128 54.5q37 0 68.5 -15t54.5 -41.5t35.5 -61.5t12.5 -74q0 -55 -29 -99q20 -21 45.5 -26t61.5 -5h15q22 0 22 -26q0 -27 -22 -27h-15q-17 0 -34 0.5t-34 5t-33 13.5t-31 26q-22 -20 -52.5 -32.5t-70.5 -12.5h-403
l-6 53h96v567zM583 183q0 30 -9.5 56t-26.5 44.5t-39.5 29t-48.5 10.5q-60 0 -123 -64t-144 -206h265q23 0 45.5 7.5t40.5 23t29 40t11 59.5z" />
    <glyph glyph-name="ta.init" unicode="&#x637;" horiz-adv-x="644" arabic-form="initial" 
d="M103 620h49v-317v-82t-1 -82q63 104 118 158.5t109 70.5q14 4 28 5t28 0q35 -2 64 -18t50 -41.5t32.5 -59t11.5 -71.5q0 -33 -10.5 -66t-32.5 -59t-55 -42t-79 -16h-415q-13 0 -17.5 6.5t-4.5 18.5q0 14 4.5 21t17.5 7h103v567zM542 183q0 30 -9.5 56t-26.5 44.5
t-39.5 29t-48.5 10.5q-30 0 -60.5 -15.5t-63 -48.5t-68 -84t-75.5 -122h265q24 0 46.5 7.5t40 23t28.5 40t11 59.5z" />
    <glyph glyph-name="ta.medi" unicode="&#x637;" horiz-adv-x="685" arabic-form="medial" 
d="M103 620h49v-317v-82.5t-1 -81.5q67 111 125 166.5t115 66.5q11 2 20.5 2.5t20.5 -0.5q35 -2 64.5 -18t50.5 -41.5t33 -59.5t12 -72q0 -55 -29 -99q20 -21 45.5 -26t60.5 -5h16q22 0 22 -26q0 -27 -22 -27h-16q-17 0 -34 0.5t-33.5 5t-32.5 13.5t-31 26
q-22 -20 -52.5 -32.5t-70.5 -12.5h-415q-13 0 -17.5 6.5t-4.5 18.5q0 14 4.5 21t17.5 7h103v567zM542 183q0 30 -9.5 56t-26.5 44.5t-39.5 29t-48.5 10.5q-30 0 -60.5 -15.5t-63 -48.5t-68 -84t-75.5 -122h265q24 0 46.5 7.5t40 23t28.5 40t11 59.5z" />
    <glyph glyph-name="za.fina" unicode="&#x638;" horiz-adv-x="726" arabic-form="final" 
d="M143 620h50v-317v-82.5t-1 -81.5q76 127 142 181.5t128 54.5q37 0 68.5 -15t54.5 -41.5t35.5 -61.5t12.5 -74q0 -55 -29 -99q20 -21 45.5 -26t61.5 -5h15q22 0 22 -26q0 -27 -22 -27h-15q-17 0 -34 0.5t-34 5t-33 13.5t-31 26q-22 -20 -52.5 -32.5t-70.5 -12.5h-403
l-6 53h96v567zM583 183q0 30 -9.5 56t-26.5 44.5t-39.5 29t-48.5 10.5q-60 0 -123 -64t-144 -206h265q23 0 45.5 7.5t40.5 23t29 40t11 59.5zM498 501h-74v61h74v-61z" />
    <glyph glyph-name="za.init" unicode="&#x638;" horiz-adv-x="644" arabic-form="initial" 
d="M103 620h49v-317v-82t-1 -82q63 104 118 158.5t109 70.5q14 4 28 5t28 0q35 -2 64 -18t50 -41.5t32.5 -59t11.5 -71.5q0 -33 -10.5 -66t-32.5 -59t-55 -42t-79 -16h-415q-13 0 -17.5 6.5t-4.5 18.5q0 14 4.5 21t17.5 7h103v567zM542 183q0 30 -9.5 56t-26.5 44.5
t-39.5 29t-48.5 10.5q-30 0 -60.5 -15.5t-63 -48.5t-68 -84t-75.5 -122h265q24 0 46.5 7.5t40 23t28.5 40t11 59.5zM452 501h-74v61h74v-61z" />
    <glyph glyph-name="za.medi" unicode="&#x638;" horiz-adv-x="685" arabic-form="medial" 
d="M103 620h49v-317v-82.5t-1 -81.5q67 111 125 166.5t115 66.5q11 2 20.5 2.5t20.5 -0.5q35 -2 64.5 -18t50.5 -41.5t33 -59.5t12 -72q0 -55 -29 -99q20 -21 45.5 -26t60.5 -5h16q22 0 22 -26q0 -27 -22 -27h-16q-17 0 -34 0.5t-33.5 5t-32.5 13.5t-31 26
q-22 -20 -52.5 -32.5t-70.5 -12.5h-415q-13 0 -17.5 6.5t-4.5 18.5q0 14 4.5 21t17.5 7h103v567zM542 183q0 30 -9.5 56t-26.5 44.5t-39.5 29t-48.5 10.5q-30 0 -60.5 -15.5t-63 -48.5t-68 -84t-75.5 -122h265q24 0 46.5 7.5t40 23t28.5 40t11 59.5zM452 501h-74v61h74v-61z
" />
    <glyph glyph-name="ein.fina" unicode="&#x639;" horiz-adv-x="533" arabic-form="final" 
d="M252 59q-42 -30 -70.5 -57.5t-46.5 -54.5t-25.5 -54.5t-7.5 -57.5q0 -82 45.5 -125t149.5 -43h183l-6 -52h-181q-69 0 -115 17.5t-73.5 47.5t-39.5 69.5t-12 83.5q0 37 9.5 70t29 64.5t50 61.5t73.5 62l-161 207l30 57h256q46 0 78 -21.5t32 -63.5q0 -14 -4 -29
t-19 -35.5t-44.5 -49t-80.5 -70.5q15 -12 31 -19t35 -10t41.5 -3.5t50.5 -0.5h73q13 0 17.5 -7t4.5 -19q0 -14 -4.5 -20.5t-17.5 -6.5h-80q-34 0 -62 1t-52 6.5t-45 17.5t-42 34zM397 258q0 21 -17.5 33.5t-53.5 12.5h-217l153 -196q40 33 66 56t41.5 40t21.5 29.5t6 24.5z
" />
    <glyph glyph-name="ein.init" unicode="&#x639;" horiz-adv-x="479" arabic-form="initial" 
d="M152 53q-18 16 -29.5 34.5t-18 37t-9 35.5t-2.5 29q0 36 12 67.5t34.5 54.5t54 36.5t69.5 13.5q34 0 65 -10.5t69 -35.5l-21 -41q-32 18 -59.5 26t-53.5 8q-27 0 -49 -10t-38 -26.5t-24.5 -38t-8.5 -44.5q0 -24 8.5 -48.5t23.5 -44t34 -31.5t40 -12h178l-5 -53h-422
q-13 0 -17.5 6.5t-4.5 18.5q0 14 4.5 21t17.5 7h152z" />
    <glyph glyph-name="ein.medi" unicode="&#x639;" horiz-adv-x="567" arabic-form="medial" 
d="M40 53q48 0 101 6.5t104 35.5l-157 203l30 57h256q43 0 74 -18.5t34 -58.5q0 -5 0.5 -10t-0.5 -10q-2 -13 -8.5 -27.5t-22 -34.5t-43 -47t-72.5 -63q15 -12 31 -19t34.5 -10t41 -3.5t50.5 -0.5h74q22 0 22 -26q0 -27 -22 -27h-81q-33 0 -61 1t-52 6.5t-45.5 17.5
t-42.5 34q-53 -36 -110.5 -47.5t-131.5 -11.5h-43q-13 0 -17.5 6.5t-4.5 18.5q0 14 4.5 21t17.5 7h40zM431 258q0 21 -17.5 33.5t-52.5 12.5h-218l152 -196q40 33 66.5 56t42 40t21.5 29.5t6 24.5z" />
    <glyph glyph-name="qein.fina" unicode="&#x63a;" horiz-adv-x="533" arabic-form="final" 
d="M252 59q-42 -30 -70.5 -57.5t-46.5 -54.5t-25.5 -54.5t-7.5 -57.5q0 -82 45.5 -125t149.5 -43h183l-6 -52h-181q-69 0 -115 17.5t-73.5 47.5t-39.5 69.5t-12 83.5q0 37 9.5 70t29 64.5t50 61.5t73.5 62l-161 207l30 57h256q46 0 78 -21.5t32 -63.5q0 -14 -4 -29
t-19 -35.5t-44.5 -49t-80.5 -70.5q15 -12 31 -19t35 -10t41.5 -3.5t50.5 -0.5h73q13 0 17.5 -7t4.5 -19q0 -14 -4.5 -20.5t-17.5 -6.5h-80q-34 0 -62 1t-52 6.5t-45 17.5t-42 34zM397 258q0 21 -17.5 33.5t-53.5 12.5h-217l153 -196q40 33 66 56t41.5 40t21.5 29.5t6 24.5z
M299 505h-74v61h74v-61z" />
    <glyph glyph-name="qein.init" unicode="&#x63a;" horiz-adv-x="479" arabic-form="initial" 
d="M152 53q-18 16 -29.5 34.5t-18 37t-9 35.5t-2.5 29q0 36 12 67.5t34.5 54.5t54 36.5t69.5 13.5q34 0 65 -10.5t69 -35.5l-21 -41q-32 18 -59.5 26t-53.5 8q-27 0 -49 -10t-38 -26.5t-24.5 -38t-8.5 -44.5q0 -24 8.5 -48.5t23.5 -44t34 -31.5t40 -12h178l-5 -53h-422
q-13 0 -17.5 6.5t-4.5 18.5q0 14 4.5 21t17.5 7h152zM274 493h-74v61h74v-61z" />
    <glyph glyph-name="qein.medi" unicode="&#x63a;" horiz-adv-x="567" arabic-form="medial" 
d="M40 53q48 0 101 6.5t104 35.5l-157 203l30 57h256q43 0 74 -18.5t34 -58.5q0 -5 0.5 -10t-0.5 -10q-2 -13 -8.5 -27.5t-22 -34.5t-43 -47t-72.5 -63q15 -12 31 -19t34.5 -10t41 -3.5t50.5 -0.5h74q22 0 22 -26q0 -27 -22 -27h-81q-33 0 -61 1t-52 6.5t-45.5 17.5
t-42.5 34q-53 -36 -110.5 -47.5t-131.5 -11.5h-43q-13 0 -17.5 6.5t-4.5 18.5q0 14 4.5 21t17.5 7h40zM431 258q0 21 -17.5 33.5t-52.5 12.5h-218l152 -196q40 33 66.5 56t42 40t21.5 29.5t6 24.5zM335 505h-74v61h74v-61z" />
    <glyph glyph-name="fe.fina" unicode="&#x641;" horiz-adv-x="893" arabic-form="final" 
d="M629 337q-28 0 -50.5 -10t-38.5 -26.5t-24.5 -39t-8.5 -47.5q0 -29 12.5 -53t32 -42.5t42.5 -32t44 -22.5q16 9 36 22.5t37 31.5t29 41t12 51q0 57 -33 92t-90 35zM635 390q42 0 73 -14.5t51.5 -37.5t31 -53t10.5 -60q0 -51 -26 -94.5t-81 -77.5h199q13 0 17.5 -7
t4.5 -19q0 -14 -4.5 -20.5t-17.5 -6.5h-114q-46 0 -82 2t-56 11q-15 -5 -35.5 -7.5t-42 -4t-42 -1.5h-34.5h-275q-41 0 -70.5 12.5t-48 33.5t-27 49t-8.5 59v131h49v-120q0 -51 26.5 -81.5t89.5 -30.5h354q-54 26 -86.5 69t-32.5 97q0 33 12 64t35 54.5t56 38t74 14.5z
M667 494h-74v61h74v-61z" />
    <glyph glyph-name="fe.init" unicode="&#x641;" horiz-adv-x="484" arabic-form="initial" 
d="M201 53q23 0 41 1t38 3q-65 21 -102.5 40.5t-56 40.5t-23.5 44.5t-5 53.5q0 28 11 57t32.5 53t53 39t72.5 15q38 0 69 -10.5t53 -34t34 -60.5t12 -90v-42q0 -76 -46.5 -119.5t-146.5 -43.5h-237q-13 0 -17.5 6.5t-4.5 18.5q0 14 4.5 21t17.5 7h201zM257 347
q-27 0 -48.5 -10t-36.5 -26t-23.5 -36.5t-8.5 -41.5t4 -39t23.5 -36t60.5 -37.5t114 -43.5q17 14 28 35.5t11 51.5v35q0 70 -29 109t-95 39zM299 505h-74v61h74v-61z" />
    <glyph glyph-name="fe.medi" unicode="&#x641;" horiz-adv-x="528" arabic-form="medial" 
d="M212 53q-54 26 -86.5 69t-32.5 97q0 33 12 64t35 54.5t56 38t74 14.5t72 -14.5t51.5 -37.5t31 -53t10.5 -60q0 -51 -25.5 -94.5t-81.5 -77.5h200q22 0 22 -26q0 -27 -22 -27h-115q-45 0 -81 2t-57 11q-14 -5 -34.5 -7.5t-42 -4t-42 -1.5h-34.5h-122q-13 0 -17.5 6.5
t-4.5 18.5q0 14 4.5 21t17.5 7h212zM264 337q-28 0 -50.5 -10t-38.5 -26.5t-24.5 -39t-8.5 -47.5q0 -29 12.5 -53t32 -42.5t42.5 -32t44 -22.5q16 9 35.5 22.5t37 31.5t29.5 41t12 51q0 57 -33 92t-90 35zM310 494h-74v61h74v-61z" />
    <glyph glyph-name="qaf.fina" unicode="&#x642;" horiz-adv-x="755" arabic-form="final" 
d="M652 0q-2 -49 -20 -93t-49.5 -77t-75 -52.5t-96.5 -19.5h-122q-112 0 -174 69t-62 189v173h49v-172q0 -46 12 -84t36 -65.5t60.5 -42.5t86.5 -15h108q46 0 82 15t61.5 41t39.5 60.5t16 73.5h-113q-51 0 -84.5 11t-52.5 31.5t-26.5 50t-7.5 65.5q0 37 11 71.5t32 60
t52.5 41t72.5 15.5q33 0 63 -11t52.5 -34.5t36 -60.5t13.5 -90v-97h102q22 0 22 -26q0 -27 -22 -27h-103zM369 160q0 -29 6 -49t21.5 -33t41.5 -19t67 -6h100v86q0 82 -33 119t-90 37q-53 0 -83 -37t-30 -98zM585 464h-69v60h69v-60zM465 464h-69v60h69v-60z" />
    <glyph glyph-name="qaf.init" unicode="&#x642;" horiz-adv-x="484" arabic-form="initial" 
d="M201 53q23 0 41 1t38 3q-65 21 -102.5 40.5t-56 40.5t-23.5 44.5t-5 53.5q0 28 11 57t32.5 53t53 39t72.5 15q38 0 69 -10.5t53 -34t34 -60.5t12 -90v-42q0 -76 -46.5 -119.5t-146.5 -43.5h-237q-13 0 -17.5 6.5t-4.5 18.5q0 14 4.5 21t17.5 7h201zM257 347
q-27 0 -48.5 -10t-36.5 -26t-23.5 -36.5t-8.5 -41.5t4 -39t23.5 -36t60.5 -37.5t114 -43.5q17 14 28 35.5t11 51.5v35q0 70 -29 109t-95 39zM354 506h-69v60h69v-60zM234 506h-69v60h69v-60z" />
    <glyph glyph-name="qaf.medi" unicode="&#x642;" horiz-adv-x="528" arabic-form="medial" 
d="M212 53q-54 26 -86.5 69t-32.5 97q0 33 12 64t35 54.5t56 38t74 14.5t72 -14.5t51.5 -37.5t31 -53t10.5 -60q0 -51 -25.5 -94.5t-81.5 -77.5h200q22 0 22 -26q0 -27 -22 -27h-115q-45 0 -81 2t-57 11q-14 -5 -34.5 -7.5t-42 -4t-42 -1.5h-34.5h-122q-13 0 -17.5 6.5
t-4.5 18.5q0 14 4.5 21t17.5 7h212zM264 337q-28 0 -50.5 -10t-38.5 -26.5t-24.5 -39t-8.5 -47.5q0 -29 12.5 -53t32 -42.5t42.5 -32t44 -22.5q16 9 35.5 22.5t37 31.5t29.5 41t12 51q0 57 -33 92t-90 35zM358 491h-69v60h69v-60zM238 491h-69v60h69v-60z" />
    <glyph glyph-name="kaf.arab.fina" unicode="&#x643;" horiz-adv-x="805" arabic-form="final" 
d="M420 209v92q0 9 -5.5 15.5t-21.5 6.5h-126v112q0 48 28 75.5t79 27.5h45l6 -42h-49q-33 0 -50.5 -15t-17.5 -48v-68h104q28 0 38.5 -16t10.5 -36v-104h-41zM212 0q-41 0 -70.5 12.5t-48 33.5t-27 49t-8.5 59v131h49v-120q0 -51 26.5 -81.5t89.5 -30.5h335q45 0 69 23
t24 61v483h50v-483q0 -24 8 -40t21 -26t29 -14t32 -4h14q13 0 17.5 -7t4.5 -19q0 -14 -4.5 -20.5t-17.5 -6.5h-15q-36 0 -67 14t-49 52q-23 -38 -53 -52t-63 -14h-346z" />
    <glyph glyph-name="lam.fina" unicode="&#x644;" horiz-adv-x="692" arabic-form="final" 
d="M681 0q-26 0 -51 10t-41 33v-26q0 -52 -17 -99t-48.5 -82.5t-76.5 -56.5t-101 -21h-57q-112 0 -174 69t-62 189v173h49v-172q0 -46 12 -84t36 -65.5t60.5 -42.5t86.5 -15h44q49 0 86.5 16.5t62.5 44.5t38 65.5t13 78.5v605h49v-487q0 -35 25 -57.5t66 -22.5h11
q23 0 23 -26q0 -27 -23 -27h-11z" />
    <glyph glyph-name="lam.init" unicode="&#x644;" horiz-adv-x="241" arabic-form="initial" 
d="M27 53q42 0 67.5 23t25.5 61v483h49v-481q0 -66 -38 -102.5t-102 -36.5h-29q-13 0 -17.5 6.5t-4.5 18.5q0 14 4.5 21t17.5 7h27z" />
    <glyph glyph-name="lam.medi" unicode="&#x644;" horiz-adv-x="273" arabic-form="medial" 
d="M27 53q45 0 69 23t24 61v483h49v-483q0 -24 8 -40t21 -26t29 -14t32 -4h14q13 0 17.5 -7t4.5 -19q0 -14 -4.5 -20.5t-17.5 -6.5h-15q-36 0 -67 14t-49 52q-21 -38 -52 -52t-63 -14h-27q-13 0 -17.5 6.5t-4.5 18.5q0 14 4.5 21t17.5 7h27z" />
    <glyph glyph-name="mim.fina" unicode="&#x645;" horiz-adv-x="674" arabic-form="final" 
d="M573 149q0 -53 23.5 -74.5t57.5 -21.5h20q13 0 17.5 -7t4.5 -19q0 -14 -4.5 -20.5t-17.5 -6.5h-20q-16 0 -31 2.5t-28.5 9.5t-25.5 20.5t-21 34.5q-12 -21 -29.5 -34t-36.5 -20.5t-38.5 -10t-37.5 -2.5q-68 0 -109.5 36.5t-41.5 106.5v66q0 34 8.5 58.5t32.5 45.5h-49
q-69 0 -104.5 -36.5t-35.5 -90.5v-428h-49v429q0 35 12.5 67t36.5 56.5t60 39t84 14.5h181q39 0 66 -11.5t43.5 -30t24 -42.5t7.5 -48v-83zM412 53q51 0 81.5 22.5t30.5 70.5v75q0 36 -21.5 63.5t-68.5 27.5h-41q-47 0 -68.5 -28t-21.5 -68v-66q0 -48 29 -72.5t80 -24.5z
" />
    <glyph glyph-name="mim.init" unicode="&#x645;" horiz-adv-x="488" arabic-form="initial" 
d="M18 53q42 0 62.5 21t20.5 53v45q0 89 44 137.5t123 48.5q82 0 122 -49.5t40 -128.5q0 -85 -44 -132.5t-123 -47.5q-41 0 -77.5 15.5t-59.5 57.5q-9 -25 -22 -39.5t-27 -22t-29 -9.5t-30 -2h-18q-13 0 -17.5 6.5t-4.5 18.5q0 14 4.5 21t17.5 7h18zM381 173q0 60 -26 96.5
t-90 36.5q-57 0 -87 -34.5t-30 -103.5q0 -57 33 -86t82 -29q58 0 88 31.5t30 88.5z" />
    <glyph glyph-name="mim.medi" unicode="&#x645;" horiz-adv-x="530" arabic-form="medial" 
d="M18 53q42 0 62.5 21t20.5 53v45q0 89 44 137.5t123 48.5q82 0 122 -49.5t40 -127.5v-37q0 -51 22.5 -71t58.5 -20h19q13 0 17.5 -7t4.5 -19q0 -14 -4.5 -20.5t-17.5 -6.5h-19q-16 0 -31.5 2.5t-29.5 11t-26 23.5t-21 40q-14 -23 -30 -38t-34.5 -23.5t-38 -12t-38.5 -3.5
q-41 0 -77 15.5t-59 57.5q-9 -25 -22 -39.5t-27 -22t-29 -9.5t-30 -2h-18q-13 0 -17.5 6.5t-4.5 18.5q0 14 4.5 21t17.5 7h18zM381 173q0 60 -26 96.5t-90 36.5q-57 0 -87 -34.5t-30 -103.5q0 -57 33 -86t82 -29q58 0 88 31.5t30 88.5z" />
    <glyph glyph-name="nun.fina" unicode="&#x646;" horiz-adv-x="692" arabic-form="final" 
d="M681 0q-26 0 -51 10t-41 33v-26q0 -52 -17 -99t-48.5 -82.5t-76.5 -56.5t-101 -21h-57q-112 0 -174 69t-62 189v173h49v-172q0 -46 12 -84t36 -65.5t60.5 -42.5t86.5 -15h44q49 0 86.5 16.5t62.5 44.5t38 65.5t13 78.5v269h49v-151q0 -35 25 -57.5t66 -22.5h11
q23 0 23 -26q0 -27 -23 -27h-11zM348 308h-74v61h74v-61z" />
    <glyph glyph-name="nun.init" unicode="&#x646;" horiz-adv-x="290" arabic-form="initial" 
d="M89 53q42 0 68 23t26 61v147h49v-145q0 -66 -38.5 -102.5t-101.5 -36.5h-92q-13 0 -17.5 6.5t-4.5 18.5q0 14 4.5 21t17.5 7h89zM208 416h-74v61h74v-61z" />
    <glyph glyph-name="nun.medi" unicode="&#x646;" horiz-adv-x="344" arabic-form="medial" 
d="M78 53q45 0 69.5 23t24.5 61v147h50v-147q0 -24 8 -40t20.5 -26t28.5 -14t32 -4h33q23 0 23 -26q0 -27 -23 -27h-34q-35 0 -66 14t-50 52q-22 -38 -52 -52t-64 -14h-78q-13 0 -17.5 6.5t-4.5 18.5q0 14 4.5 21t17.5 7h78zM226 416h-74v61h74v-61z" />
    <glyph glyph-name="he.fina" unicode="&#x647;" horiz-adv-x="497" arabic-form="final" 
d="M220 92q57 0 92 23t35 57v171h-121q-57 0 -88.5 -39t-31.5 -103q0 -62 29.5 -85.5t84.5 -23.5zM396 161q0 -47 18.5 -77.5t68.5 -30.5h14q13 0 17.5 -7t4.5 -19q0 -14 -4.5 -20.5t-17.5 -6.5h-14q-45 0 -78 20t-47 75q-12 -17 -30.5 -27t-39 -16t-41 -8t-38.5 -2
q-73 0 -112 36.5t-39 116.5q0 37 10.5 72.5t31.5 63.5t52.5 45t74.5 17h120v70h49v-302z" />
    <glyph glyph-name="he.init" unicode="&#x647;" horiz-adv-x="719" arabic-form="initial" 
d="M262 329q-28 0 -50.5 -10t-38.5 -26.5t-24.5 -39.5t-8.5 -48q0 -29 12.5 -51.5t32 -40t42.5 -29.5t44 -21q16 9 36 21t37.5 29t29.5 39t12 50q0 56 -33.5 91.5t-90.5 35.5zM0 0q-13 0 -17.5 6.5t-4.5 18.5q0 14 4.5 21t17.5 7h212q-53 26 -86 64.5t-33 92.5q0 33 12 63.5
t34.5 54.5t55.5 38t74 14t72 -14t51.5 -37.5t30.5 -53t10 -59.5q0 -51 -25.5 -90t-81.5 -73h192q45 0 70 21t25 55q0 17 -7.5 35.5t-24.5 38.5l-188 213l37 35l190 -216q26 -31 36 -58.5t10 -53.5q0 -54 -38 -88.5t-107 -34.5h-110q-46 0 -81.5 2t-56.5 11
q-14 -5 -34.5 -7.5t-42 -4t-42 -1.5h-34.5h-120z" />
    <glyph glyph-name="he.medi" unicode="&#x647;" horiz-adv-x="539" arabic-form="medial" 
d="M101 53v116q0 35 7.5 71.5t26.5 66t50 48.5t78 19q37 0 65.5 -12t47 -33t28 -49t9.5 -61q0 -45 -20.5 -84t-56 -68.5t-84 -47t-104.5 -18.5v-78q0 -31 6 -52t17 -33.5t26 -19t32 -8.5l99 132q30 39 54.5 61t48.5 33.5t49.5 14t58.5 2.5q13 0 17.5 -7t4.5 -19
q0 -14 -4.5 -20.5t-17.5 -6.5q-32 0 -55.5 -2.5t-44.5 -12.5t-43 -31t-50 -58l-102 -138q-30 0 -56 8.5t-45.5 28t-30.5 50.5t-11 76v79h-101q-13 0 -17.5 6.5t-4.5 18.5q0 14 4.5 21t17.5 7h101zM148 51q54 1 95 15t68 36.5t41 50t14 56.5q0 50 -25.5 81.5t-78.5 31.5
q-54 0 -84 -40t-30 -112v-119z" />
    <glyph glyph-name="vav.fina" unicode="&#x648;" horiz-adv-x="494" arabic-form="final" 
d="M147 -190q46 0 82 15t60.5 41t38 60.5t15.5 73.5h-113q-51 0 -84 11t-52 31.5t-26.5 50t-7.5 65.5q0 37 10.5 71.5t31.5 60t52 41t72 15.5q33 0 63 -11t53 -34.5t36.5 -60.5t13.5 -90v-97h102q12 0 16.5 -7t4.5 -19q0 -14 -4.5 -20.5t-16.5 -6.5h-104q-2 -49 -19.5 -93
t-48 -77t-73 -52.5t-96.5 -19.5h-108l-6 52h108zM108 160q0 -29 6 -49t21.5 -33t41.5 -19t66 -6h100v86q0 82 -32.5 119t-89.5 37q-54 0 -83.5 -37t-29.5 -98z" />
    <glyph glyph-name="alef.maksura.fina" unicode="&#x649;" horiz-adv-x="704" arabic-form="final" 
d="M379 -190q53 0 90 11.5t60.5 30t34 41.5t10.5 46q0 26 -12.5 43.5t-44.5 17.5h-177l5 53h359q22 0 22 -26q0 -27 -22 -27h-104q13 -12 17.5 -28t4.5 -34q0 -27 -11.5 -58.5t-39 -58.5t-73 -45t-112.5 -18h-97q-112 0 -174 69t-62 189v173h49v-172q0 -46 12 -84t36 -65.5
t60.5 -42.5t86.5 -15h82z" />
    <glyph glyph-name="ye.arab.fina" unicode="&#x64a;" horiz-adv-x="704" arabic-form="final" 
d="M379 -190q53 0 90 11.5t60.5 30t34 41.5t10.5 46q0 26 -12.5 43.5t-44.5 17.5h-177l5 53h359q22 0 22 -26q0 -27 -22 -27h-104q13 -12 17.5 -28t4.5 -34q0 -27 -11.5 -58.5t-39 -58.5t-73 -45t-112.5 -18h-97q-112 0 -174 69t-62 189v173h49v-172q0 -46 12 -84t36 -65.5
t60.5 -42.5t86.5 -15h82zM411 -415h-65v60h65v-60zM288 -415h-66v60h66v-60z" />
    <glyph glyph-name=".notdef" horiz-adv-x="533" 
d="M462 0h-396v610h396v-610zM115 558v-505h299v505h-299z" />
    <glyph glyph-name=".null" horiz-adv-x="957" 
 />
    <glyph glyph-name="nonmarkingreturn" horiz-adv-x="957" 
 />
    <glyph glyph-name="line_feed" unicode="&#xa;" 
 />
    <glyph glyph-name="carriage_return" unicode="&#xd;" 
 />
    <glyph glyph-name="space" unicode=" " horiz-adv-x="158" 
 />
    <glyph glyph-name="exclam" unicode="!" horiz-adv-x="202" 
d="M126 472q0 -51 -0.5 -88.5t-2 -69.5t-3 -62t-4.5 -67h-30q-3 36 -4.5 66.5t-3 62.5t-2 69.5t-0.5 88.5v126h50v-126zM101 0q-20 0 -28.5 10t-8.5 32q0 24 8.5 34t28.5 10t28.5 -10t8.5 -34q0 -22 -8.5 -32t-28.5 -10z" />
    <glyph glyph-name="quotedbl" unicode="&#x22;" horiz-adv-x="282" 
d="M61 610h46v-236h-46v236zM175 610h46v-236h-46v236z" />
    <glyph glyph-name="numbersign" unicode="#" horiz-adv-x="694" 
d="M233 393h-158v45h165l28 161l39 -5l-26 -156h179l30 161l38 -5l-27 -156h141v-45h-148l-33 -187h159v-45h-166l-29 -161l-39 5l27 156h-179l-30 -161l-39 5l28 156h-140v45h147zM420 206l32 187h-179l-32 -187h179z" />
    <glyph glyph-name="quotesingle" unicode="'" horiz-adv-x="168" 
d="M61 610h46v-236h-46v236z" />
    <glyph glyph-name="parenleft" unicode="(" horiz-adv-x="290" 
d="M102 214q0 -65 7.5 -116.5t24 -94t42.5 -80t62 -75.5l-30 -30q-35 35 -64 73.5t-49 85t-31 103.5t-11 129t11 129t31 103.5t49 84.5t64 73l30 -30q-36 -38 -62 -75t-42.5 -78.5t-24 -91t-7.5 -110.5z" />
    <glyph glyph-name="parenright" unicode=")" horiz-adv-x="290" 
d="M188.006 204.013q0 64.9961 -7.49902 116.493q-7.5 51.4971 -23.999 93.9941q-16.499 42.498 -42.4971 79.9951q-25.998 37.498 -61.9961 75.4951l29.998 29.999q34.998 -34.998 63.9961 -73.4961q28.998 -38.4971 48.9971 -84.9941q19.999 -46.498 30.998 -103.494
t10.999 -128.992q0 -71.9951 -10.999 -128.992q-10.999 -56.9961 -30.998 -103.493q-19.999 -46.498 -48.9971 -84.4951q-28.998 -37.998 -63.9961 -72.9961l-29.998 29.999q35.998 37.9971 61.9961 74.9951t42.4971 78.4951t23.999 90.9941
q7.49902 49.4971 7.49902 110.493z" />
    <glyph glyph-name="asterisk" unicode="*" horiz-adv-x="507" 
d="M149 222l-36 30l106 140l-166 59l16 42l163 -61l-1 179h45l-2 -179l164 61l16 -42l-167 -59l106 -140l-36 -30l-103 146z" />
    <glyph glyph-name="plus" unicode="+" horiz-adv-x="507" 
d="M53 172v47h180v173h46v-173h176v-47h-176v-172h-46v172h-180z" />
    <glyph glyph-name="hyphen_minus" unicode="-" horiz-adv-x="507" 
d="M53 172v48h402v-48h-402z" />
    <glyph glyph-name="period" unicode="." horiz-adv-x="207" 
d="M104 0q-22 0 -31 11.5t-9 34.5q0 24 9 35t31 11q21 0 30 -11t9 -35q0 -23 -9 -34.5t-30 -11.5z" />
    <glyph glyph-name="slash" unicode="/" horiz-adv-x="539" 
d="M447 572l39 -25l-394 -624l-39 26z" />
    <glyph glyph-name="zero" unicode="0" horiz-adv-x="556" 
d="M502 256q0 -82 -17.5 -142t-48 -99t-71.5 -58t-88 -19t-87.5 19t-70.5 58t-47.5 99t-17.5 142t17.5 142.5t47.5 100t70.5 58.5t87.5 19t88 -19t71.5 -58.5t48 -100t17.5 -142.5zM451 256q0 76 -14 129t-38 86.5t-55.5 49t-66.5 15.5t-66.5 -15.5t-55.5 -49t-38 -86.5
t-14 -129q0 -75 14 -128t38 -86.5t55.5 -48.5t66.5 -15t66.5 15t55.5 48.5t38 86.5t14 128z" />
    <glyph glyph-name="one" unicode="1" horiz-adv-x="333" 
d="M236 570v-625h-47v530v17.5t1 17.5l-125 -113q-7 -5 -15.5 -5.5t-13.5 6.5l-14 16l176 156h38z" />
    <glyph glyph-name="two" unicode="2" horiz-adv-x="489" 
d="M426 -11q17 0 17 -16v-28h-406v16q0 12 10 22l210 212q26 26 48.5 51t39 50.5t25.5 52t9 56.5q0 34 -11 58.5t-29.5 40.5t-42.5 23.5t-51 7.5q-57 0 -94.5 -32.5t-47.5 -84.5q-8 -19 -25 -15l-25 3q11 81 64 125.5t130 44.5q37 0 70 -11t57.5 -32t39 -52.5t14.5 -73.5
q0 -36 -11 -66t-29 -57.5t-42 -53.5t-51 -53l-190 -194q28 6 62 6h259z" />
    <glyph glyph-name="three" unicode="3" horiz-adv-x="505" 
d="M65 406q11 81 63 125.5t130 44.5q37 0 69.5 -10t56.5 -30t38 -49.5t14 -68.5q0 -62 -36 -98.5t-87 -50.5q69 -11 103.5 -51t34.5 -100q0 -39 -15.5 -72t-42.5 -57t-64 -37.5t-79 -13.5q-53 0 -89 14t-59 36.5t-36 51.5t-21 58l18 8q9 3 17.5 2t12.5 -11q4 -9 11.5 -28.5
t24 -40t45 -36t74.5 -15.5q39 0 67.5 13t48 33t29 45t9.5 48q0 28 -8.5 52.5t-29 42t-54 27.5t-84.5 10v34q81 2 121.5 37t40.5 92q0 32 -10.5 55.5t-28.5 38.5t-41.5 22.5t-50.5 7.5q-58 0 -95.5 -32.5t-47.5 -84.5q-6 -19 -25 -15z" />
    <glyph glyph-name="four" unicode="4" horiz-adv-x="526" 
d="M336 160v316q0 15 3 33l-263 -349h260zM489 160v-27q0 -11 -12 -11h-98v-177h-43v177h-291q-8 0 -11 3t-5 7l-5 24l311 413h44v-409h110z" />
    <glyph glyph-name="five" unicode="5" horiz-adv-x="469" 
d="M119 323q59 14 103 14q49 0 86 -14t62 -39t37.5 -59.5t12.5 -74.5q0 -50 -17 -89.5t-46.5 -66.5t-68.5 -41.5t-84 -14.5q-54 0 -96.5 17.5t-68.5 38.5l14 20q5 7 15 7q6 0 17 -6.5t27.5 -14.5t39.5 -14.5t54 -6.5q36 0 66 11.5t52 33t34.5 53t12.5 71.5q0 66 -38.5 108
t-119.5 42q-25 0 -52.5 -4t-58.5 -14l-31 10l49 278h283v-20q0 -10 -6.5 -16.5t-21.5 -6.5h-220z" />
    <glyph glyph-name="six" unicode="6" horiz-adv-x="510" 
d="M254 -23q37 0 66.5 11.5t50.5 32t32 48.5t11 61q0 72 -42 112t-109 40q-37 0 -66.5 -13t-49.5 -34t-31 -47.5t-11 -53.5q0 -34 10.5 -63t29.5 -50t46.5 -32.5t62.5 -11.5zM139 255q23 30 60 46.5t79 16.5q40 0 73.5 -13t58.5 -37t39 -58t14 -76q0 -43 -15 -79t-42.5 -62
t-66 -40.5t-84.5 -14.5q-90 0 -144 54.5t-54 151.5q0 38 18.5 83.5t60.5 102.5l168 227q6 11 26 11h43l-186 -242q-16 -20 -28 -37t-20 -34z" />
    <glyph glyph-name="seven" unicode="7" horiz-adv-x="458" 
d="M442 568v-21q0 -8 -2 -14t-4 -11l-281 -560q-8 -17 -28 -17h-34l284 557q4 7 7.5 12.5t8.5 10.5h-354q-13 0 -13 13v30h416z" />
    <glyph glyph-name="eight" unicode="8" horiz-adv-x="511" 
d="M255 -25q71 0 113 37t42 100q0 39 -14.5 65.5t-37 42.5t-50 23t-53.5 7t-53.5 -7t-50 -23t-37 -42.5t-14.5 -65.5q0 -63 42.5 -100t112.5 -37zM255 539q-64 0 -99.5 -36t-35.5 -88q0 -25 8 -48t24.5 -40.5t42 -28t60.5 -10.5t60.5 10.5t42 28t24.5 40.5t8 48q0 52 -35 88
t-100 36zM323 270q60 -14 98 -52t38 -107q0 -40 -15 -72t-42 -54.5t-64.5 -34.5t-82.5 -12t-82.5 12t-64.5 34.5t-42 54.5t-15 72q0 69 38 107t98 52q-56 15 -85 53.5t-29 92.5q0 34 12.5 63t36.5 50.5t57.5 34t75.5 12.5t75.5 -12.5t57.5 -34t36.5 -50.5t12.5 -63
q0 -54 -29.5 -92.5t-84.5 -53.5z" />
    <glyph glyph-name="nine" unicode="9" horiz-adv-x="468" 
d="M82 391q0 -69 39 -107.5t103 -38.5q36 0 65 12.5t48.5 32.5t30 45.5t10.5 51.5q0 33 -11 60.5t-30 47t-46 30.5t-58 11q-34 0 -61.5 -10.5t-47.5 -30t-31 -46t-11 -58.5zM303 201q15 21 26.5 38t20.5 34q-24 -30 -61 -47.5t-79 -17.5q-38 0 -70 13t-55.5 36t-37 56
t-13.5 74q0 40 15 74.5t41 60t62.5 40t80.5 14.5q42 0 77.5 -14.5t60.5 -40t39 -62t14 -79.5q0 -50 -20 -92.5t-56 -94.5l-162 -237q-8 -11 -24 -11h-45z" />
    <glyph glyph-name="colon" unicode=":" horiz-adv-x="207" 
d="M104 242q-22 0 -31 11.5t-9 34.5q0 24 9 35t31 11q21 0 30 -11t9 -35q0 -23 -9 -34.5t-30 -11.5zM104 0q-22 0 -31 11.5t-9 34.5q0 24 9 35t31 11q21 0 30 -11t9 -35q0 -23 -9 -34.5t-30 -11.5z" />
    <glyph glyph-name="less" unicode="&#x3c;" horiz-adv-x="455" 
d="M402 33l-21 -46l-328 178v52l328 179l21 -47l-299 -158z" />
    <glyph glyph-name="equal" unicode="=" horiz-adv-x="507" 
d="M53 80v48h402v-48h-402zM53 265v48h402v-48h-402z" />
    <glyph glyph-name="greater" unicode="&#x3e;" horiz-adv-x="455" 
d="M53.0244 33l20.999 -46l327.979 178v52l-327.979 179l-20.999 -47l298.981 -158z" />
    <glyph glyph-name="bracketleft" unicode="[" horiz-adv-x="303" 
d="M252 594v-48h-143v-675h143v-47h-191v770h191z" />
    <glyph glyph-name="backslash" unicode="\" horiz-adv-x="539" 
d="M92.0273 572l-38.998 -25l393.977 -624l38.9971 26z" />
    <glyph glyph-name="bracketright" unicode="]" horiz-adv-x="303" 
d="M51.0156 594v-48h142.991v-675h-142.991v-47h190.988v770h-190.988z" />
    <glyph glyph-name="underscore" unicode="_" horiz-adv-x="488" 
d="M53 40h383v-42h-383v42z" />
    <glyph glyph-name="braceleft" unicode="{" horiz-adv-x="348" 
d="M53 229q30 3 47 16.5t25.5 37.5t10.5 58t2 77q0 39 3.5 71.5t15.5 56t36 36t66 12.5h36v-48h-26q-25 0 -41 -6.5t-25.5 -21.5t-13 -40t-3.5 -62q0 -45 -2 -78.5t-9 -58.5t-21 -42.5t-38 -29.5q24 -12 38 -30t21 -43.5t9 -59.5t2 -79q0 -37 3.5 -61t13 -38t25.5 -19.5
t41 -5.5h26v-47h-36q-42 0 -66 11.5t-36 33.5t-15.5 53.5t-3.5 71.5q0 43 -2 77.5t-10.5 58.5t-25.5 37.5t-47 15.5v46z" />
    <glyph glyph-name="bar" unicode="|" horiz-adv-x="172" 
d="M111 -176h-50v770h50v-770z" />
    <glyph glyph-name="braceright" unicode="}" horiz-adv-x="348" 
d="M295.003 229q-29.998 3 -46.9971 16.5t-25.498 37.5q-8.5 24 -10.5 58q-1.99902 34 -1.99902 77q0 39 -3.5 71.5t-15.499 56t-35.998 36q-23.998 12.5 -65.9961 12.5h-35.998v-48h25.999q24.998 0 40.9971 -6.5t25.499 -21.5q9.49902 -15 12.999 -40t3.5 -62
q0 -45 2 -78.5q1.99902 -33.5 8.99902 -58.5q6.99902 -25 20.999 -42.5q13.999 -17.5 37.9971 -29.5q-23.998 -12 -37.9971 -30q-14 -18 -20.999 -43.5q-7 -25.5 -8.99902 -59.5q-2 -34 -2 -79q0 -37 -3.5 -61t-12.999 -38q-9.5 -14 -25.499 -19.5t-40.9971 -5.5h-25.999
v-47h35.998q41.998 0 65.9961 11.5q23.999 11.5 35.998 33.5t15.499 53.5t3.5 71.5q0 43 1.99902 77.5q2 34.5 10.5 58.5q8.49902 24 25.498 37.5t46.9971 15.5v46z" />
    <glyph glyph-name="nonbreakingspace" unicode="&#xa0;" horiz-adv-x="153" 
 />
    <glyph glyph-name="brokenbar" unicode="&#xa6;" horiz-adv-x="172" 
d="M111 280h-50v314h50v-314zM111 -176h-50v313h50v-313z" />
    <glyph glyph-name="guillemotleft" unicode="&#xab;" horiz-adv-x="396" 
d="M101 205q0 -36 3.5 -67.5t13.5 -62t28 -62.5t48 -68l-30 -28q-36 39 -57.5 76.5t-33.5 74t-16 71.5t-4 70t4 70t16 71.5t33.5 74t57.5 76.5l30 -28q-30 -36 -48 -68t-28 -63.5t-13.5 -64.5t-3.5 -72zM250 205q0 -36 3.5 -67.5t13.5 -62t28 -62.5t48 -68l-30 -28
q-36 39 -57.5 76.5t-33.5 74t-16 71.5t-4 70t4 70t16 71.5t33.5 74t57.5 76.5l30 -28q-30 -36 -48 -68t-28 -63.5t-13.5 -64.5t-3.5 -72z" />
    <glyph glyph-name="logicalnot" unicode="&#xac;" horiz-adv-x="507" 
d="M408 275h-355v47h402v-261h-47v214z" />
    <glyph glyph-name="softHyphen" unicode="&#xad;" horiz-adv-x="446" 
d="M53 154v49h341v-49h-341z" />
    <glyph glyph-name="degree" unicode="&#xb0;" horiz-adv-x="358" 
d="M53 473q0 26 10 49t27 40t40 27t49 10t49 -10t40 -27t27 -40t10 -49t-10 -49t-27 -40t-40 -27t-49 -10t-49 10t-40 27t-27 40t-10 49zM93 473q0 -18 7 -33.5t18.5 -27t27 -18t33.5 -6.5q35 0 60 25t25 60q0 36 -25 60.5t-60 24.5t-60.5 -24.5t-25.5 -60.5z" />
    <glyph glyph-name="plusminus" unicode="&#xb1;" horiz-adv-x="507" 
d="M53 1v48h402v-48h-402zM53 318v47h180v173h46v-173h176v-47h-176v-172h-46v172h-180z" />
    <glyph glyph-name="paragraph" unicode="&#xb6;" horiz-adv-x="426" 
d="M365 0h-47v555h-98v-555h-45v342q-35 0 -58.5 4t-37.5 16.5t-20 37t-6 66.5q0 41 6 66.5t20 39t38 18t59 4.5h189v-594z" />
    <glyph glyph-name="periodcentered" unicode="&#xb7;" horiz-adv-x="286" 
d="M126 198q-22 0 -31 11.5t-9 34.5q0 24 9 35t31 11q21 0 30 -11t9 -35q0 -23 -9 -34.5t-30 -11.5z" />
    <glyph glyph-name="guillemotright" unicode="&#xbb;" horiz-adv-x="396" 
d="M146.006 205q0 -36 -3.49902 -67.5q-3.5 -31.5 -13.5 -62q-9.99902 -30.5 -27.998 -62.5t-47.9971 -68l29.998 -28q35.998 39 57.4971 76.5q21.498 37.5 33.498 74q11.999 36.5 15.999 71.5q3.99902 35 3.99902 70t-3.99902 70q-4 35 -15.999 71.5q-12 36.5 -33.498 74
q-21.499 37.5 -57.4971 76.5l-29.998 -28q29.998 -36 47.9971 -68t27.998 -63.5q10 -31.5 13.5 -64.5q3.49902 -33 3.49902 -72zM295.006 205q0 -36 -3.49902 -67.5q-3.5 -31.5 -13.5 -62q-9.99902 -30.5 -27.998 -62.5t-47.9971 -68l29.998 -28q35.998 39 57.4971 76.5
q21.498 37.5 33.498 74q11.999 36.5 15.999 71.5q3.99902 35 3.99902 70t-3.99902 70q-4 35 -15.999 71.5q-12 36.5 -33.498 74q-21.499 37.5 -57.4971 76.5l-29.998 -28q29.998 -36 47.9971 -68t27.998 -63.5q10 -31.5 13.5 -64.5q3.49902 -33 3.49902 -72z" />
    <glyph glyph-name="multiply" unicode="&#xd7;" horiz-adv-x="464" 
d="M53 347l32 34l147 -146l144 145l33 -33l-145 -145l147 -146l-34 -34l-147 147l-145 -146l-32 33l145 145z" />
    <glyph glyph-name="divide" unicode="&#xf7;" horiz-adv-x="507" 
d="M217 70h73v-70h-73v70zM217 460h73v-70h-73v70zM53 206v48h402v-48h-402z" />
    <glyph glyph-name="darhezar" unicode="&#x609;" horiz-adv-x="1036" 
d="M856 210q25 0 48 -11t40.5 -28.5t28 -40t10.5 -45.5q0 -24 -10.5 -46.5t-28 -40t-40.5 -28t-48 -10.5t-47.5 10.5t-40 28t-28 40t-10.5 46.5q0 23 10.5 45.5t28 40t40 28.5t47.5 11zM856 4q16 0 31 6.5t27 18t19 26t7 30.5q0 15 -7 30t-19 26.5t-27 18.5t-31 7
q-15 0 -30 -7t-27 -18.5t-19.5 -26.5t-7.5 -30q0 -16 7.5 -30.5t19.5 -26t27 -18t30 -6.5zM535 210q25 0 48 -11t40.5 -28.5t28 -40t10.5 -45.5q0 -24 -10.5 -46.5t-28 -40t-40.5 -28t-48 -10.5t-47.5 10.5t-40 28t-28 40t-10.5 46.5q0 23 10.5 45.5t28 40t40 28.5t47.5 11z
M535 4q15 0 30 6.5t27 18t19 26t7 30.5q0 15 -7 30t-19 26.5t-27 18.5t-30 7t-30 -7t-27 -18.5t-19.5 -26.5t-7.5 -30q0 -16 7.5 -30.5t19.5 -26t27 -18t30 -6.5zM179 286q-24 0 -47 10.5t-40.5 28t-28 40t-10.5 46.5q0 23 10.5 45.5t28 40t40.5 28t47 10.5q25 0 48 -10.5
t40.5 -28t28 -40t10.5 -45.5q0 -24 -10.5 -46.5t-28 -40t-40.5 -28t-48 -10.5zM179 492q-15 0 -30 -7t-27 -18t-19.5 -26t-7.5 -30q0 -16 7.5 -30.5t19.5 -26t27 -18.5t30 -7q16 0 31 7t27 18.5t19 26t7 30.5q0 15 -7 30t-19 26t-27 18t-31 7zM535 572l39 -25l-394 -624
l-39 26z" />
    <glyph glyph-name="darDahezar" unicode="&#x60a;" horiz-adv-x="1357" 
d="M1177 210q25 0 48 -11t40.5 -28.5t28 -40t10.5 -45.5q0 -24 -10.5 -46.5t-28 -40t-40.5 -28t-48 -10.5q-24 0 -47 10.5t-40.5 28t-28 40t-10.5 46.5q0 23 10.5 45.5t28 40t40.5 28.5t47 11zM1177 4q16 0 31 6.5t27 18t19 26t7 30.5q0 15 -7 30t-19 26.5t-27 18.5t-31 7
q-15 0 -30 -7t-27 -18.5t-19 -26.5t-7 -30q0 -16 7 -30.5t19 -26t27 -18t30 -6.5zM856 210q25 0 48 -11t40.5 -28.5t28 -40t10.5 -45.5q0 -24 -10.5 -46.5t-28 -40t-40.5 -28t-48 -10.5t-47.5 10.5t-40 28t-28 40t-10.5 46.5q0 23 10.5 45.5t28 40t40 28.5t47.5 11zM856 4
q16 0 31 6.5t27 18t19 26t7 30.5q0 15 -7 30t-19 26.5t-27 18.5t-31 7q-15 0 -30 -7t-27 -18.5t-19.5 -26.5t-7.5 -30q0 -16 7.5 -30.5t19.5 -26t27 -18t30 -6.5zM535 210q25 0 48 -11t40.5 -28.5t28 -40t10.5 -45.5q0 -24 -10.5 -46.5t-28 -40t-40.5 -28t-48 -10.5
t-47.5 10.5t-40 28t-28 40t-10.5 46.5q0 23 10.5 45.5t28 40t40 28.5t47.5 11zM535 4q15 0 30 6.5t27 18t19 26t7 30.5q0 15 -7 30t-19 26.5t-27 18.5t-30 7t-30 -7t-27 -18.5t-19.5 -26.5t-7.5 -30q0 -16 7.5 -30.5t19.5 -26t27 -18t30 -6.5zM179 286q-24 0 -47 10.5
t-40.5 28t-28 40t-10.5 46.5q0 23 10.5 45.5t28 40t40.5 28t47 10.5q25 0 48 -10.5t40.5 -28t28 -40t10.5 -45.5q0 -24 -10.5 -46.5t-28 -40t-40.5 -28t-48 -10.5zM179 492q-15 0 -30 -7t-27 -18t-19.5 -26t-7.5 -30q0 -16 7.5 -30.5t19.5 -26t27 -18.5t30 -7q16 0 31 7
t27 18.5t19 26t7 30.5q0 15 -7 30t-19 26t-27 18t-31 7zM535 572l39 -25l-394 -624l-39 26z" />
    <glyph glyph-name="virgul" unicode="&#x60c;" horiz-adv-x="207" 
d="M104 0q-22 0 -31 11.5t-9 36.5q0 46 2 74.5t9.5 44.5t23 23.5t42.5 13.5v-37q-15 -4 -23.5 -8t-12.5 -11.5t-5 -20.5t-1 -35q25 0 34.5 -10.5t9.5 -35.5q0 -23 -9 -34.5t-30 -11.5z" />
    <glyph glyph-name="tarikh.sep" unicode="&#x60d;" horiz-adv-x="392" 
d="M291 281l40 -27l-230 -364l-40 27z" />
    <glyph glyph-name="noqte_virgul" unicode="&#x61b;" horiz-adv-x="207" 
d="M104 242q-22 0 -31 11.5t-9 36.5q0 46 2 74.5t9.5 44.5t23 23.5t42.5 13.5v-37q-15 -4 -23.5 -8t-12.5 -11.5t-5 -20.5t-1 -35q25 0 34.5 -10.5t9.5 -35.5q0 -23 -9 -34.5t-30 -11.5zM104 0q-22 0 -31 11.5t-9 34.5q0 24 9 35t31 11q21 0 30 -11t9 -35q0 -23 -9 -34.5
t-30 -11.5z" />
    <glyph glyph-name="soal" unicode="&#x61f;" horiz-adv-x="417" 
d="M305 422q0 26 -5 49.5t-16.5 41t-30.5 28t-47 10.5q-20 0 -37 -7.5t-30 -20t-20 -29.5t-7 -36q0 -32 16 -55t41 -48q22 -22 35.5 -38t20.5 -34t9.5 -42t2.5 -63h-49q0 33 -1.5 52t-7.5 33.5t-17.5 27.5t-30.5 33q-26 27 -46.5 58t-20.5 75q0 33 12 59.5t31.5 45t45.5 29
t53 10.5q38 0 65.5 -13t45.5 -36.5t26.5 -56.5t8.5 -73h-47zM209 0q-20 0 -28.5 10t-8.5 32q0 24 8.5 34t28.5 10t29 -10t9 -34q0 -42 -38 -42z" />
    <glyph glyph-name="kashidas" unicode="&#x640;" horiz-adv-x="165" 
d="M165 53q13 0 17.5 -7t4.5 -19q0 -14 -4.5 -20.5t-17.5 -6.5h-165q-13 0 -17.5 6.5t-4.5 18.5q0 14 4.5 21t17.5 7h165z" />
    <glyph glyph-name=".an" unicode="&#x64b;" 
d="M108 128l13 -32l-227 -96l-13 32zM107 251l13 -32l-227 -96l-13 32z" />
    <glyph glyph-name=".on" unicode="&#x64c;" 
d="M2 83q-31 17 -44 41.5t-13 46.5q0 19 7 37t20 31.5t30.5 21.5t38.5 8q42 0 68.5 -27.5t26.5 -67.5q0 -32 -20 -59.5t-72 -49.5l-155 -65l-14 30v89q0 22 -19 22h-43v33h52q18 0 29 -10t11 -35v-85zM-23 172q0 -23 16.5 -43.5t42.5 -31.5q26 10 46.5 28t20.5 45
q0 25 -16 45.5t-46 20.5q-33 0 -48.5 -21t-15.5 -43z" />
    <glyph glyph-name=".en" unicode="&#x64d;" 
d="M108 -123l13 -32l-227 -96l-13 32zM107 1l13 -32l-227 -96l-13 32z" />
    <glyph glyph-name=".a" unicode="&#x64e;" 
d="M107 128l13 -32l-227 -96l-13 32z" />
    <glyph glyph-name=".o" unicode="&#x64f;" 
d="M-131 32l127 51q-31 17 -44 41.5t-13 46.5q0 19 7 37t20 31.5t30.5 21.5t38.5 8q42 0 68 -27.5t26 -67.5q0 -32 -19.5 -59.5t-71.5 -49.5l-155 -65zM-29 172q0 -23 16.5 -43.5t42.5 -31.5q26 10 46.5 28t20.5 45q0 25 -16 45.5t-46 20.5q-33 0 -48.5 -21t-15.5 -43z" />
    <glyph glyph-name=".e" unicode="&#x650;" 
d="M107 1l13 -32l-227 -96l-13 32z" />
    <glyph glyph-name=".shdd" unicode="&#x651;" 
d="M0 13q-14 -13 -30 -13h-28q-13 0 -29.5 4t-31 16.5t-24.5 36t-10 62.5v63h35v-76q0 -41 18.5 -56.5t46.5 -15.5h36v148h34v-148h36q28 0 46.5 15.5t18.5 56.5v76h34v-63q0 -39 -10 -62.5t-24.5 -36t-31 -16.5t-29.5 -4h-27q-10 0 -16 3t-14 10z" />
    <glyph glyph-name=".skn" unicode="&#x652;" 
d="M-105 104q0 22 8.5 41t22.5 33t33.5 22t40.5 8q22 0 41 -8t33 -22t22.5 -33t8.5 -41t-8.5 -41t-22.5 -33t-33 -22t-41 -8q-21 0 -40.5 8t-33.5 22t-22.5 33t-8.5 41zM-71 104q0 -29 21 -49.5t50 -20.5t49.5 20.5t20.5 49.5t-20.5 50t-49.5 21t-50 -21t-21 -50z" />
    <glyph glyph-name=".mad" unicode="&#x653;" 
d="M-15 75q-18 0 -30 -2t-22.5 -9.5t-22 -22.5t-29.5 -41l-24 16q20 32 34 51t27.5 28.5t29 12t39.5 2.5h155l-5 -35h-152z" />
    <glyph glyph-name=".thmz" unicode="&#x654;" 
d="M101 88l-185 -94l-16 31l73 36q-35 7 -50.5 33t-15.5 53q0 42 26 68t68 26h47l-5 -35h-35q-32 0 -49.5 -18t-17.5 -43q0 -28 19.5 -44.5t42.5 -16.5q15 0 36.5 10t48.5 24z" />
    <glyph glyph-name=".bhmz" unicode="&#x655;" 
d="M101 -152l-185 -94l-16 31l73 36q-35 7 -50.5 33t-15.5 53q0 42 26 68t68 26h47l-5 -35h-35q-32 0 -49.5 -18t-17.5 -43q0 -28 19.5 -44.5t42.5 -16.5q15 0 36.5 10t48.5 24z" />
    <glyph glyph-name=".i" unicode="&#x656;" 
d="M-17 0h34v-171h-34v171z" />
    <glyph glyph-name="sefr.arab" unicode="&#x660;" horiz-adv-x="455" 
d="M227 390q33 0 64.5 -14.5t56 -38t39.5 -54.5t15 -64t-15 -63.5t-39.5 -54.5t-56 -38t-64.5 -14t-64.5 14t-55.5 38t-39 54.5t-15 63.5t15 64t39 54.5t55.5 38t64.5 14.5zM227 97q23 0 45.5 10t40.5 26.5t29.5 38.5t11.5 47q0 23 -11.5 45t-29.5 39t-40.5 27.5t-45.5 10.5
t-45.5 -10.5t-40.5 -27.5t-29 -39t-11 -45q0 -25 11 -47t29 -38.5t40.5 -26.5t45.5 -10z" />
    <glyph glyph-name="yek.arab" unicode="&#x661;" horiz-adv-x="203" 
d="M93 -61v243q0 60 -4 105.5t-10.5 84t-15.5 73t-19 70.5l48 18q13 -41 22.5 -78t15.5 -77t9 -86.5t3 -104.5v-248h-49z" />
    <glyph glyph-name="do.arab" unicode="&#x662;" horiz-adv-x="415" 
d="M228 247q-28 0 -52 10.5t-38 35.5q2 -24 3 -53t1 -57v-244h-49v243q0 60 -4 105.5t-10.5 84t-15.5 73t-19 70.5l48 18q7 -27 12.5 -47.5t10 -38t8.5 -34t10 -35.5q11 -37 32.5 -58t58.5 -21q17 0 33 5.5t29 15.5t20.5 25t7.5 35q0 26 -4.5 63.5t-12.5 79.5l49 10
q8 -37 12.5 -75.5t4.5 -73.5q0 -31 -10.5 -56.5t-29 -43.5t-43 -27.5t-52.5 -9.5z" />
    </font>
</defs>
</svg>
