
<svg width="15px" height="14px" viewBox="0 0 15 14" version="1.1" xmlns="http://www.w3.org/2000/svg" xmlns:xlink="http://www.w3.org/1999/xlink">
    <defs>
        <polygon id="path-1" points="2.67857143e-05 0 15 0 15 10.9821429 2.67857143e-05 10.9821429"></polygon>
    </defs>
    <g id="Page-1" stroke="none" stroke-width="1" fill="none" fill-rule="evenodd">
        <g id="submit-post" transform="translate(-105.000000, -813.000000)">
            <g id="Group-9" transform="translate(60.000000, 196.000000)">
                <g id="Group-4-Copy" transform="translate(0.000000, 288.000000)">
                    <g id="Group-12" transform="translate(33.000000, 39.000000)">
                        <g id="Group-7" transform="translate(-13.000000, 279.000000)">
                            <g id="Group" transform="translate(25.000000, 11.000000)">
                                <g id="Group-8">
                                    <path d="M6.02533929,5.13993292e-11 L8.97458036,5.13993292e-11 C9.57280838,5.13993292e-11 10.1167169,0.331965342 10.3927848,0.853478445 L10.4560982,0.987723214 L11.0990268,2.532 L12.2108304,2.53246753 C13.6942232,2.53246753 14.9071267,3.6904305 14.9949365,5.15163268 L15.0000268,5.32153003 L15.0000268,10.7255479 C15.0000268,12.2088118 13.8420638,13.4217104 12.3807421,13.5095201 L12.2108304,13.5146104 L2.78908929,13.5146104 C1.30569643,13.5146104 0.0929171811,12.3566474 0.00511651376,10.8954452 L2.67857686e-05,10.7255479 L2.67857686e-05,5.32153003 C2.67857686e-05,3.83826614 1.15786556,2.62536748 2.61917813,2.53755779 L2.78908929,2.53246753 L3.90002679,2.532 L4.54382143,0.987723214 C4.77376648,0.43560783 5.28945964,0.0611720732 5.87706384,0.0068335271 L6.02533929,5.13993292e-11 L8.97458036,5.13993292e-11 Z M7.50002679,3.42536932 C4.96047321,3.42536932 2.90172321,5.48398539 2.90172321,8.02353896 C2.90172321,10.5630925 4.96047321,12.6217086 7.50002679,12.6217086 C10.0395804,12.6217086 12.0981964,10.5630925 12.0981964,8.02353896 C12.0981964,5.48398539 10.0395804,3.42536932 7.50002679,3.42536932 Z M7.54463834,4.82142857 C9.31319701,4.82142857 10.7467487,6.25498025 10.7467487,8.02353891 C10.7467487,9.79209758 9.31319701,11.2256493 7.54463834,11.2256493 C5.77607968,11.2256493 4.342528,9.79209758 4.342528,8.02353891 C4.342528,6.25498025 5.77607968,4.82142857 7.54463834,4.82142857 Z" id="Combined-Shape" fill="#FFFFFF"></path>
                                    <g id="Group-5" transform="translate(0.000000, 2.532468)">
                                        <mask id="mask-2" fill="white">
                                            <use xlink:href="#path-1"></use>
                                        </mask>
                                        <g id="Clip-4"></g>
                                    </g>
                                </g>
                            </g>
                        </g>
                    </g>
                </g>
            </g>
        </g>
    </g>
</svg>