<svg xmlns="http://www.w3.org/2000/svg" width="34.369" height="34.368" viewBox="0 0 34.369 34.368"><g transform="translate(0 0)"><path d="M17.184,34.368a1.409,1.409,0,0,1-.944-.362l-3.694-3.325c-7.28-.332-10.085-1.379-10.2-1.424a1.411,1.411,0,0,1-.814-.806C1.469,28.294,0,24.495,0,17.184S1.469,6.074,1.532,5.916a1.411,1.411,0,0,1,.814-.806,21.185,21.185,0,0,1,4.173-.893,13.44,13.44,0,0,1,.6-2.437A1.41,1.41,0,0,1,7.937.975C9.518.373,13.078,0,17.229,0s7.72.373,9.3.975a1.41,1.41,0,0,1,.814.806,13.551,13.551,0,0,1,.608,2.452,21.245,21.245,0,0,1,4.072.878,1.416,1.416,0,0,1,.815.806c.063.16,1.532,4.013,1.532,11.268,0,7.311-1.469,11.111-1.532,11.269a1.415,1.415,0,0,1-.815.806c-.116.044-2.92,1.092-10.2,1.424l-3.694,3.325A1.412,1.412,0,0,1,17.184,34.368ZM6.2,7.121h0c-1.073.172-1.809.341-2.238.452a41.382,41.382,0,0,0,0,19.222,45.543,45.543,0,0,0,9.211,1.089,1.41,1.41,0,0,1,.888.361l3.127,2.813,3.126-2.813a1.41,1.41,0,0,1,.888-.361,45.524,45.524,0,0,0,9.211-1.089,41.37,41.37,0,0,0,0-19.222C30,7.467,29.3,7.306,28.27,7.137c.155,2.751-.07,6.712-.927,8.906a1.411,1.411,0,0,1-.813.806,22.643,22.643,0,0,1-6.231.9l-2.12,1.914a1.412,1.412,0,0,1-1.892,0l-2.12-1.914a22.554,22.554,0,0,1-6.23-.9,1.411,1.411,0,0,1-.814-.806c-.86-2.2-1.083-6.169-.926-8.922Zm11.036-4.3a38.491,38.491,0,0,0-7.67.629,25.559,25.559,0,0,0,0,10.924,29.764,29.764,0,0,0,5.231.58,1.414,1.414,0,0,1,.889.363l1.551,1.4,1.551-1.4a1.415,1.415,0,0,1,.89-.363,29.781,29.781,0,0,0,5.229-.58,25.567,25.567,0,0,0,0-10.924A38.489,38.489,0,0,0,17.234,2.82Z" transform="translate(0 0)" fill="#52c0ef"/></g></svg>