<svg xmlns="http://www.w3.org/2000/svg" width="23.974" height="23.981" viewBox="0 0 23.974 23.981"><g transform="translate(-0.001 0)"><path d="M11.961,23.981h0a11.833,11.833,0,0,1-5.328-1.269L1.2,23.947a1,1,0,0,1-.222.025.986.986,0,0,1-.957-1.2l1.235-5.43a11.986,11.986,0,1,1,22.71-5.352A11.818,11.818,0,0,1,20.317,20.6a12.143,12.143,0,0,1-3.834,2.486A11.927,11.927,0,0,1,11.961,23.981ZM9.75,17.006a.985.985,0,0,1,.984.985A4.744,4.744,0,0,1,9.1,21.577a10.09,10.09,0,0,0,2.9.43,10.018,10.018,0,0,0-.012-20.037,10.033,10.033,0,0,0-8.82,14.767.981.981,0,0,1,.094.686l-.967,4.257,4.27-.971a2.791,2.791,0,0,0,2.2-2.719A.986.986,0,0,1,9.75,17.006Z" transform="translate(0.006 0)" fill="#52c0ef"/><path d="M10.984,0h-10a.984.984,0,0,0,0,1.969h10a.984.984,0,0,0,0-1.969Z" transform="translate(6.007 9.003)" fill="#52c0ef"/><path d="M8.484,0H.984a.984.984,0,0,0,0,1.969h7.5A.984.984,0,0,0,8.484,0Z" transform="translate(6.007 13.003)" fill="#52c0ef"/></g></svg>