<svg xmlns="http://www.w3.org/2000/svg" width="24" height="26.182" viewBox="0 0 24 26.182"><path d="M20.727,26.182H3.272a1.092,1.092,0,0,1-1.091-1.091V6.546H1.091a1.091,1.091,0,0,1,0-2.182h6V1.091A1.092,1.092,0,0,1,8.182,0h7.636a1.092,1.092,0,0,1,1.091,1.091V4.363h6a1.091,1.091,0,0,1,0,2.182H21.818V8.727a1.091,1.091,0,1,1-2.182,0V6.546H4.363V24H19.636V13.09a1.091,1.091,0,1,1,2.182,0v12A1.092,1.092,0,0,1,20.727,26.182Zm-11.454-24V4.363h5.455V2.182Z" fill="#a7adb3"/><path d="M0,1.091V6.545a1.091,1.091,0,0,0,2.182,0V1.091A1.091,1.091,0,0,0,0,1.091Z" transform="translate(7.636 11.455)" fill="#a7adb3"/><path d="M0,1.091V6.545a1.091,1.091,0,0,0,2.182,0V1.091A1.091,1.091,0,0,0,0,1.091Z" transform="translate(14.182 11.455)" fill="#a7adb3"/></svg>