<svg xmlns="http://www.w3.org/2000/svg" width="34" height="34" viewBox="0 0 34 34"><g transform="translate(0 0)"><path d="M17,34h0a1.376,1.376,0,0,1-1.4-1.477,15.573,15.573,0,0,1-11.352-6.55,1.591,1.591,0,0,1-.8.23,1.4,1.4,0,0,1-.6-2.648A15.457,15.457,0,0,1,1.477,18.4a1.4,1.4,0,1,1,0-2.794A15.568,15.568,0,0,1,8.027,4.252,1.407,1.407,0,0,1,7.972,2.8a1.46,1.46,0,0,1,1.245-.718,1.4,1.4,0,0,1,1.227.77A15.457,15.457,0,0,1,15.6,1.477a1.4,1.4,0,1,1,2.794,0,15.564,15.564,0,0,1,11.351,6.55,1.592,1.592,0,0,1,.8-.23,1.4,1.4,0,0,1,.6,2.648A15.457,15.457,0,0,1,32.523,15.6a1.4,1.4,0,1,1,0,2.794,15.57,15.57,0,0,1-6.55,11.351A1.405,1.405,0,0,1,26.03,31.2a1.462,1.462,0,0,1-1.247.717,1.4,1.4,0,0,1-1.227-.766A15.457,15.457,0,0,1,18.4,32.523,1.376,1.376,0,0,1,17,34ZM20.7,26.195a9.833,9.833,0,0,1-2.3.616v2.9a12.665,12.665,0,0,0,3.75-1.006ZM9.205,23.113,6.691,24.565A12.83,12.83,0,0,0,15.6,29.715v-2.9A9.869,9.869,0,0,1,9.205,23.113ZM26.811,18.4a9.869,9.869,0,0,1-3.7,6.4l1.452,2.514A12.826,12.826,0,0,0,29.715,18.4ZM17,9.884A7.116,7.116,0,1,0,24.116,17,7.124,7.124,0,0,0,17,9.884ZM4.284,18.4a12.719,12.719,0,0,0,1.006,3.75L7.806,20.7a9.793,9.793,0,0,1-.617-2.3H4.284Zm24.425-6.545L26.195,13.3a9.835,9.835,0,0,1,.616,2.3h2.9A12.68,12.68,0,0,0,28.709,11.852ZM9.436,6.691A12.834,12.834,0,0,0,4.284,15.6H7.189a9.871,9.871,0,0,1,3.7-6.4ZM18.4,4.284V7.189a9.872,9.872,0,0,1,6.4,3.7l2.514-1.451A12.831,12.831,0,0,0,18.4,4.284Zm-2.794,0A12.733,12.733,0,0,0,11.852,5.29L13.3,7.806a9.813,9.813,0,0,1,2.3-.617V4.284Z" transform="translate(0 0)" fill="#fff"/></g></svg>