<svg xmlns="http://www.w3.org/2000/svg" width="23.996" height="24" viewBox="0 0 23.996 24"><g transform="translate(0 0)"><path d="M8.991,24a.979.979,0,0,1-.518-.15L.463,18.844A.979.979,0,0,1,0,18.009C0,12.645,0,8.963,0,6.434V6.246C0,.891,0,.891.005.884s0,0,0-.007A.991.991,0,0,1,.679.054L.707.043A18.787,18.787,0,0,1,3.6,0H6.593c2.173,0,5.163,0,9.285,0a2.114,2.114,0,0,1,2.111,2.111V3.993a.986.986,0,1,1-1.971,0V2.116a.141.141,0,0,0-.14-.14H4.423L9.517,5.16a.979.979,0,0,1,.463.835V17.023h5.9a.141.141,0,0,0,.14-.141V12a.986.986,0,0,1,1.971,0v4.881a2.114,2.114,0,0,1-2.111,2.112H9.98v4.019A.99.99,0,0,1,8.991,24ZM1.972,2.768v14.7L8.01,21.236V6.541Z" transform="translate(0 0)" fill="#fff"/><path d="M.985,0A.985.985,0,0,0,0,.985v1a.985.985,0,1,0,1.971,0v-1A.986.986,0,0,0,.985,0Z" transform="translate(5.006 10.516)" fill="#fff"/><path d="M6.976.985A.985.985,0,0,0,5.991,0H.985a.985.985,0,0,0,0,1.971H5.991A.985.985,0,0,0,6.976.985Z" transform="translate(13.015 7.012)" fill="#fff"/><path d="M.394,5.778a.985.985,0,0,0,1.38-.2l1.5-2a.985.985,0,0,0,0-1.183l-1.5-2A.985.985,0,0,0,.2,1.577L1.255,2.988.2,4.4A.986.986,0,0,0,.394,5.778Z" transform="translate(20.523 5.01)" fill="#fff"/><path d="M3.488,0H.985a.985.985,0,0,0,0,1.971h2.5A.985.985,0,0,0,3.488,0Z" transform="translate(19.522 13.019)" fill="#fff"/></g></svg>