<svg xmlns="http://www.w3.org/2000/svg" width="24.308" height="24.309" viewBox="0 0 24.308 24.309"><g transform="translate(0 0)"><path d="M23.295,0a1.013,1.013,0,0,0-1.013,1.013v8.1H11.141a1.01,1.01,0,0,0-.7.28l-5.379,5.12V10.128A1.013,1.013,0,0,0,4.051,9.115H2.026v-8.1A1.013,1.013,0,0,0,0,1.013v8.1a2.028,2.028,0,0,0,2.026,2.026H3.038V15.7a1.5,1.5,0,0,0,.885,1.38,1.524,1.524,0,0,0,.639.141,1.507,1.507,0,0,0,.985-.369l.039-.035,5.96-5.674H22.282a2.028,2.028,0,0,0,2.026-2.026v-8.1A1.013,1.013,0,0,0,23.295,0Z" transform="translate(0 7.09)" fill="#a7adb3"/><path d="M4.767.3A1.013,1.013,0,0,0,3.335.3L.3,3.335a1.013,1.013,0,0,0,0,1.432L3.335,7.806A1.013,1.013,0,0,0,4.767,6.374L3.6,5.21a9.124,9.124,0,0,1,7.537,8.969,1.013,1.013,0,0,0,2.026,0A11.155,11.155,0,0,0,3.374,3.123L4.767,1.729A1.013,1.013,0,0,0,4.767.3Z" transform="translate(4.051 0)" fill="#a7adb3"/></g></svg>