<svg xmlns="http://www.w3.org/2000/svg" width="16.875" height="24" viewBox="0 0 16.875 24"><path d="M15.937,24h-15A.939.939,0,0,1,0,23.063V2.672a.939.939,0,0,1,.938-.938H5v-.8a.938.938,0,0,1,1.876,0v.8H10v-.8a.937.937,0,1,1,1.875,0v.8h4.063a.939.939,0,0,1,.938.938v20.39A.939.939,0,0,1,15.937,24ZM1.875,3.609V22.125H15V3.609H11.875V4.5A.938.938,0,1,1,10,4.5V3.609H6.875V4.5A.937.937,0,1,1,5,4.5V3.609Zm10.313,15.75h-7.5a.937.937,0,0,1,0-1.875h7.5a.937.937,0,0,1,0,1.875Zm0-4.64h-7.5a.937.937,0,0,1,0-1.875h7.5a.937.937,0,0,1,0,1.875Zm0-4.64h-7.5a.937.937,0,0,1,0-1.875h7.5a.937.937,0,0,1,0,1.875Z" fill="#676f74"/></svg>