<svg xmlns="http://www.w3.org/2000/svg" width="100" height="78.873" viewBox="0 0 100 78.873"><path d="M50,78.873a193.565,193.565,0,0,1-30.294-2.789A12.011,12.011,0,0,1,0,66.964a11.708,11.708,0,0,1,2.541-7.324A141.431,141.431,0,0,1,1.049,40.68,205.907,205.907,0,0,1,2.513,19.2,11.718,11.718,0,0,1,0,11.911a12.012,12.012,0,0,1,19.733-9.1C24.868,1.973,37.979.023,48.8.023c11.689,0,26.911,2.244,31.3,2.931A12.015,12.015,0,0,1,100,11.91a11.837,11.837,0,0,1-3.064,7.944,164.718,164.718,0,0,1,1.93,20.8A102.727,102.727,0,0,1,97.081,59.19,11.882,11.882,0,0,1,88,78.872a12.053,12.053,0,0,1-7.842-2.9A194.5,194.5,0,0,1,50,78.873ZM18.863,70.054a3.282,3.282,0,0,1,.581.052A192.047,192.047,0,0,0,50,73.031c14.213,0,30.207-3,30.367-3.035l.163-.032.1-.007A3.227,3.227,0,0,1,83.419,71,6.182,6.182,0,0,0,88,73.03a6.113,6.113,0,0,0,6.144-6.067A6.046,6.046,0,0,0,92.1,62.454a3.235,3.235,0,0,1-1.023-3.047,99.88,99.88,0,0,0,1.933-18.7,162.365,162.365,0,0,0-2.064-21.266,3.205,3.205,0,0,1,1.085-2.953,6.035,6.035,0,0,0,2.114-4.576A6.113,6.113,0,0,0,88,5.843a6.183,6.183,0,0,0-4.6,2.049A3.237,3.237,0,0,1,80.992,8.97a3.293,3.293,0,0,1-.453-.031C80.354,8.908,61.861,5.865,48.8,5.865c-11.313,0-25.34,2.235-29.37,2.92A3.235,3.235,0,0,1,16.514,7.8,6.152,6.152,0,0,0,5.859,11.911a6,6,0,0,0,1.716,4.2,3.206,3.206,0,0,1,.892,2.646A210.354,210.354,0,0,0,6.908,40.68a135.539,135.539,0,0,0,1.6,19.267,3.231,3.231,0,0,1-.9,2.773,6,6,0,0,0-1.759,4.243A6.15,6.15,0,0,0,16.5,71.079,3.255,3.255,0,0,1,18.863,70.054Z" fill="#d2dce3"/><path d="M21.144,40.141a3.605,3.605,0,0,1-2.13-.692C10.522,33.29,4.429,26.624,1.392,20.171A14.7,14.7,0,0,1,1,8.6,13.436,13.436,0,0,1,8.494.944a12.149,12.149,0,0,1,4.57-.929,12.79,12.79,0,0,1,8.072,3.134A12.709,12.709,0,0,1,29.2,0,12.126,12.126,0,0,1,33.76.928a13.433,13.433,0,0,1,7.492,7.651,14.691,14.691,0,0,1-.391,11.577c-3.1,6.585-9.015,13.076-17.586,19.292A3.6,3.6,0,0,1,21.144,40.141ZM13.069,5.854a6.343,6.343,0,0,0-2.385.474,7.67,7.67,0,0,0-4.26,4.385,8.869,8.869,0,0,0,.24,6.989c1.718,3.653,5.624,9.409,14.479,16.09C29.95,27.142,33.861,21.363,35.59,17.686A8.877,8.877,0,0,0,35.83,10.7a7.67,7.67,0,0,0-4.261-4.385A6.292,6.292,0,0,0,29.2,5.84a7.09,7.09,0,0,0-5.337,2.744,3.622,3.622,0,0,1-2.709,1.225h-.008A3.625,3.625,0,0,1,18.435,8.6,7.157,7.157,0,0,0,13.069,5.854Z" transform="translate(28.873 19.014)" fill="#d2dce3"/></svg>