<svg xmlns="http://www.w3.org/2000/svg" width="33.933" height="29.704" viewBox="0 0 33.933 29.704"><g transform="translate(0 -0.056)"><path d="M32.539,29.7a1.4,1.4,0,0,1-1.394-1.4,6.4,6.4,0,0,0-12.8,0,1.395,1.395,0,1,1-2.79,0,9.139,9.139,0,0,1,3.538-7.24L13.9,15.878a1.793,1.793,0,0,0-2.535,2.536,1.386,1.386,0,0,1,.409.986,1.406,1.406,0,0,1-1.409,1.4,1.352,1.352,0,0,1-.972-.41,1.793,1.793,0,1,0-2.536,2.535,1.395,1.395,0,1,1-1.972,1.973l-.752-.751A14.147,14.147,0,0,1,24.143,4.136l.752.752a1.395,1.395,0,0,1-1.973,1.973A1.793,1.793,0,0,0,20.387,9.4a1.395,1.395,0,0,1-1.973,1.973A1.793,1.793,0,1,0,15.878,13.9L19.9,17.93a4.941,4.941,0,0,1,4.844-5.892A4.832,4.832,0,0,1,29.168,14.8a4.9,4.9,0,0,1-.519,5.193,9.233,9.233,0,0,1,3.813,3.333,9.139,9.139,0,0,1,1.472,4.983A1.4,1.4,0,0,1,32.539,29.7ZM14.14,2.788A11.362,11.362,0,0,0,4.1,19.459a4.6,4.6,0,0,1,3.954-2.387,4.561,4.561,0,0,1,4.508-4.506,4.558,4.558,0,0,1,4.506-4.508A4.6,4.6,0,0,1,19.459,4.1,11.415,11.415,0,0,0,14.14,2.788ZM24.746,14.827a2.147,2.147,0,1,0,2.147,2.147A2.15,2.15,0,0,0,24.746,14.827Z" transform="translate(0 0.056)" fill="#52c0ef"/></g></svg>