<svg xmlns="http://www.w3.org/2000/svg" width="34" height="33.999" viewBox="0 0 34 33.999"><g transform="translate(0 0)"><path d="M25.511,34a4.238,4.238,0,0,1-3.981-5.674H13.888A4.229,4.229,0,0,1,6.11,31.618a4.2,4.2,0,0,1,.464-4.457,5.349,5.349,0,0,1-2.007-3.6c-.006-.05-.854-9.506-1.31-14.586L3.233,8.7,2.957,5.63H1.4a1.4,1.4,0,0,1,0-2.793H4.234A1.389,1.389,0,0,1,5.624,4.109l.4,4.4H8.511V4.943a1.4,1.4,0,0,1,1.4-1.4H14.2L16.619.524A1.391,1.391,0,0,1,17.709,0h4.255a1.391,1.391,0,0,1,1.377,1.166l.279,1.67h4.727a1.4,1.4,0,0,1,1.4,1.4V8.51H32.6a1.4,1.4,0,0,1,1.354,1.735L31.12,21.594a1.39,1.39,0,0,1-1.273,1.056L7.533,23.961a2.589,2.589,0,0,0,2.384,1.572H25.511a4.233,4.233,0,1,1,0,8.466Zm0-5.674a1.44,1.44,0,1,0,1.441,1.44A1.442,1.442,0,0,0,25.511,28.326Zm-15.6,0a1.44,1.44,0,1,0,1.441,1.44A1.442,1.442,0,0,0,9.907,28.326ZM6.27,11.3h0l.886,9.882,21.5-1.264L30.815,11.3H6.27ZM24.086,5.63l.48,2.881h2.386V5.63ZM18.381,2.793,16.34,5.343l.453,3.167h4.943l-.953-5.718ZM11.3,6.339V8.51h2.668l-.311-2.172Z" transform="translate(0 0)" fill="#52c0ef"/></g></svg>