<svg xmlns="http://www.w3.org/2000/svg" width="23.999" height="24" viewBox="0 0 23.999 24"><g transform="translate(-0.001 0)"><path d="M10.777,24a2.982,2.982,0,0,1-2.122-.879L.877,15.343a3,3,0,0,1,0-4.243L11.1.878a3,3,0,0,1,4.243,0L23.12,8.657a3,3,0,0,1,0,4.243L12.9,23.121A2.981,2.981,0,0,1,10.777,24ZM13.221,2a.993.993,0,0,0-.707.292L2.291,12.515a1,1,0,0,0,0,1.415l7.778,7.778a1.025,1.025,0,0,0,1.414,0L21.706,11.486a1,1,0,0,0,0-1.415L19.94,8.3l-3.819,3.818a1.057,1.057,0,0,1-.161.13,2.986,2.986,0,0,1-4.214-4.214,1,1,0,0,1,.131-.161L15.7,4.06,13.928,2.292A.993.993,0,0,0,13.221,2ZM14,9a1,1,0,1,0,.707.292A1,1,0,0,0,14,9Zm3.11-3.526h0L15.281,7.3A2.807,2.807,0,0,1,16.7,8.717L18.524,6.89,17.108,5.474Z" transform="translate(0.002)" fill="#fff"/></g></svg>
