<svg width="34" height="34" viewBox="0 0 34 34" fill="none" xmlns="http://www.w3.org/2000/svg">
<path d="M24.0831 9.91675H22.6664" stroke="#CDD9E0" stroke-width="1.5" stroke-linecap="round" stroke-linejoin="round"/>
<path d="M8.5 19.8333H9.91667" stroke="#CDD9E0" stroke-width="1.5" stroke-linecap="round" stroke-linejoin="round"/>
<path d="M14.1667 24.0834H7.79167C6.85236 24.0834 5.95152 23.7103 5.28733 23.0461C4.62314 22.3819 4.25 21.4811 4.25 20.5417V9.20841C4.25 8.26911 4.62314 7.36827 5.28733 6.70408C5.95152 6.03989 6.85236 5.66675 7.79167 5.66675H24.7917C25.731 5.66675 26.6318 6.03989 27.296 6.70408C27.9602 7.36827 28.3333 8.26911 28.3333 9.20841V14.1667" stroke="#CDD9E0" stroke-width="1.5" stroke-linecap="round" stroke-linejoin="round"/>
<path d="M14.1667 24.0834H7.79167C6.85236 24.0834 5.95152 23.7103 5.28733 23.0461C4.62314 22.3819 4.25 21.4811 4.25 20.5417V9.20841C4.25 8.26911 4.62314 7.36827 5.28733 6.70408C5.95152 6.03989 6.85236 5.66675 7.79167 5.66675H24.7917C25.731 5.66675 26.6318 6.03989 27.296 6.70408C27.9602 7.36827 28.3333 8.26911 28.3333 9.20841V14.1667" stroke="#CDD9E0" stroke-width="1.5" stroke-linecap="round" stroke-linejoin="round"/>
<path d="M13.7873 17.3793C13.1231 16.7151 12.75 15.8142 12.75 14.8749C12.75 13.9356 13.1231 13.0348 13.7873 12.3706C14.4515 11.7064 15.3524 11.3333 16.2917 11.3333C17.231 11.3333 18.1318 11.7064 18.796 12.3706" stroke="#CDD9E0" stroke-width="1.5" stroke-linecap="round" stroke-linejoin="round"/>
<path d="M24.7914 29.75C23.5306 29.75 22.298 29.3761 21.2497 28.6756C20.2013 27.9751 19.3842 26.9795 18.9017 25.8146C18.4192 24.6497 18.2929 23.3679 18.5389 22.1313C18.7849 20.8947 19.3921 19.7588 20.2836 18.8672C21.1752 17.9756 22.3111 17.3685 23.5477 17.1225C24.7843 16.8765 26.0661 17.0028 27.231 17.4853C28.3959 17.9678 29.3915 18.7849 30.092 19.8332C30.7925 20.8816 31.1664 22.1141 31.1664 23.375C31.1664 25.0658 30.4948 26.6873 29.2992 27.8828C28.1037 29.0784 26.4822 29.75 24.7914 29.75" stroke="#CDD9E0" stroke-width="1.5" stroke-linecap="round" stroke-linejoin="round"/>
<path d="M29.2992 27.8828L24.7914 23.3751V17.01" stroke="#CDD9E0" stroke-width="1.5" stroke-linecap="round" stroke-linejoin="round"/>
</svg>
