<svg width="24" height="24" viewBox="0 0 24 24" fill="none" xmlns="http://www.w3.org/2000/svg">
<path d="M17.09 21H6.90998C6.00798 21 5.21798 20.396 4.97998 19.526L3.07098 12.526C2.72498 11.254 3.68198 10 5.00098 10H18.999C20.318 10 21.276 11.254 20.929 12.526L19.02 19.526C18.782 20.396 17.992 21 17.09 21Z" stroke="white" stroke-width="1.5" stroke-linecap="round" stroke-linejoin="round"/>
<path d="M9.5 14.5V16.5" stroke="white" stroke-width="1.5" stroke-linecap="round" stroke-linejoin="round"/>
<path d="M14.5 14.5V16.5" stroke="white" stroke-width="1.5" stroke-linecap="round" stroke-linejoin="round"/>
<path d="M19 9.99999H18.999L13.498 3.68699C12.7 2.77099 11.289 2.77099 10.493 3.68899C8.641 5.82299 6.568 8.23199 5.001 9.99999H5H5.001H18.999" stroke="white" stroke-width="1.5" stroke-linecap="round" stroke-linejoin="round"/>
</svg>
