<svg width="14" height="14" viewBox="0 0 14 14" fill="none" xmlns="http://www.w3.org/2000/svg">
<path d="M10.7234 4.66675H11.3423C11.844 4.66675 12.25 5.07275 12.25 5.57441V11.343C12.25 11.8441 11.844 12.2501 11.3423 12.2501H4.99101C4.48934 12.2501 4.08334 11.8441 4.08334 11.3424V10.5001" stroke="#A2B1BA" stroke-linecap="round" stroke-linejoin="round"/>
<path d="M2.33397 10.4999H8.93264C9.32289 10.4999 9.68689 10.3051 9.9033 9.98017L10.3315 9.33734C10.587 8.95409 10.7235 8.50375 10.7235 8.04292V3.49992C10.7235 2.85534 10.2014 2.33325 9.5568 2.33325H3.72347C3.07889 2.33325 2.5568 2.85534 2.5568 3.49992V7.61592C2.5568 7.97817 2.47222 8.33517 2.31064 8.6595L1.81247 9.65584C1.61822 10.0438 1.90055 10.4999 2.33397 10.4999V10.4999Z" stroke="#A2B1BA" stroke-linecap="round" stroke-linejoin="round"/>
<path d="M4.88828 1.75V2.91667" stroke="#A2B1BA" stroke-linecap="round" stroke-linejoin="round"/>
<path d="M8.38824 1.75V2.91667" stroke="#A2B1BA" stroke-linecap="round" stroke-linejoin="round"/>
<path d="M4.77747 5.25H8.27747" stroke="#A2B1BA" stroke-linecap="round" stroke-linejoin="round"/>
<path d="M4.77747 7.58325H8.27747" stroke="#A2B1BA" stroke-linecap="round" stroke-linejoin="round"/>
</svg>
