<svg width="20" height="21" viewBox="0 0 20 21" fill="none" xmlns="http://www.w3.org/2000/svg">
<path d="M12.3993 8.97314C13.6969 10.2707 13.6969 12.3743 12.3993 13.6719C11.1018 14.9694 8.99813 14.9694 7.70062 13.6719C6.4031 12.3743 6.4031 10.2707 7.70062 8.97314C8.99813 7.67562 11.1018 7.67562 12.3993 8.97314" stroke="#323232" stroke-width="1.5" stroke-linecap="round" stroke-linejoin="round"/>
<path fill-rule="evenodd" clip-rule="evenodd" d="M17.5 7.99967V15.4997C17.5 16.4205 16.7542 17.1663 15.8333 17.1663H4.16667C3.24583 17.1663 2.5 16.4205 2.5 15.4997V7.99967C2.5 7.07884 3.24583 6.33301 4.16667 6.33301H5.83333L7.05167 4.24634C7.20083 3.99051 7.475 3.83301 7.77167 3.83301H12.1917C12.4842 3.83301 12.755 3.98634 12.9058 4.23634L14.1667 6.33301H15.8333C16.7542 6.33301 17.5 7.07884 17.5 7.99967Z" stroke="#323232" stroke-width="1.5" stroke-linecap="round" stroke-linejoin="round"/>
</svg>
