<svg width="24" height="24" viewBox="0 0 24 24" fill="none" xmlns="http://www.w3.org/2000/svg">
<path d="M16.164 3H5.00701C3.89701 3 2.99901 3.904 3.00701 5.015L3.11101 19.015C3.11901 20.114 4.01201 21 5.11101 21H18.992C20.097 21 20.992 20.105 20.992 19V7.828C20.992 7.298 20.781 6.789 20.406 6.414L17.578 3.586C17.203 3.211 16.695 3 16.164 3Z" stroke="white" stroke-width="1.5" stroke-linecap="round" stroke-linejoin="round"/>
<path d="M15.993 3V6.909C15.993 7.461 15.545 7.909 14.993 7.909H8.99301C8.44101 7.909 7.99301 7.461 7.99301 6.909V3" stroke="white" stroke-width="1.5" stroke-linecap="round" stroke-linejoin="round"/>
<path d="M7.00002 21V13.286C7.00002 12.576 7.57602 12 8.28602 12H15.715C16.424 12 17 12.576 17 13.286V21" stroke="white" stroke-width="1.5" stroke-linecap="round" stroke-linejoin="round"/>
</svg>
