<svg width="24" height="24" viewBox="0 0 24 24" fill="none" xmlns="http://www.w3.org/2000/svg">
<path d="M4.5 6.91H8.5" stroke="#A2B1BA" stroke-width="1.5" stroke-linecap="round" stroke-linejoin="round"/>
<path d="M4.5 10.137V5.437V5.43694C4.49892 4.33045 5.39357 3.43182 6.50005 3.42799V3.42799C7.60462 3.42799 8.50005 4.32342 8.50005 5.42799V5.42799V10.005" stroke="#A2B1BA" stroke-width="1.5" stroke-linecap="round" stroke-linejoin="round"/>
<path d="M11.25 10V2H16V10" stroke="#A2B1BA" stroke-width="1.5" stroke-linecap="round" stroke-linejoin="round"/>
<path d="M17 17H18.5V17C19.8807 17 21 15.8807 21 14.5V13.055C21 11.9504 20.1046 11.055 19 11.055H16.833" stroke="#A2B1BA" stroke-width="1.5" stroke-linecap="round" stroke-linejoin="round"/>
<path d="M5 10H15.833V10C16.3853 10 16.833 10.4477 16.833 11V17.333V17.333C16.833 19.3578 15.1918 20.9995 13.167 21H7.667V21C5.64177 21 4 19.3582 4 17.333V11V11C4 10.4477 4.44771 10 5 10V10Z" stroke="#A2B1BA" stroke-width="1.5" stroke-linecap="round" stroke-linejoin="round"/>
<path d="M15.25 4.84H13.75" stroke="#A2B1BA" stroke-width="1.5" stroke-linecap="round" stroke-linejoin="round"/>
<path d="M15.25 7.34H14.75" stroke="#A2B1BA" stroke-width="1.5" stroke-linecap="round" stroke-linejoin="round"/>
</svg>
