<svg width="24" height="24" viewBox="0 0 24 24" fill="none" xmlns="http://www.w3.org/2000/svg">
<path d="M7 3H6C4.895 3 4 3.895 4 5V19C4 20.105 4.895 21 6 21H18C19.105 21 20 20.105 20 19V7.828C20 7.298 19.789 6.789 19.414 6.414L16.586 3.586C16.211 3.211 15.702 3 15.172 3H11" stroke="#A2B1BA" stroke-width="1.5" stroke-linecap="round" stroke-linejoin="round"/>
<path d="M20 8H16C15.448 8 15 7.552 15 7V3" stroke="#A2B1BA" stroke-width="1.5" stroke-linecap="round" stroke-linejoin="round"/>
<path d="M10 2H8C7.448 2 7 2.448 7 3V8L9 7L11 8V3C11 2.448 10.552 2 10 2Z" stroke="#A2B1BA" stroke-width="1.5" stroke-linecap="round" stroke-linejoin="round"/>
<path d="M7 12H16" stroke="#A2B1BA" stroke-width="1.5" stroke-linecap="round" stroke-linejoin="round"/>
<path d="M7 15.5H16" stroke="#A2B1BA" stroke-width="1.5" stroke-linecap="round" stroke-linejoin="round"/>
</svg>
