<svg width="24" height="25" viewBox="0 0 24 25" fill="none" xmlns="http://www.w3.org/2000/svg">
<path d="M17 21.5H12V21.5C7.02944 21.5 3 17.4706 3 12.5C3 7.52944 7.02944 3.5 12 3.5C16.9706 3.5 21 7.52944 21 12.5V14C21 15.3807 19.8807 16.5 18.5 16.5C17.1193 16.5 16 15.3807 16 14V12.5C16 10.2909 14.2091 8.5 12 8.5V8.5C9.79086 8.5 8 10.2909 8 12.5C8 14.7091 9.79086 16.5 12 16.5C14.2091 16.5 16 14.7091 16 12.5" stroke="#A2B1BA" stroke-width="1.5" stroke-linecap="round" stroke-linejoin="round"/>
</svg>
