<svg width="24" height="24" viewBox="0 0 24 24" fill="none" xmlns="http://www.w3.org/2000/svg">
<path d="M16.68 9.32007L10.293 15.7071V15.7071C10.1055 15.8946 9.8512 16 9.58601 16.0001H8V16.0001C7.44772 16.0001 7 15.5524 7 15.0001V13.4141V13.4141C7.0001 13.1486 7.1042 12.8937 7.29 12.7041L14.32 5.51407V5.51407C15.8195 3.9802 18.2786 3.95235 19.8125 5.45188C19.823 5.46221 19.8335 5.47261 19.844 5.48307L19.916 5.55507V5.55507C21.4627 7.08955 21.4727 9.58737 19.9382 11.1341C19.9255 11.1468 19.9128 11.1595 19.9 11.1721C17.542 13.4811 14.312 16.6951 12.462 18.5411V18.5411C11.5245 19.4756 10.2547 20.0003 8.931 20.0001H6V20.0001C4.34315 20.0001 3 18.6569 3 17.0001V17.0001V14.0711V14.0711C3 12.7453 3.52659 11.4738 4.46395 10.5361L10.68 4.32007" stroke="#A2B1BA" stroke-width="1.5" stroke-linecap="round" stroke-linejoin="round"/>
</svg>
