<svg width="24" height="24" viewBox="0 0 24 24" fill="none" xmlns="http://www.w3.org/2000/svg">
<path fill-rule="evenodd" clip-rule="evenodd" d="M19.0029 6.9383H12.5292C12.1968 6.93847 11.886 6.77352 11.6998 6.49812L10.2993 4.43426C10.1124 4.16 9.80176 3.99623 9.46991 3.99707H4.99705C3.89202 3.99707 2.99622 4.89288 2.99622 5.99791V18.0029C2.99622 19.1079 3.89202 20.0037 4.99705 20.0037H19.0029C20.1079 20.0037 21.0037 19.1079 21.0037 18.0029V8.93914C21.0037 7.83411 20.1079 6.9383 19.0029 6.9383Z" stroke="#323232" stroke-linecap="round" stroke-linejoin="round"/>
<path d="M2.99622 9.8797H9.46991C9.8007 9.87955 10.11 9.7159 10.2963 9.44252L11.6968 7.37666C11.883 7.10261 12.1929 6.93852 12.5242 6.93848" stroke="#323232" stroke-linecap="round" stroke-linejoin="round"/>
</svg>
