<svg width="20" height="20" viewBox="0 0 20 20" fill="none" xmlns="http://www.w3.org/2000/svg">
<path d="M14.2883 17.2558L17.255 14.2892C17.5808 13.9633 17.5808 13.4358 17.255 13.1108L15.9333 11.7892C15.6075 11.4633 15.08 11.4633 14.755 11.7892L11.7883 14.7558C11.6317 14.9125 11.5442 15.1242 11.5442 15.345V17.5H13.6992C13.92 17.5 14.1317 17.4125 14.2883 17.2558Z" stroke="#323232" stroke-linecap="round" stroke-linejoin="round"/>
<path d="M17.5 9.16667V6.61667C17.5 5.69667 16.7542 4.95 15.8333 4.95H10.4408C10.165 4.95 9.90667 4.81333 9.75167 4.585L8.58083 2.86417C8.42583 2.63667 8.16833 2.5 7.8925 2.5H4.16667C3.24583 2.5 2.5 3.24583 2.5 4.16667V14.1667C2.5 15.0875 3.24583 15.8333 4.16667 15.8333H8.33333" stroke="#323232" stroke-linecap="round" stroke-linejoin="round"/>
</svg>
