<svg width="25" height="24" viewBox="0 0 25 24" fill="none" xmlns="http://www.w3.org/2000/svg">
<path d="M20.0601 7.11914C21.9801 10.0891 21.9791 13.9131 20.0611 16.8821" stroke="white" stroke-width="1.5" stroke-linecap="round" stroke-linejoin="round"/>
<path d="M16.0477 8.45284C18.007 10.4121 18.007 13.5887 16.0477 15.548C14.0884 17.5072 10.9119 17.5072 8.9526 15.548C6.99334 13.5887 6.99334 10.4121 8.9526 8.45284C10.9119 6.49358 14.0884 6.49358 16.0477 8.45284" stroke="white" stroke-width="1.5" stroke-linecap="round" stroke-linejoin="round"/>
<path d="M14.821 7.55118L17.405 4.41218C17.781 3.95518 18.469 3.92218 18.888 4.34018L20.161 5.61318C20.58 6.03218 20.546 6.72018 20.089 7.09618L16.95 9.68018" stroke="white" stroke-width="1.5" stroke-linecap="round" stroke-linejoin="round"/>
<path d="M10.1791 16.4493L7.59511 19.5883C7.21911 20.0453 6.53111 20.0783 6.11211 19.6603L4.83911 18.3873C4.42011 17.9683 4.45411 17.2803 4.91111 16.9043L8.05011 14.3203" stroke="white" stroke-width="1.5" stroke-linecap="round" stroke-linejoin="round"/>
<path d="M8.05096 9.67862L4.91096 7.09462C4.45396 6.71862 4.42096 6.03062 4.83896 5.61162L6.11196 4.33862C6.53096 3.91962 7.21896 3.95362 7.59496 4.41062L10.179 7.54962" stroke="white" stroke-width="1.5" stroke-linecap="round" stroke-linejoin="round"/>
<path d="M16.9491 14.3213L20.0881 16.9053C20.5451 17.2813 20.5781 17.9693 20.1601 18.3883L18.8871 19.6613C18.4681 20.0803 17.7801 20.0463 17.4041 19.5893L14.8201 16.4503" stroke="white" stroke-width="1.5" stroke-linecap="round" stroke-linejoin="round"/>
<path d="M17.3819 19.5606C14.4129 21.4786 10.5879 21.4796 7.6189 19.5596" stroke="white" stroke-width="1.5" stroke-linecap="round" stroke-linejoin="round"/>
<path d="M4.93899 7.11816C3.02099 10.0872 3.01999 13.9112 4.93999 16.8812" stroke="white" stroke-width="1.5" stroke-linecap="round" stroke-linejoin="round"/>
<path d="M17.3809 4.43975C14.4109 2.51975 10.5869 2.52075 7.61792 4.43875" stroke="white" stroke-width="1.5" stroke-linecap="round" stroke-linejoin="round"/>
</svg>
