<svg width="22" height="22" viewBox="0 0 22 22" fill="none" xmlns="http://www.w3.org/2000/svg">
<path d="M0.301437 3.23777C0.301437 1.58545 1.57924 0.297399 3.23154 0.287786C4.00769 0.283271 4.78406 0.286105 5.55996 0.29629C6.70075 0.311265 7.61716 1.19565 7.59962 2.33641C7.58227 3.46464 8.46601 4.37326 9.59436 4.37546C9.63922 4.37555 9.68407 4.37554 9.72892 4.37543C10.8526 4.37261 11.7235 3.46942 11.7039 2.34588C11.684 1.20049 12.6075 0.314311 13.753 0.300218C14.3966 0.2923 15.0401 0.2885 15.6837 0.288253C17.9875 0.287365 19.8033 2.09743 19.7924 4.40128C19.7908 4.73304 19.7917 5.06487 19.7977 5.39671C19.7943 5.72895 19.7978 6.06119 19.8008 6.39344C19.8112 7.52344 18.9345 8.41026 17.8046 8.39106C17.6159 8.38785 17.4272 8.38406 17.2385 8.38108C16.4101 8.36797 15.7347 9.00524 15.7335 9.83375C15.7322 10.6872 16.4225 11.374 17.2759 11.3818C17.7364 11.3861 18.1965 11.3834 18.6567 11.3799C20.3536 11.3671 21.6976 12.7302 21.7079 14.4272C21.7122 15.1212 21.7143 15.8153 21.7143 16.5097C21.7145 19.3983 19.4101 21.7147 16.5215 21.7011C15.7139 21.6973 14.907 21.6956 14.1011 21.7053C12.584 21.7053 11.4211 20.5198 11.4247 19.0026C11.4283 17.4575 11.4531 15.9112 11.4358 14.3665C11.4239 13.3052 10.573 12.4464 9.51157 12.4462C8.44264 12.4459 7.59715 13.316 7.59269 14.3849C7.58766 15.5871 7.6038 16.7905 7.60955 17.9946C7.61939 20.0594 5.95621 21.713 3.89139 21.7142C3.006 21.7147 2.12061 21.7063 1.23521 21.6874C0.728288 21.6766 0.308205 21.2796 0.291282 20.7728C0.301437 14.9244 0.291283 9.08616 0.301437 3.23777Z" fill="white"/>
</svg>
