<svg width="34" height="34" viewBox="0 0 34 34" fill="none" xmlns="http://www.w3.org/2000/svg">
<path d="M12.0417 25.1896V11.2821C12.0417 10.6942 12.4043 10.1672 12.954 9.95898L24.9957 5.37181C25.9236 5.01765 26.9167 5.70331 26.9167 6.69498V22.3477" stroke="#323232" stroke-width="1.5" stroke-linecap="round" stroke-linejoin="round"/>
<path d="M25.8794 19.844C27.2625 21.2271 27.2625 23.4695 25.8794 24.8526C24.4963 26.2357 22.2538 26.2357 20.8707 24.8526C19.4876 23.4695 19.4876 21.2271 20.8707 19.844C22.2538 18.4609 24.4963 18.4609 25.8794 19.844" stroke="#323232" stroke-width="1.5" stroke-linecap="round" stroke-linejoin="round"/>
<path d="M11.0043 22.677C12.3874 24.0601 12.3874 26.3025 11.0043 27.6856C9.62123 29.0688 7.37878 29.0688 5.99567 27.6856C4.61257 26.3025 4.61257 24.0601 5.99567 22.677C7.37878 21.2939 9.62124 21.2939 11.0043 22.677" stroke="#323232" stroke-width="1.5" stroke-linecap="round" stroke-linejoin="round"/>
</svg>
