<svg width="21" height="21" viewBox="0 0 21 21" fill="none" xmlns="http://www.w3.org/2000/svg">
<path d="M18 11.3888V16.3097C18 17.243 17.2492 17.9997 16.3225 17.9997H4.6775C3.75083 17.9997 3 17.243 3 16.3097V5.52301C3 4.58967 3.75083 3.83301 4.6775 3.83301H10.5" stroke="#323232" stroke-linecap="round" stroke-linejoin="round"/>
<path d="M7.02332 14.8104L10.1325 14.0329C10.2791 13.9963 10.4125 13.9204 10.52 13.8138L17.5117 6.82211C18.1625 6.17128 18.1625 5.11628 17.5117 4.46544L17.3683 4.32211C16.7175 3.67128 15.6625 3.67128 15.0117 4.32211L8.01998 11.3138C7.91332 11.4204 7.83748 11.5546 7.80082 11.7013L7.02332 14.8104" stroke="#323232" stroke-linecap="round" stroke-linejoin="round"/>
<path d="M13.6917 5.6416L16.1917 8.1416" stroke="#323232" stroke-linecap="round" stroke-linejoin="round"/>
<path d="M10.1217 14.0354C10.1333 13.9471 10.1483 13.8596 10.1483 13.7679C10.1483 12.6171 9.21582 11.6846 8.06499 11.6846C7.97332 11.6846 7.88582 11.7004 7.79749 11.7112" stroke="#323232" stroke-linecap="round" stroke-linejoin="round"/>
</svg>
