<svg width="34" height="34" viewBox="0 0 34 34" fill="none" xmlns="http://www.w3.org/2000/svg">
<path d="M8.14491 20.8958C8.07491 20.8959 8.00652 20.9169 7.9484 20.9559C7.89028 20.9949 7.84503 21.0503 7.81836 21.115C7.7917 21.1798 7.78482 21.2509 7.79859 21.3196C7.81236 21.3882 7.84616 21.4512 7.89573 21.5007C7.94529 21.5501 8.0084 21.5838 8.07708 21.5973C8.14575 21.6109 8.21692 21.6039 8.28158 21.577C8.34624 21.5502 8.4015 21.5048 8.44038 21.4466C8.47925 21.3884 8.5 21.3199 8.5 21.2499C8.4998 21.1559 8.4623 21.0658 8.39572 20.9994C8.32914 20.933 8.23893 20.8957 8.1449 20.8958" stroke="#CDD9E0" stroke-width="1.5" stroke-linecap="round" stroke-linejoin="round"/>
<path d="M14.1667 19.125C14.587 19.125 14.9978 19.2496 15.3473 19.4831C15.6967 19.7166 15.9691 20.0485 16.1299 20.4368C16.2907 20.8251 16.3328 21.2524 16.2508 21.6646C16.1688 22.0768 15.9665 22.4554 15.6693 22.7526C15.3721 23.0498 14.9934 23.2522 14.5812 23.3342C14.169 23.4162 13.7418 23.3741 13.3535 23.2132C12.9652 23.0524 12.6333 22.78 12.3998 22.4306C12.1663 22.0811 12.0417 21.6703 12.0417 21.25C12.0417 20.6864 12.2656 20.1459 12.6641 19.7474C13.0626 19.3489 13.6031 19.125 14.1667 19.125Z" stroke="#CDD9E0" stroke-width="1.5" stroke-linecap="round" stroke-linejoin="round"/>
<path d="M24.0833 17.0001V25.5001C24.0833 26.2515 23.7848 26.9722 23.2534 27.5035C22.7221 28.0349 22.0014 28.3334 21.25 28.3334H7.08178C6.7098 28.3333 6.34148 28.2599 5.99786 28.1175C5.65424 27.9751 5.34204 27.7663 5.07908 27.5032C4.81613 27.2401 4.60757 26.9278 4.46531 26.5841C4.32306 26.2404 4.2499 25.8721 4.25 25.5001V16.9985C4.2501 16.6265 4.32347 16.2582 4.46591 15.9146C4.60835 15.571 4.81708 15.2588 5.08018 14.9958C5.34328 14.7329 5.6556 14.5243 5.9993 14.3821C6.343 14.2398 6.71136 14.1666 7.08333 14.1667H21.2516C21.6235 14.1668 21.9919 14.2402 22.3355 14.3827C22.6791 14.5251 22.9913 14.7338 23.2543 14.9969C23.5172 15.26 23.7258 15.5723 23.868 15.916C24.0103 16.2598 24.0834 16.6281 24.0833 17.0001Z" stroke="#CDD9E0" stroke-width="1.5" stroke-linecap="round" stroke-linejoin="round"/>
<path d="M20.1884 21.6041C20.2584 21.6039 20.3268 21.583 20.3849 21.5439C20.4431 21.5049 20.4883 21.4495 20.515 21.3848C20.5416 21.3201 20.5485 21.2489 20.5348 21.1803C20.521 21.1116 20.4872 21.0486 20.4376 20.9992C20.388 20.9497 20.3249 20.9161 20.2563 20.9025C20.1876 20.8889 20.1164 20.896 20.0518 20.9228C19.9871 20.9496 19.9318 20.995 19.893 21.0533C19.8541 21.1115 19.8333 21.1799 19.8333 21.2499C19.8335 21.3439 19.871 21.4341 19.9376 21.5005C20.0042 21.5669 20.0944 21.6041 20.1884 21.6041" stroke="#CDD9E0" stroke-width="1.5" stroke-linecap="round" stroke-linejoin="round"/>
<path d="M8.78015 14.1667L10.4948 7.76765L10.4952 7.76623C10.5916 7.40695 10.7578 7.07016 10.9843 6.77511C11.2108 6.48005 11.4932 6.23251 11.8154 6.0466C12.1376 5.86069 12.4933 5.74007 12.8621 5.69162C13.2309 5.64316 13.6057 5.66782 13.9649 5.7642L27.6488 9.4307L27.6502 9.43114C28.0095 9.5275 28.3463 9.69369 28.6414 9.92022C28.9364 10.1467 29.184 10.4292 29.3699 10.7514C29.5558 11.0736 29.6764 11.4292 29.7248 11.798C29.7733 12.1668 29.7486 12.5416 29.6522 12.9009L27.4523 21.1112C27.2618 21.8188 26.8041 22.4249 26.1756 22.8016C25.5471 23.1784 24.7969 23.2966 24.0831 23.1311" stroke="#CDD9E0" stroke-width="1.5" stroke-linecap="round" stroke-linejoin="round"/>
</svg>
