<svg width="20" height="20" viewBox="0 0 20 20" fill="none" xmlns="http://www.w3.org/2000/svg">
<path d="M13.1725 5.99414C13.2934 6.11498 13.2934 6.31081 13.1725 6.43164C13.0517 6.55248 12.8559 6.55248 12.735 6.43164C12.6142 6.31081 12.6142 6.11498 12.735 5.99414C12.8567 5.87331 13.0517 5.87331 13.1725 5.99414Z" stroke="#F84263" stroke-linecap="round" stroke-linejoin="round"/>
<path d="M15.0617 10.2367L16.1525 9.14583C16.4817 8.81583 16.6667 8.37083 16.6667 7.90583V4.25167C16.6667 3.28417 15.8825 2.5 14.9134 2.5H11.2592C10.795 2.5 10.3492 2.685 10.0217 3.01333L3.01337 10.0217C2.3292 10.7058 2.3292 11.815 3.01337 12.4992L6.66754 16.1533C7.3517 16.8375 8.46087 16.8375 9.14504 16.1533L10.2367 15.0617" stroke="#F84263" stroke-linecap="round" stroke-linejoin="round"/>
<path d="M15.2082 13.0208L13.3848 14.8441L12.2915 13.75" stroke="#F84263" stroke-linecap="round" stroke-linejoin="round"/>
<path d="M13.75 17.5C11.6792 17.5 10 15.8208 10 13.75C10 11.7217 11.725 9.99833 13.7525 10C15.8225 10.0017 17.5 11.68 17.5 13.75C17.5 15.8208 15.8217 17.5 13.75 17.5Z" stroke="#F84263" stroke-linecap="round" stroke-linejoin="round"/>
</svg>
