<svg width="24" height="24" viewBox="0 0 24 24" fill="none" xmlns="http://www.w3.org/2000/svg">
<path d="M12 3C16.971 3 21 7.029 21 12C21 16.971 16.971 21 12 21C7.029 21 3 16.971 3 12C3 7.029 7.029 3 12 3Z" stroke="#A2B1BA" stroke-width="1.5" stroke-linecap="round" stroke-linejoin="round"/>
<path d="M18 12H16.309C16.12 12 15.946 12.107 15.862 12.276L14.447 15.105C14.263 15.474 13.737 15.474 13.553 15.105L10.43 8.86103C10.249 8.49903 9.735 8.49103 9.543 8.84703L7.984 11.737C7.896 11.899 7.727 12 7.544 12H6" stroke="#A2B1BA" stroke-width="1.5" stroke-linecap="round" stroke-linejoin="round"/>
</svg>
