<svg width="24" height="25" viewBox="0 0 24 25" fill="none" xmlns="http://www.w3.org/2000/svg">
<path d="M3 12.4995C3.00089 11.8365 3.15345 11.1825 3.446 10.5875V10.5875C4.25759 9.02787 5.48808 7.72545 6.99917 6.82663C8.51026 5.92782 10.2421 5.46824 12 5.49955C13.7579 5.46824 15.4897 5.92782 17.0008 6.82663C18.5119 7.72545 19.7424 9.02787 20.554 10.5875C20.8474 11.1822 21 11.8364 21 12.4995C21 13.1627 20.8474 13.8169 20.554 14.4115V14.4115C19.7424 15.9712 18.5119 17.2736 17.0008 18.1725C15.4897 19.0713 13.7579 19.5308 12 19.4995C10.2421 19.5308 8.51026 19.0713 6.99917 18.1725C5.48808 17.2736 4.25759 15.9712 3.446 14.4115V14.4115C3.15345 13.8166 3.00089 13.1626 3 12.4995V12.4995Z" stroke="#323232" stroke-width="1.5" stroke-linecap="round" stroke-linejoin="round"/>
<path d="M15 12.5C15 13.0933 14.8241 13.6734 14.4944 14.1667C14.1648 14.6601 13.6962 15.0446 13.1481 15.2716C12.5999 15.4987 11.9967 15.5581 11.4147 15.4424C10.8328 15.3266 10.2982 15.0409 9.87868 14.6213C9.45912 14.2018 9.1734 13.6672 9.05765 13.0853C8.94189 12.5033 9.0013 11.9001 9.22836 11.3519C9.45543 10.8038 9.83994 10.3352 10.3333 10.0056C10.8266 9.67595 11.4067 9.5 12 9.5" stroke="#323232" stroke-width="1.5" stroke-linecap="round" stroke-linejoin="round"/>
</svg>
