<svg width="20" height="20" viewBox="0 0 20 20" fill="none" xmlns="http://www.w3.org/2000/svg">
<path fill-rule="evenodd" clip-rule="evenodd" d="M9.99988 17.5V17.5C5.85738 17.5 2.49988 14.1425 2.49988 10V10C2.49988 5.8575 5.85738 2.5 9.99988 2.5V2.5C14.1424 2.5 17.4999 5.8575 17.4999 10V10C17.4999 14.1425 14.1424 17.5 9.99988 17.5Z" stroke="#A2B1BA" stroke-width="1.2" stroke-linecap="round" stroke-linejoin="round"/>
<path d="M9.99986 11.0415V10.8332C9.99986 10.1523 10.4207 9.78318 10.8424 9.49984C11.254 9.22234 11.6665 8.86068 11.6665 8.19401C11.6665 7.27318 10.9207 6.52734 9.99986 6.52734C9.07902 6.52734 8.33319 7.27318 8.33319 8.19401" stroke="#A2B1BA" stroke-width="1.2" stroke-linecap="round" stroke-linejoin="round"/>
<path d="M9.99903 13.3333C9.88403 13.3333 9.79069 13.4267 9.79153 13.5417C9.79153 13.6567 9.88486 13.75 9.99986 13.75C10.1149 13.75 10.2082 13.6567 10.2082 13.5417C10.2082 13.4267 10.1149 13.3333 9.99903 13.3333" stroke="#A2B1BA" stroke-width="1.2" stroke-linecap="round" stroke-linejoin="round"/>
</svg>
