<svg width="24" height="24" viewBox="0 0 24 24" fill="none" xmlns="http://www.w3.org/2000/svg">
<path d="M16.1639 3H5.00689C3.89689 3 2.99889 3.904 3.00689 5.015L3.11089 19.015C3.11889 20.114 4.01189 21 5.11089 21H18.9919C20.0969 21 20.9919 20.105 20.9919 19V7.828C20.9919 7.298 20.7809 6.789 20.4059 6.414L17.5779 3.586C17.2029 3.211 16.6949 3 16.1639 3Z" stroke="white" stroke-width="1.5" stroke-linecap="round" stroke-linejoin="round"/>
<path d="M15.9929 3V6.909C15.9929 7.461 15.5449 7.909 14.9929 7.909H8.99292C8.44092 7.909 7.99292 7.461 7.99292 6.909V3" stroke="white" stroke-width="1.5" stroke-linecap="round" stroke-linejoin="round"/>
<path d="M7 21V13.286C7 12.576 7.576 12 8.286 12H15.715C16.424 12 17 12.576 17 13.286V21" stroke="white" stroke-width="1.5" stroke-linecap="round" stroke-linejoin="round"/>
</svg>
