<svg width="24" height="24" viewBox="0 0 24 24" fill="none" xmlns="http://www.w3.org/2000/svg">
<path d="M21 10V17C21 19.2 19.2 21 17 21H7.00003L6.99003 20.999C4.78003 20.989 2.99003 19.199 2.99003 16.989V6.989C2.98003 4.779 4.78003 2.979 6.98003 2.979H12.98" stroke="#CDD9E0" stroke-width="1.5" stroke-linecap="round" stroke-linejoin="round"/>
<path d="M3 13.0001L4.29 11.7001H4.28C5.22 10.7501 6.74 10.7501 7.68 11.6901L11.97 15.9801" stroke="#CDD9E0" stroke-width="1.5" stroke-linecap="round" stroke-linejoin="round"/>
<path d="M7.00293 21L13.2929 14.7V14.69C14.2329 13.74 15.7529 13.74 16.6929 14.69L20.6229 18.62" stroke="#CDD9E0" stroke-width="1.5" stroke-linecap="round" stroke-linejoin="round"/>
<path d="M18 3L15.5 5.5" stroke="#CDD9E0" stroke-width="1.5" stroke-linecap="round" stroke-linejoin="round"/>
<path d="M20.5 5.5L18 3" stroke="#CDD9E0" stroke-width="1.5" stroke-linecap="round" stroke-linejoin="round"/>
<path d="M18 3V8" stroke="#CDD9E0" stroke-width="1.5" stroke-linecap="round" stroke-linejoin="round"/>
</svg>
