<svg width="20" height="20" viewBox="0 0 20 20" fill="none" xmlns="http://www.w3.org/2000/svg">
<path d="M7.29167 3.74998H5.835C5.0825 3.74998 4.40833 4.21165 4.14417 4.90915L2.105 10.285C1.95333 10.6858 1.875 11.1108 1.875 11.5391V14.4641C1.875 15.45 2.68333 16.25 3.68083 16.25H16.32C17.3175 16.25 18.1258 15.4508 18.1258 14.4641V11.54C18.1258 11.1116 18.0483 10.6866 17.8958 10.2858L15.8567 4.90831C15.5925 4.21081 14.9183 3.74915 14.1658 3.74915L7.29167 3.74998" stroke="#323232" stroke-linecap="round" stroke-linejoin="round"/>
<path d="M1.93494 10.8925H5.82994C6.1716 10.8925 6.48494 11.0834 6.63744 11.3859L7.0416 12.185C7.19494 12.4875 7.50744 12.6792 7.84994 12.6792H12.1508C12.4924 12.6792 12.8049 12.4884 12.9574 12.1859L13.3616 11.3875C13.5149 11.085 13.8274 10.8934 14.1699 10.8934H18.0658" stroke="#323232" stroke-linecap="round" stroke-linejoin="round"/>
<path d="M3.47015 6.68668H5.87099C6.21349 6.68668 6.52515 6.87751 6.67765 7.18001L7.08099 7.97834C7.23432 8.28084 7.54682 8.47168 7.88932 8.47168H12.1902C12.5327 8.47168 12.8443 8.28084 12.9968 7.97834L13.4002 7.18001C13.5535 6.87751 13.866 6.68668 14.2085 6.68668H16.5302" stroke="#323232" stroke-linecap="round" stroke-linejoin="round"/>
</svg>
