<svg width="24" height="24" viewBox="0 0 24 24" fill="none" xmlns="http://www.w3.org/2000/svg">
<path d="M8 20.064V11C8 9.895 8.895 9 10 9H20.487" stroke="#A2B1BA" stroke-width="1.5" stroke-linecap="round" stroke-linejoin="round"/>
<path d="M8 14H20.776" stroke="#A2B1BA" stroke-width="1.5" stroke-linecap="round" stroke-linejoin="round"/>
<path d="M11.005 11.4902C11.002 11.4902 11 11.4922 11 11.4952C11 11.4982 11.002 11.5002 11.005 11.5002C11.008 11.5002 11.01 11.4982 11.01 11.4952C11.01 11.4922 11.008 11.4902 11.005 11.4902Z" stroke="#A2B1BA" stroke-width="1.5" stroke-linecap="round" stroke-linejoin="round"/>
<path d="M13.548 11.4902C13.545 11.4902 13.543 11.4922 13.543 11.4952C13.543 11.4982 13.545 11.5002 13.548 11.5002C13.551 11.5002 13.553 11.4982 13.553 11.4952C13.553 11.4922 13.551 11.4902 13.548 11.4902Z" stroke="#A2B1BA" stroke-width="1.5" stroke-linecap="round" stroke-linejoin="round"/>
<path d="M12 21C16.971 21 21 16.971 21 12C21 7.029 16.971 3 12 3C7.029 3 3 7.029 3 12C3 16.971 7.029 21 12 21Z" stroke="#A2B1BA" stroke-width="1.5" stroke-linecap="round" stroke-linejoin="round"/>
<path d="M16.088 11.4902C16.085 11.4902 16.083 11.4922 16.083 11.4952C16.083 11.4982 16.085 11.5002 16.088 11.5002C16.091 11.5002 16.093 11.4982 16.093 11.4952C16.093 11.4922 16.09 11.4902 16.088 11.4902Z" stroke="#A2B1BA" stroke-width="1.5" stroke-linecap="round" stroke-linejoin="round"/>
</svg>
