<svg width="24" height="24" viewBox="0 0 24 24" fill="none" xmlns="http://www.w3.org/2000/svg">
<path fill-rule="evenodd" clip-rule="evenodd" d="M19.003 6.9383H12.5293C12.1969 6.93847 11.8861 6.77352 11.7 6.49812L10.2994 4.43426C10.1125 4.16 9.80188 3.99623 9.47003 3.99707H4.99717C3.89214 3.99707 2.99634 4.89288 2.99634 5.99791V18.0029C2.99634 19.1079 3.89214 20.0037 4.99717 20.0037H19.003C20.108 20.0037 21.0038 19.1079 21.0038 18.0029V8.93914C21.0038 7.83411 20.108 6.9383 19.003 6.9383Z" stroke="white" stroke-width="1.5" stroke-linecap="round" stroke-linejoin="round"/>
<path d="M2.99634 9.8797H9.47003C9.80082 9.87955 10.1101 9.7159 10.2964 9.44252L11.697 7.37666C11.8832 7.10261 12.193 6.93852 12.5243 6.93848" stroke="white" stroke-width="1.5" stroke-linecap="round" stroke-linejoin="round"/>
</svg>
